<?xml version="1.0" encoding="UTF-8" standalone="no"?>
<svg
   viewBox="0,0,255.99207,255.99207"
   width="32px"
   height="32px"
   version="1.1"
   id="svg4"
   sodipodi:docname="start.svg"
   inkscape:version="1.3.2 (091e20ef0f, 2023-11-25, custom)"
   xmlns:inkscape="http://www.inkscape.org/namespaces/inkscape"
   xmlns:sodipodi="http://sodipodi.sourceforge.net/DTD/sodipodi-0.dtd"
   xmlns="http://www.w3.org/2000/svg"
   xmlns:svg="http://www.w3.org/2000/svg">
  <defs
     id="defs4" />
  <sodipodi:namedview
     id="namedview4"
     pagecolor="#ffffff"
     bordercolor="#000000"
     borderopacity="0.25"
     inkscape:showpageshadow="2"
     inkscape:pageopacity="0.0"
     inkscape:pagecheckerboard="0"
     inkscape:deskcolor="#d1d1d1"
     inkscape:zoom="37.1875"
     inkscape:cx="16"
     inkscape:cy="16"
     inkscape:window-width="2560"
     inkscape:window-height="1428"
     inkscape:window-x="0"
     inkscape:window-y="50"
     inkscape:window-maximized="1"
     inkscape:current-layer="svg4" />
  <g
     transform=""
     id="start-here-kde"
     inkscape:label="start-here-kde">
    <g
       fill="#ffffff"
       fill-rule="nonzero"
       stroke="none"
       stroke-width="1"
       stroke-linecap="butt"
       stroke-linejoin="miter"
       stroke-miterlimit="10"
       stroke-dasharray=""
       stroke-dashoffset="0"
       font-family="none"
       font-weight="none"
       font-size="none"
       text-anchor="none"
       style="mix-blend-mode: normal"
       id="g1">
      <path
         d="M0,255.99207v-255.99207h255.99207v255.99207z"
         id="bgRectangle"
         style="opacity:0" />
    </g>
    <g
       fill="#dfdfdf"
       fill-rule="nonzero"
       stroke="none"
       stroke-width="1"
       stroke-linecap="butt"
       stroke-linejoin="miter"
       stroke-miterlimit="10"
       stroke-dasharray=""
       stroke-dashoffset="0"
       font-family="none"
       font-weight="none"
       font-size="none"
       text-anchor="none"
       style="mix-blend-mode: normal"
       id="g3">
      <g
         transform="scale(10.66667,10.66667)"
         id="g2">
        <path
           d="M14.3,19.414c0.216,-0.569 0.342,-1.218 0.342,-1.913c0,-2.129 -1.139,-3.86 -2.539,-3.86c-1.412,0 -2.55,1.731 -2.55,3.86c0,0.683 0.114,1.332 0.33,1.89c-4.657,0.49 -7.936,2.437 -9.268,3.313c2.243,-3.234 4.589,-7.025 6.831,-11.386c0.558,-1.082 1.082,-2.152 1.571,-3.199c0.193,0.125 0.387,0.262 0.603,0.399c1.002,0.626 1.936,0.968 2.619,1.15c-0.501,-0.376 -1.047,-0.831 -1.605,-1.389c-0.421,-0.421 -0.797,-0.843 -1.116,-1.253c0.945,-2.072 1.765,-4.065 2.482,-5.955c1.195,3.165 2.687,6.615 4.554,10.247c1.207,2.334 2.437,4.509 3.666,6.513c-0.353,-0.193 -0.74,-0.376 -1.15,-0.535c-0.706,-0.273 -1.366,-0.444 -1.936,-0.546c0.774,0.387 1.674,0.9 2.619,1.583c0.615,0.456 1.161,0.911 1.628,1.355c0.011,0.011 0.011,0.011 0.023,0.023c0.649,1.059 1.321,2.038 1.981,2.994c-1.309,-0.866 -4.531,-2.779 -9.085,-3.291z"
           id="path1" />
      </g>
    </g>
  </g>
</svg>
