<?xml version="1.0" encoding="UTF-8"?>
<!-- Created with Inkscape (http://www.inkscape.org/) -->
<svg width="24" height="24" enable-background="new" version="1.0" xmlns="http://www.w3.org/2000/svg">
 <path d="m12 1c-6.0811 0-11 4.9189-11 11s4.9189 11 11 11 11-4.9189 11-11-4.9189-11-11-11z" color="#000000" color-rendering="auto" enable-background="accumulate" fill="#ff3333" image-rendering="auto" shape-rendering="auto" solid-color="#000000" style="isolation:auto;mix-blend-mode:normal"/>
 <path d="m12 0c-6.6215 0-12 5.3785-12 12s5.3785 12 12 12 12-5.3785 12-12-5.3785-12-12-12zm0 1c6.0811 0 11 4.9189 11 11s-4.9189 11-11 11-11-4.9189-11-11 4.9189-11 11-11z" color="#000000" color-rendering="auto" dominant-baseline="auto" enable-background="accumulate" fill="#fafafa" image-rendering="auto" shape-rendering="auto" solid-color="#000000" style="font-feature-settings:normal;font-variant-alternates:normal;font-variant-caps:normal;font-variant-ligatures:normal;font-variant-numeric:normal;font-variant-position:normal;isolation:auto;mix-blend-mode:normal;shape-padding:0;text-decoration-color:#000000;text-decoration-line:none;text-decoration-style:solid;text-indent:0;text-orientation:mixed;text-transform:none;white-space:normal"/>
 <path d="m16.95 15.536-3.5355-3.5355 3.5355-3.5355v-1.4142l-1.4142-3e-7 -3.5355 3.5355-3.5355-3.5355-1.4142-3e-7v1.4142l3.5355 3.5355-3.5355 3.5355v1.4142h1.4142l3.5355-3.5355 3.5355 3.5355 1.4142 1e-6z" color="#000000" color-rendering="auto" enable-background="accumulate" fill="#fafafa" image-rendering="auto" shape-rendering="auto" solid-color="#000000" style="isolation:auto;mix-blend-mode:normal"/>
</svg>
