<?xml version="1.0" encoding="UTF-8" standalone="no"?>
<!-- Created with Inkscape (http://www.inkscape.org/) -->

<svg
   xmlns:dc="http://purl.org/dc/elements/1.1/"
   xmlns:cc="http://creativecommons.org/ns#"
   xmlns:rdf="http://www.w3.org/1999/02/22-rdf-syntax-ns#"
   xmlns:svg="http://www.w3.org/2000/svg"
   xmlns="http://www.w3.org/2000/svg"
   xmlns:sodipodi="http://sodipodi.sourceforge.net/DTD/sodipodi-0.dtd"
   xmlns:inkscape="http://www.inkscape.org/namespaces/inkscape"
   width="154"
   height="30"
   viewBox="0 0 154 30.000001"
   id="svg4351"
   version="1.1"
   inkscape:version="0.92.3 (unknown)"
   sodipodi:docname="logo.svg">
  <defs
     id="defs4353">
    <style
       id="current-color-scheme"
       type="text/css">
      .ColorScheme-Text {
        color:#4d4d4d;
      }
      </style>
  </defs>
  <sodipodi:namedview
     id="base"
     pagecolor="#ffffff"
     bordercolor="#666666"
     borderopacity="1.0"
     inkscape:pageopacity="0.0"
     inkscape:pageshadow="2"
     inkscape:zoom="5.6568542"
     inkscape:cx="103.71475"
     inkscape:cy="13.815569"
     inkscape:document-units="px"
     inkscape:current-layer="layer1"
     showgrid="true"
     fit-margin-top="0"
     fit-margin-left="0"
     fit-margin-right="0"
     fit-margin-bottom="0"
     units="px"
     inkscape:window-width="2560"
     inkscape:window-height="1407"
     inkscape:window-x="0"
     inkscape:window-y="33"
     inkscape:window-maximized="1"
     inkscape:showpageshadow="false"
     borderlayer="false"
     showborder="false"
     inkscape:pagecheckerboard="true">
    <inkscape:grid
       type="xygrid"
       id="grid4168"
       originx="0"
       originy="1.484375e-06" />
  </sodipodi:namedview>
  <metadata
     id="metadata4356">
    <rdf:RDF>
      <cc:Work
         rdf:about="">
        <dc:format>image/svg+xml</dc:format>
        <dc:type
           rdf:resource="http://purl.org/dc/dcmitype/StillImage" />
        <dc:title />
      </cc:Work>
    </rdf:RDF>
  </metadata>
  <g
     inkscape:label="Capa 1"
     inkscape:groupmode="layer"
     id="layer1"
     transform="translate(335,-416.79077)">
    <g
       id="g861">
      <path
         inkscape:connector-curvature="0"
         id="rect1501"
         d="m -231,417.79077 v 12.68945 c -1.79563,-2.32261 -4.56422,-3.68456 -7.5,-3.68945 -4.66545,0.003 -8.63835,3.39307 -9.375,8 h 2.02734 c 0.71273,-3.49164 3.78402,-5.99962 7.34766,-6 3.5607,0.004 6.6277,2.51124 7.33984,6 H -229 v -17 z m -46.5,9 c -4.66545,0.003 -8.63835,3.39307 -9.375,8 h 2.02734 c 0.71273,-3.49163 3.78403,-5.99961 7.34766,-6 3.5607,0.004 6.62771,2.51124 7.33984,6 h 2.0293 c -0.7363,-4.60474 -4.70591,-7.99426 -9.36914,-8 z m 10.5,0 v 2 c 4.14214,0 7.5,3.35786 7.5,7.5 0,4.14214 -3.35786,7.5 -7.5,7.5 v 2 c 4.18882,0 7.73646,-2.71534 9,-6.47852 1.26354,3.76318 4.81118,6.47852 9,6.47852 v -2 c -4.14214,0 -7.5,-3.35786 -7.5,-7.5 0,-4.14214 3.35786,-7.5 7.5,-7.5 v -2 c -4.18882,0 -7.73646,2.71534 -9,6.47852 -1.26354,-3.76318 -4.81118,-6.47852 -9,-6.47852 z m -26,9 c -0.554,0 -1,0.446 -1,1 0,0.554 0.446,1 1,1 h 17 c 0.554,0 1,-0.446 1,-1 0,-0.554 -0.446,-1 -1,-1 z m 52.98438,0 c -0.54535,0 -0.98438,0.43903 -0.98438,0.98437 v 0.0312 c 0,0.54535 0.43903,0.98438 0.98438,0.98438 h 17.03125 c 0.54534,0 0.98437,-0.43903 0.98437,-0.98438 v -0.0312 c 0,-0.54534 -0.43903,-0.98437 -0.98437,-0.98437 z m -46.98438,3 v 7 h 2 v -7 z m 17,0 v 7 h 2 v -7 z m 22.3457,0 c 1.12628,4.12901 4.87444,6.99511 9.1543,7 4.28348,-4.9e-4 8.03683,-2.8675 9.16406,-7 h -2.10351 c -1.05817,2.99296 -3.88604,4.99555 -7.06055,5 -3.17523,-0.004 -6.00409,-2.00636 -7.0625,-5 z"
         style="opacity:1;vector-effect:none;fill:#fafafa;fill-opacity:1;stroke:none;stroke-width:1;stroke-linecap:butt;stroke-linejoin:miter;stroke-miterlimit:4;stroke-dasharray:none;stroke-dashoffset:0;stroke-opacity:1" />
      <rect
         ry="0.5"
         y="417.79077"
         x="-323"
         height="28"
         width="130"
         id="rect857"
         style="opacity:0.4;fill:none;fill-opacity:1;stroke:none;stroke-width:2.82842708;stroke-linecap:round;stroke-linejoin:round;stroke-miterlimit:4;stroke-dasharray:none;stroke-opacity:1" />
    </g>
  </g>
</svg>
