<?xml version="1.0" encoding="UTF-8" standalone="no"?>
<svg
   width="76"
   height="66"
   version="1.1"
   id="svg72"
   sodipodi:docname="slider.svg"
   inkscape:version="1.2.2 (b0a8486541, 2022-12-01)"
   xmlns:inkscape="http://www.inkscape.org/namespaces/inkscape"
   xmlns:sodipodi="http://sodipodi.sourceforge.net/DTD/sodipodi-0.dtd"
   xmlns="http://www.w3.org/2000/svg"
   xmlns:svg="http://www.w3.org/2000/svg"
   xmlns:rdf="http://www.w3.org/1999/02/22-rdf-syntax-ns#"
   xmlns:cc="http://creativecommons.org/ns#"
   xmlns:dc="http://purl.org/dc/elements/1.1/">
  <metadata
     id="metadata78">
    <rdf:RDF>
      <cc:Work
         rdf:about="">
        <dc:format>image/svg+xml</dc:format>
        <dc:type
           rdf:resource="http://purl.org/dc/dcmitype/StillImage" />
      </cc:Work>
    </rdf:RDF>
  </metadata>
  <defs
     id="defs76" />
  <sodipodi:namedview
     pagecolor="#ffffff"
     bordercolor="#666666"
     borderopacity="1"
     objecttolerance="10"
     gridtolerance="10"
     guidetolerance="10"
     inkscape:pageopacity="0"
     inkscape:pageshadow="2"
     inkscape:window-width="1862"
     inkscape:window-height="1052"
     id="namedview74"
     showgrid="true"
     inkscape:zoom="5.6135925"
     inkscape:cx="37.498269"
     inkscape:cy="12.558803"
     inkscape:window-x="58"
     inkscape:window-y="0"
     inkscape:window-maximized="1"
     inkscape:current-layer="svg72"
     inkscape:showpageshadow="2"
     inkscape:pagecheckerboard="0"
     inkscape:deskcolor="#d1d1d1">
    <inkscape:grid
       type="xygrid"
       id="grid885" />
  </sodipodi:namedview>
  <g
     stroke-width=".91667"
     id="g40">
    <g
       id="horizontal-slider-handle"
       transform="matrix(.75 0 0 .75 -18.75 28)">
      <rect
         x="25"
         y="4"
         width="32"
         height="32"
         opacity="0"
         id="rect2" />
      <circle
         cx="41"
         cy="20"
         r="8"
         fill="#5a7cf5"
         id="circle4"
         style="fill:#5a7cf5;fill-opacity:1" />
    </g>
    <g
       id="horizontal-slider-hover"
       transform="matrix(.75 0 0 .75 6.25 27)">
      <rect
         x="25"
         y="4"
         width="32"
         height="32"
         opacity="0"
         id="rect7" />
      <circle
         cx="41"
         cy="20"
         r="16"
         fill="#5a7cf5"
         opacity=".2"
         id="circle9"
         style="fill:#5a92f5;fill-opacity:1" />
      <circle
         cx="41"
         cy="20"
         r="8"
         fill="#5a7cf5"
         id="circle11"
         style="fill:#5a7cf5;fill-opacity:1" />
    </g>
    <g
       id="horizontal-slider-focus"
       transform="matrix(.75 0 0 .75 31.25 28)">
      <rect
         x="25"
         y="4"
         width="32"
         height="32"
         opacity="0"
         id="rect14" />
      <circle
         cx="41"
         cy="20"
         r="16"
         fill="#5a7cf5"
         opacity=".3"
         id="circle16"
         style="fill:#5a92f5;fill-opacity:1" />
      <circle
         cx="41"
         cy="20"
         r="8"
         fill="#5a7cf5"
         id="circle18"
         style="fill:#5a7cf5;fill-opacity:1" />
    </g>
    <g
       id="vertical-slider-handle"
       transform="matrix(.75 0 0 .75 -18.75 -3)">
      <rect
         x="25"
         y="4"
         width="32"
         height="32"
         opacity="0"
         id="rect21" />
      <circle
         cx="41"
         cy="20"
         r="8"
         fill="#5a7cf5"
         id="circle23"
         style="fill:#5a7cf5;fill-opacity:1" />
    </g>
    <g
       id="vertical-slider-hover"
       transform="matrix(.75 0 0 .75 6.25 -3)">
      <rect
         x="25"
         y="4"
         width="32"
         height="32"
         opacity="0"
         id="rect26" />
      <circle
         cx="41"
         cy="20"
         r="16"
         fill="#5a7cf5"
         opacity=".2"
         id="circle28"
         style="fill:#5a92f5;fill-opacity:1" />
      <circle
         cx="41"
         cy="20"
         r="8"
         fill="#5a7cf5"
         id="circle30"
         style="fill:#5a7cf5;fill-opacity:1" />
    </g>
    <g
       id="vertical-slider-focus"
       transform="matrix(.75 0 0 .75 31.25 -3)">
      <rect
         x="25"
         y="4"
         width="32"
         height="32"
         opacity="0"
         id="rect33"
         inkscape:label="rect33"
         style="display:inline" />
      <circle
         cx="41"
         cy="20"
         r="16"
         fill="#5a7cf5"
         opacity=".3"
         id="circle35"
         style="fill:#5a92f5;fill-opacity:1" />
      <circle
         cx="41"
         cy="20"
         r="8"
         fill="#5a7cf5"
         id="circle37"
         style="fill:#5a7cf5;fill-opacity:1" />
    </g>
  </g>
  <path
     style="opacity:0.3;stroke-width:1"
     inkscape:connector-curvature="0"
     d="m 7,-20 v 1 h 1 v -1 z"
     class="ColorScheme-Text"
     id="groove-top" />
  <path
     style="opacity:0.3;stroke-width:1"
     inkscape:connector-curvature="0"
     d="m 6,-20.019723 c -0.5607333,0 -1,0.44793 -1,1.019723 h 1 z"
     class="ColorScheme-Text"
     id="groove-topleft" />
  <rect
     style="fill:#4e9a06"
     ry="2"
     rx="0"
     height="2"
     width="2"
     y="-24"
     x="-1"
     id="hint-tile-center" />
  <path
     style="opacity:0.3;stroke-width:0.99999994"
     inkscape:connector-curvature="0"
     d="m 10,-19 c 0,-0.516272 -0.439267,-0.920708 -1,-0.920708 V -19 Z"
     class="ColorScheme-Text"
     id="groove-topright" />
  <path
     style="opacity:0.3;stroke-width:1"
     inkscape:connector-curvature="0"
     d="m 7,-15 v -1 h 1 v 1 z"
     class="ColorScheme-Text"
     id="groove-bottom" />
  <path
     style="opacity:0.3;stroke-width:1"
     inkscape:connector-curvature="0"
     d="m 6,-15 c -0.4977652,0 -0.887704,-0.439267 -0.887704,-1 H 6 Z"
     class="ColorScheme-Text"
     id="groove-bottomleft" />
  <path
     style="opacity:0.3;stroke-width:1"
     inkscape:connector-curvature="0"
     d="m 10,-16 c 0,0.560733 -0.4392667,1 -1,1 v -1 z"
     class="ColorScheme-Text"
     id="groove-bottomright" />
  <path
     id="groove-center"
     class="ColorScheme-Text"
     d="m 7,-18 v 1 h 1 v -1 z"
     inkscape:connector-curvature="0"
     style="opacity:0.3;stroke-width:1" />
  <path
     id="groove-left"
     class="ColorScheme-Text"
     d="m 5,-18 v 1 h 1 v -1 z"
     inkscape:connector-curvature="0"
     style="opacity:0.3;stroke-width:1" />
  <path
     id="groove-right"
     class="ColorScheme-Text"
     d="m 9,-18 v 1 h 1 v -1 z"
     inkscape:connector-curvature="0"
     style="opacity:0.3;stroke-width:1" />
  <path
     style="fill:#5a7cf5;stroke-width:1;fill-opacity:1"
     inkscape:connector-curvature="0"
     d="m 25,-20 v 1 h 1 v -1 z"
     class="ColorScheme-ButtonHover"
     id="groove-highlight-top" />
  <path
     style="fill:#5a7cf5;stroke-width:1;fill-opacity:1"
     inkscape:connector-curvature="0"
     d="m 24,-20 c -0.560733,0 -1,0.439266 -1,1 h 1 z"
     class="ColorScheme-ButtonHover"
     id="groove-highlight-topleft" />
  <path
     style="fill:#5a7cf5;stroke-width:1;fill-opacity:1"
     inkscape:connector-curvature="0"
     d="m 28,-19 c 0,-0.560734 -0.439267,-1 -1,-1 v 1 z"
     class="ColorScheme-ButtonHover"
     id="groove-highlight-topright" />
  <path
     style="fill:#5a7cf5;stroke-width:1;fill-opacity:1"
     inkscape:connector-curvature="0"
     d="m 25,-15 v -1 h 1 v 1 z"
     class="ColorScheme-ButtonHover"
     id="groove-highlight-bottom" />
  <path
     style="fill:#5a7cf5;stroke-width:1;fill-opacity:1"
     inkscape:connector-curvature="0"
     d="m 24,-15 c -0.569866,0 -1.016288,-0.439267 -1.016288,-1 H 24 Z"
     class="ColorScheme-ButtonHover"
     id="groove-highlight-bottomleft" />
  <path
     style="fill:#5a7cf5;stroke-width:1;fill-opacity:1"
     inkscape:connector-curvature="0"
     d="m 28.039625,-16 c 0,0.560733 -0.456673,1 -1.039625,1 v -1 z"
     class="ColorScheme-ButtonHover"
     id="groove-highlight-bottomright" />
  <path
     style="fill:#5a7cf5;stroke-width:1;fill-opacity:1"
     id="groove-highlight-center"
     class="ColorScheme-ButtonHover"
     d="m 25,-18 v 1 h 1 v -1 z"
     inkscape:connector-curvature="0" />
  <path
     style="fill:#5a7cf5;stroke-width:1;fill-opacity:1"
     id="groove-highlight-left"
     class="ColorScheme-ButtonHover"
     d="m 23,-18 v 1 h 1 v -1 z"
     inkscape:connector-curvature="0" />
  <path
     style="fill:#5a7cf5;stroke-width:1;fill-opacity:1"
     id="groove-highlight-right"
     class="ColorScheme-ButtonHover"
     d="m 27,-18 v 1 h 1 v -1 z"
     inkscape:connector-curvature="0" />
  <circle
     id="hint-handle-size"
     cx="50.955"
     cy="-15.313"
     r="12"
     fill="#ff2a2a" />
</svg>
