<?xml version="1.0" encoding="UTF-8" standalone="no"?>
<svg
   xmlns:dc="http://purl.org/dc/elements/1.1/"
   xmlns:cc="http://creativecommons.org/ns#"
   xmlns:rdf="http://www.w3.org/1999/02/22-rdf-syntax-ns#"
   xmlns:svg="http://www.w3.org/2000/svg"
   xmlns="http://www.w3.org/2000/svg"
   xmlns:sodipodi="http://sodipodi.sourceforge.net/DTD/sodipodi-0.dtd"
   xmlns:inkscape="http://www.inkscape.org/namespaces/inkscape"
   version="1.1"
   id="svg2"
   viewBox="0 0 32 32"
   sodipodi:docname="amarok.svg"
   width="32"
   height="32"
   inkscape:version="0.92.4 5da689c313, 2019-01-14">
  <metadata
     id="metadata13">
    <rdf:RDF>
      <cc:Work
         rdf:about="">
        <dc:format>image/svg+xml</dc:format>
        <dc:type
           rdf:resource="http://purl.org/dc/dcmitype/StillImage" />
        <dc:title></dc:title>
      </cc:Work>
    </rdf:RDF>
  </metadata>
  <sodipodi:namedview
     pagecolor="#ffffff"
     bordercolor="#666666"
     borderopacity="1"
     objecttolerance="10"
     gridtolerance="10"
     guidetolerance="10"
     inkscape:pageopacity="0"
     inkscape:pageshadow="2"
     inkscape:window-width="1920"
     inkscape:window-height="1007"
     id="namedview11"
     showgrid="false"
     inkscape:zoom="8.8518518"
     inkscape:cx="25.338882"
     inkscape:cy="15.299864"
     inkscape:window-x="0"
     inkscape:window-y="0"
     inkscape:window-maximized="1"
     inkscape:current-layer="svg2" />
  <defs
     id="defs3051">
    <style
       id="current-color-scheme"
       type="text/css">.ColorScheme-Text{color:#fbfbfb}</style>
  </defs>
  <g
     id="22-22-amarok"
     transform="translate(-22.029289)">
    <path
       id="path7"
       class="ColorScheme-Text"
       d="m 11,13 a 8,8 0 1 0 7.166,4.44 C 18.16,17.428 18.142,17.411 18.136,17.4 l 0.007,-0.002 c 0.185,-0.218 0.28,-0.468 0.28,-0.71 a 1.27,1.27 0 0 0 -0.128,-0.493 l 0.006,0.004 c 0,0 -10e-4,-0.124 -0.076,-0.299 a 1.488,1.488 0 0 0 -0.174,-0.3 c 0,0 -0.238,0.037 -0.375,0.062 -0.13,0.024 -0.473,0.214 -0.514,0.236 C 15.45,14.221 13.751,12.958 11,13 Z m 0.2,0.4 a 7.4,7.4 0 0 1 5.605,2.582 c -0.772,0.191 -1.987,0.634 -2.412,0.74 -0.495,0.124 -0.726,0.236 -1.52,0.16 -0.905,-0.085 -1.31,-0.092 -1.549,-0.085 -0.356,-0.032 -0.537,-0.11 -0.537,-0.11 l 0.031,0.352 c -0.237,0.18 -0.713,0.443 -1.693,0.709 -0.636,0.07 -1.166,-0.124 -1.484,0.053 -0.319,0.177 -1.328,0.618 -1.84,0.742 C 5.288,18.667 4.909,18.899 4.6,19 c -0.489,0.16 0.967,2.494 1.6,2.8 l -0.401,0.417 c -0.44,0.3 -0.787,0.32 -0.787,0.32 l 0.023,0.24 c -0.21,0.112 -0.406,0.188 -0.588,0.252 A 7.5,7.5 0 0 1 4,20.5 7.5,7.5 0 0 1 5.104,16.605 7.4,7.4 0 0 1 11.199,13.4 Z m 6.65,4.166 a 7.4,7.4 0 0 1 0.75,3.235 7.4,7.4 0 0 1 -3.325,6.172 7.5,7.5 0 0 1 -2.066,0.824 c 0.03,-0.235 0.061,-0.475 0.084,-0.713 0.174,-0.255 0.406,-0.26 0.406,-0.26 0,0 -0.299,-0.85 -0.27,-1.873 0.038,-0.243 0.1,-0.472 0.18,-0.69 h 0.303 c 0,0 -0.038,-0.417 0.133,-0.841 0.562,-0.854 1.329,-1.425 1.656,-1.676 0.309,-0.237 1.733,-0.601 2.033,-0.672 0.3,-0.07 0.584,-0.548 0.602,-0.69 0.018,-0.14 -0.09,-0.405 -0.09,-0.405 L 17.82,19.881 c 0.106,0.075 0.046,0.15 -0.132,0.182 -0.057,0.01 -0.137,0.014 -0.225,0.015 0,0 -0.093,-0.363 -0.193,-0.394 -0.087,-0.027 -0.313,0.257 -0.31,0.355 A 1.553,1.553 0 0 1 16.7,19.975 c -0.276,-0.1 -0.575,-0.163 -0.575,-0.163 0,0 0.3,-0.675 0.725,-1.337 0.27,-0.423 0.708,-0.73 1,-0.909 z m -5.485,0.157 c 0.486,-0.004 0.848,0.14 0.848,0.14 0,0 0.047,0.456 -1.318,1.272 -0.42,0.25 -1.52,0.416 -1.52,0.416 0,0 -0.024,-0.576 0.395,-1.074 a 2.04,2.04 0 0 1 1.595,-0.754 z M 6.094,18.99 A 0.376,0.376 0 0 1 6.199,19 c 0.2,0.063 0.638,0.858 0.4,1.2 L 7,20.6 c 0.8,-0.8 1.994,-0.243 2.2,0.3 0.284,0.754 0.225,0.664 -0.956,0.836 -0.5,0.073 -1.52,-0.108 -1.924,-0.418 -0.403,-0.31 -1.439,-1.95 -1.351,-2.037 0.076,-0.076 0.809,-0.282 1.125,-0.29 z m 11.508,0.6 c -0.068,0.024 -0.13,0.308 -0.13,0.308 0,0 0.053,0.028 0.323,-0.007 0.073,-0.018 -0.126,-0.325 -0.193,-0.301 z"
       inkscape:connector-curvature="0"
       style="color:#fbfbfb;fill:#fbfbfb;fill-opacity:1;stroke:none" />
    <path
       id="path9"
       d="M 0,10 V 32 H 22 V 10 Z"
       inkscape:connector-curvature="0"
       style="opacity:1;fill:none" />
  </g>
  <g
     id="amarok"
     transform="translate(-22.029289)">
    <path
       id="path12"
       class="ColorScheme-Text"
       d="m 38,4.002 c -6.627,0 -12,5.37 -12,11.998 0,6.627 5.373,12 12,12 6.627,0 12,-5.373 12,-12 0,-1.918 -0.45,-3.732 -1.251,-5.34 -0.01,-0.017 -0.035,-0.042 -0.043,-0.058 l 0.009,-0.004 c 0.277,-0.327 0.421,-0.701 0.421,-1.065 0,-0.263 -0.103,-0.535 -0.194,-0.74 l 0.009,0.006 c 0,0 -10e-4,-0.185 -0.114,-0.447 a 2.203,2.203 0 0 0 -0.261,-0.45 c 0,0 -0.357,0.055 -0.563,0.093 -0.194,0.035 -0.709,0.32 -0.77,0.353 C 44.674,5.832 42.126,3.938 38,4.002 Z m 0.3,0.6 a 11.101,11.101 0 0 1 8.408,3.873 C 45.55,8.761 43.728,9.425 43.09,9.585 42.347,9.771 42,9.938 40.809,9.825 39.452,9.696 38.844,9.687 38.487,9.697 37.952,9.65 37.681,9.533 37.681,9.533 l 0.047,0.526 c -0.356,0.271 -1.07,0.665 -2.54,1.064 -0.955,0.106 -1.75,-0.186 -2.227,0.08 -0.477,0.264 -1.991,0.926 -2.76,1.112 -0.77,0.185 -1.338,0.536 -1.801,0.687 -0.733,0.238 1.451,3.74 2.4,4.2 l -0.601,0.624 c -0.66,0.45 -1.181,0.48 -1.181,0.48 l 0.034,0.36 A 6.244,6.244 0 0 1 28.171,19.045 11.256,11.256 0 0 1 27.5,15.25 11.248,11.248 0 0 1 29.155,9.408 11.1,11.1 0 0 1 38.299,4.602 Z m 9.975,6.249 a 11.1,11.1 0 0 1 1.125,4.851 11.097,11.097 0 0 1 -4.987,9.256 c -0.966,0.564 -2.01,0.982 -3.1,1.237 0.047,-0.351 0.092,-0.711 0.127,-1.069 0.26,-0.383 0.61,-0.39 0.61,-0.39 0,0 -0.45,-1.273 -0.405,-2.808 0.056,-0.364 0.15,-0.709 0.27,-1.035 h 0.453 c 0,0 -0.057,-0.626 0.199,-1.262 0.843,-1.281 1.993,-2.136 2.484,-2.513 0.463,-0.356 2.6,-0.902 3.05,-1.008 0.451,-0.106 0.877,-0.823 0.904,-1.035 0.026,-0.212 -0.135,-0.61 -0.135,-0.61 l -0.639,-0.144 c 0.16,0.113 0.067,0.226 -0.2,0.273 a 2.193,2.193 0 0 1 -0.337,0.023 c 0,0 -0.14,-0.545 -0.29,-0.591 -0.13,-0.04 -0.467,0.387 -0.462,0.533 a 2.332,2.332 0 0 1 -0.393,-0.097 7.185,7.185 0 0 0 -0.861,-0.243 c 0,0 0.45,-1.013 1.087,-2.007 0.406,-0.633 1.062,-1.094 1.5,-1.361 z m -8.227,0.234 a 3.679,3.679 0 0 1 1.271,0.211 c 0,0 0.07,0.683 -1.978,1.908 -0.628,0.375 -2.278,0.623 -2.278,0.623 0,0 -0.036,-0.863 0.59,-1.611 0.75,-0.894 1.666,-1.124 2.395,-1.13 z m -9.407,1.9 a 0.557,0.557 0 0 1 0.158,0.017 c 0.3,0.093 0.956,1.285 0.6,1.797 l 0.601,0.6 c 1.2,-1.2 2.991,-0.362 3.3,0.453 0.426,1.13 0.337,0.995 -1.434,1.253 -0.75,0.11 -2.28,-0.163 -2.885,-0.627 -0.604,-0.465 -2.16,-2.923 -2.028,-3.054 0.115,-0.115 1.214,-0.426 1.688,-0.439 z m 17.26,0.9 c -0.1,0.036 -0.192,0.463 -0.192,0.463 0,0 0.078,0.041 0.483,-0.012 0.109,-0.027 -0.19,-0.487 -0.29,-0.451 z"
       inkscape:connector-curvature="0"
       style="color:#fbfbfb;fill:#fbfbfb;fill-opacity:1;stroke:none" />
    <path
       id="path14"
       d="M 22,0 V 32 H 54 V 0 Z"
       inkscape:connector-curvature="0"
       style="opacity:1;fill:none" />
  </g>
</svg>
