<?xml version="1.0" encoding="UTF-8" standalone="no"?>
<svg
   xmlns:dc="http://purl.org/dc/elements/1.1/"
   xmlns:cc="http://creativecommons.org/ns#"
   xmlns:rdf="http://www.w3.org/1999/02/22-rdf-syntax-ns#"
   xmlns:svg="http://www.w3.org/2000/svg"
   xmlns="http://www.w3.org/2000/svg"
   xmlns:sodipodi="http://sodipodi.sourceforge.net/DTD/sodipodi-0.dtd"
   xmlns:inkscape="http://www.inkscape.org/namespaces/inkscape"
   id="svg19"
   viewBox="0 0 32 32"
   version="1.1"
   sodipodi:docname="kate.svg"
   inkscape:version="1.0.1 (3bc2e813f5, 2020-09-07, custom)">
  <sodipodi:namedview
     pagecolor="#c8c8c8"
     bordercolor="#666666"
     borderopacity="1"
     objecttolerance="10"
     gridtolerance="10"
     guidetolerance="10"
     inkscape:pageopacity="0"
     inkscape:pageshadow="2"
     inkscape:window-width="1920"
     inkscape:window-height="935"
     id="namedview13"
     showgrid="true"
     inkscape:zoom="6.0546875"
     inkscape:cx="12.783813"
     inkscape:cy="1.2263564"
     inkscape:window-x="0"
     inkscape:window-y="38"
     inkscape:window-maximized="1"
     inkscape:current-layer="svg19"
     inkscape:document-rotation="0">
    <inkscape:grid
       type="xygrid"
       id="grid838" />
  </sodipodi:namedview>
  <metadata
     id="metadata21">
    <rdf:RDF>
      <cc:Work
         rdf:about="">
        <dc:format>image/svg+xml</dc:format>
        <dc:type
           rdf:resource="http://purl.org/dc/dcmitype/StillImage" />
        <dc:title></dc:title>
      </cc:Work>
    </rdf:RDF>
  </metadata>
  <defs
     id="defs5">
    <style
       type="text/css"
       id="current-color-scheme"> .ColorScheme-Text { color:#363636; } </style>
  </defs>
  <g
     id="22-22-kate">
    <path
       id="rect874"
       style="fill:#fbfbfb;fill-opacity:1;stroke-width:0.5;stroke-linecap:round;stroke-linejoin:round;paint-order:stroke fill markers"
       d="M 59.212891 8 C 58.065824 8.038667 56.771568 8.4003014 55.513672 9.328125 C 54.207742 10.291395 53.633446 10.55477 53 10.875 C 53.56439 10.91885 56.9416 10.429454 57.539062 12.449219 C 57.566882 12.440519 57.685308 12.404478 57.724609 12.392578 C 55.295542 13.080954 53.939904 14.665065 54.966797 16.863281 C 55.997358 19.069501 57.777974 19.121679 59.976562 20.619141 C 61.692971 21.788191 62.113199 22.383545 63.220703 24.003906 C 62.99039 21.76496 61.927064 18.878829 61.429688 17.607422 C 63.349938 18.776917 64.322724 19.038671 67 19.324219 C 63.525785 16.806039 62.86754 16.313899 60.878906 14.587891 C 59.544766 14.656371 59.691016 14.643501 58.904297 14.689453 C 59.94001 16.177667 60.348699 18.36447 58.455078 18.765625 C 56.6826 19.141098 54.973049 17.582712 55.458984 15.914062 C 55.986632 14.102149 58.26488 14.451081 60.654297 14.136719 C 63.043627 13.822412 65.225972 11.436036 66.539062 9.6699219 C 64.664141 10.321307 62.259489 11.064661 59.609375 11.837891 C 59.072627 10.770753 58.384454 8.7541435 62.025391 8.6132812 C 61.358478 8.2448162 60.359957 7.9613251 59.212891 8 z " />
    <path
       id="path7"
       fill="none"
       d="M 49,5 H 71 V 27 H 49 Z"
       style="color:#363636" />
  </g>
  <g
     id="kate">
    <rect
       id="rect12"
       fill="none"
       height="32"
       width="32"
       y="-1e-06"
       x="-2.8954e-08"
       style="color:#363636" />
    <path
       style="color:#363636;font-style:normal;font-variant:normal;font-weight:normal;font-stretch:normal;font-size:medium;line-height:normal;font-family:sans-serif;font-variant-ligatures:normal;font-variant-position:normal;font-variant-caps:normal;font-variant-numeric:normal;font-variant-alternates:normal;font-variant-east-asian:normal;font-feature-settings:normal;font-variation-settings:normal;text-indent:0;text-align:start;text-decoration:none;text-decoration-line:none;text-decoration-style:solid;text-decoration-color:#000000;letter-spacing:normal;word-spacing:normal;text-transform:none;writing-mode:lr-tb;direction:ltr;text-orientation:mixed;dominant-baseline:auto;baseline-shift:baseline;text-anchor:start;white-space:normal;shape-padding:0;shape-margin:0;inline-size:0;clip-rule:nonzero;display:inline;overflow:visible;visibility:visible;isolation:auto;mix-blend-mode:normal;color-interpolation:sRGB;color-interpolation-filters:linearRGB;solid-color:#000000;solid-opacity:1;vector-effect:none;fill:#fbfbfb;fill-opacity:1;fill-rule:nonzero;stroke:none;stroke-width:1.52279;stroke-linecap:butt;stroke-linejoin:miter;stroke-miterlimit:4;stroke-dasharray:none;stroke-dashoffset:0;stroke-opacity:1;color-rendering:auto;image-rendering:auto;shape-rendering:auto;text-rendering:auto;enable-background:accumulate;stop-color:#000000"
       d="M 15.053893,3.0000301 C 13.023995,3.0652663 10.733212,3.67694 8.5071857,5.2423433 6.1961553,6.8675515 5.1816699,7.311513 4.0606973,7.8517988 5.0594648,7.9257823 11.035363,7.0978143 12.09266,10.505516 c 0.04925,-0.0147 0.258474,-0.07281 0.328023,-0.09288 -4.2985814,1.161412 -6.6964704,3.831963 -4.8792369,7.540744 1.8237255,3.722286 4.9749049,3.811258 8.8656199,6.337742 3.037431,1.972395 3.780521,2.975848 5.740407,5.709685 -0.407572,-3.777499 -2.290629,-8.646372 -3.170808,-10.791461 3.398154,1.973145 5.120957,2.415157 9.858778,2.896928 -6.148118,-4.248618 -7.314683,-5.079827 -10.833853,-7.991908 -2.36095,0.11554 -2.102075,0.09496 -3.494287,0.172483 1.832843,2.51088 2.558314,6.200608 -0.792719,6.877427 -3.136652,0.633489 -6.1629529,-1.996701 -5.3030202,-4.812009 0.933747,-3.057019 4.9653222,-2.468271 9.1937382,-2.998654 4.228259,-0.530293 8.091,-4.5566447 10.414704,-7.5363927 C 24.702063,6.9162087 20.44552,8.1702537 15.755765,9.4748317 14.805914,7.6743792 13.590478,4.2725747 20.033637,4.0349149 18.85344,3.4132488 17.083994,2.9347486 15.054095,3 Z"
       id="path890" />
  </g>
</svg>
