<?xml version="1.0" encoding="UTF-8" standalone="no"?>
<svg
   xmlns:dc="http://purl.org/dc/elements/1.1/"
   xmlns:cc="http://creativecommons.org/ns#"
   xmlns:rdf="http://www.w3.org/1999/02/22-rdf-syntax-ns#"
   xmlns:svg="http://www.w3.org/2000/svg"
   xmlns="http://www.w3.org/2000/svg"
   xmlns:sodipodi="http://sodipodi.sourceforge.net/DTD/sodipodi-0.dtd"
   xmlns:inkscape="http://www.inkscape.org/namespaces/inkscape"
   inkscape:version="1.0 (4035a4fb49, 2020-05-01)"
   sodipodi:docname="media.svg"
   id="svg67"
   viewBox="0 0 22 22"
   version="1.1"
   height="22"
   width="22">
  <metadata
     id="metadata71">
    <rdf:RDF>
      <cc:Work
         rdf:about="">
        <dc:format>image/svg+xml</dc:format>
        <dc:type
           rdf:resource="http://purl.org/dc/dcmitype/StillImage" />
        <dc:title />
      </cc:Work>
    </rdf:RDF>
  </metadata>
  <sodipodi:namedview
     inkscape:bbox-nodes="true"
     inkscape:snap-bbox-edge-midpoints="true"
     inkscape:snap-bbox="true"
     inkscape:document-rotation="0"
     inkscape:current-layer="svg67"
     inkscape:window-maximized="1"
     inkscape:window-y="0"
     inkscape:window-x="0"
     inkscape:cy="58.829984"
     inkscape:cx="35.66824"
     inkscape:zoom="7.5853273"
     showgrid="true"
     id="namedview69"
     inkscape:window-height="1001"
     inkscape:window-width="1920"
     inkscape:pageshadow="2"
     inkscape:pageopacity="0"
     guidetolerance="10"
     gridtolerance="10"
     objecttolerance="10"
     borderopacity="1"
     bordercolor="#666666"
     pagecolor="#c8c8c8">
    <inkscape:grid
       id="grid878"
       type="xygrid" />
  </sodipodi:namedview>
  <defs
     id="defs3">
    <style
       type="text/css"
       id="current-color-scheme">.ColorScheme-Text { color:#dedede; } .ColorScheme-Highlight { color:#5294e2; } .ColorScheme-ButtonBackground { color:#dedede; }</style>
  </defs>
  <g
     id="media-record"
     transform="translate(22,-1030.4)"
     style="fill:#000000">
    <rect
       y="1030.4"
       width="22"
       height="22"
       opacity="0.00100002"
       id="rect5"
       x="0" />
    <path
       class="ColorScheme-Highlight"
       d="m 11,1035.4 c -3.311,0 -6,2.6888 -6,6 0,3.311 2.689,6 6,6 3.311,0 6,-2.689 6,-6 0,-3.3112 -2.689,-6 -6,-6 z"
       enable-background="new"
       fill="#f96060"
       id="path7"
       style="fill:#ff3232;fill-opacity:1" />
  </g>
  <g
     id="media-playback-stop"
     transform="translate(44,-1030.4)"
     style="fill:#000000">
    <rect
       y="1030.4"
       width="22"
       height="22"
       opacity="0.00100002"
       id="rect10"
       x="0" />
    <path
       class="ColorScheme-Text"
       d="m 5,1035.4 v 12 h 12 v -12 z"
       enable-background="new"
       fill="#dedede"
       id="path12"
       style="fill:#fbfbfb;fill-opacity:1" />
  </g>
  <g
     id="media-skip-forward"
     transform="translate(66,-1030.4)"
     style="fill:#000000">
    <rect
       y="1030.4"
       width="22"
       height="22"
       opacity="0.00100002"
       id="rect15"
       x="0" />
    <path
       class="ColorScheme-Text"
       d="m 19,1037.4 v 8 h -2 v -8 z m -2,4 -7,4 v -8 z m -7,0 -7,4 v -8 z"
       enable-background="new"
       fill="#dedede"
       id="path17"
       style="fill:#fbfbfb;fill-opacity:1" />
  </g>
  <g
     id="media-skip-backward"
     transform="matrix(-1,0,0,1,110,-1030.4)"
     style="fill:#000000">
    <rect
       y="1030.4"
       width="22"
       height="22"
       opacity="0.00100002"
       id="rect20"
       x="0" />
    <path
       class="ColorScheme-Text"
       d="m 19,1037.4 v 8 h -2 v -8 z m -2,4 -7,4 v -8 z m -7,0 -7,4 v -8 z"
       enable-background="new"
       fill="#dedede"
       id="path22"
       style="fill:#fbfbfb;fill-opacity:1" />
  </g>
  <g
     id="media-seek-forward"
     transform="translate(110,-1030.4)"
     style="fill:#000000">
    <rect
       y="1030.4"
       width="22"
       height="22"
       opacity="0.00100002"
       id="rect25"
       x="0" />
    <path
       class="ColorScheme-Text"
       d="m 11,1037.4 7,4 -7,4 z m 0,4 -7,4 v -8 z"
       enable-background="new"
       fill="#dedede"
       id="path27"
       style="fill:#fbfbfb;fill-opacity:1" />
  </g>
  <g
     id="media-seek-backward"
     transform="matrix(-1,0,0,1,154,-1030.4)"
     style="fill:#000000">
    <rect
       y="1030.4"
       width="22"
       height="22"
       opacity="0.00100002"
       id="rect30"
       x="0" />
    <path
       class="ColorScheme-Text"
       d="m 11,1037.4 7,4 -7,4 z m 0,4 -7,4 v -8 z"
       enable-background="new"
       fill="#dedede"
       id="path32"
       style="fill:#fbfbfb;fill-opacity:1" />
  </g>
  <g
     id="media-eject"
     transform="translate(-44,-1030.4)"
     style="fill:#000000">
    <rect
       y="1030.4"
       width="22"
       height="22"
       opacity="0.00100002"
       id="rect35"
       x="0" />
    <path
       class="ColorScheme-Text"
       d="m 11,1036.4 -5,5 v 1 h 10 v -1 z m -5,8 v 2 h 10 v -2 z"
       color="#dedede"
       display="block"
       fill="#dedede"
       id="path37"
       style="fill:#fbfbfb;fill-opacity:1" />
  </g>
  <g
     id="media-playback-pause"
     transform="translate(-22,-1030.4)"
     style="fill:#000000">
    <rect
       y="1030.4"
       width="22"
       height="22"
       opacity="0.00100002"
       id="rect40"
       x="0" />
    <path
       class="ColorScheme-Text"
       d="m 5,1035.4 v 12 h 4 v -12 z m 8,0 v 12 h 4 v -12 z"
       enable-background="new"
       fill="#dedede"
       id="path42"
       style="fill:#fbfbfb;fill-opacity:1" />
  </g>
  <g
     id="media-playback-start"
     transform="translate(0,-1030.4)"
     style="fill:#000000">
    <rect
       y="1030.4"
       width="22"
       height="22"
       opacity="0.00100002"
       id="rect45"
       x="0" />
    <path
       class="ColorScheme-Text"
       d="m 6,1035.4 v 12 l 11,-6 -9.8992,-5.3996 z"
       enable-background="new"
       fill="#dedede"
       id="path47"
       style="fill:#fbfbfb;fill-opacity:1" />
  </g>
  <g
     transform="translate(0.1407986,4.5997507)"
     id="media-playback-stopped">
    <rect
       style="color:#dedede;stroke-width:1.5"
       x="48.858952"
       y="28.4"
       width="22.0005"
       height="22.0005"
       fill="#ed1515"
       fill-opacity="0.00392163"
       opacity="0.01"
       id="rect60" />
    <g
       id="g960"
       transform="translate(-1.1407986,-18.599751)">
      <circle
         r="8.4375"
         cy="58"
         cx="61"
         id="path904"
         style="opacity:1;fill:none;stroke:#fbfbfb;stroke-width:1.125;stroke-linecap:round;stroke-miterlimit:4;stroke-dasharray:none;stroke-opacity:1" />
      <path
         sodipodi:nodetypes="ccccc"
         d="m 58,55 v 6 h 6 v -6 z"
         style="opacity:1;fill:#fbfbfb;fill-opacity:1;stroke:none;stroke-width:1;stroke-linecap:round;stroke-miterlimit:4;stroke-dasharray:none;stroke-opacity:1"
         id="rect914" />
    </g>
  </g>
  <g
     transform="translate(0.1412506,4.5997507)"
     id="media-playback-playing">
    <rect
       style="color:#dedede;stroke-width:1.5"
       x="24.8585"
       y="28.4"
       width="22.0005"
       height="22.0005"
       fill="#ed1515"
       fill-opacity="0.00392163"
       opacity="0.01"
       id="rect55" />
    <g
       id="g956"
       transform="translate(-1.1412506,-18.599751)">
      <circle
         style="opacity:1;fill:none;stroke:#fbfbfb;stroke-width:1.125;stroke-linecap:round;stroke-miterlimit:4;stroke-dasharray:none;stroke-opacity:1"
         id="circle922"
         cx="37"
         cy="58"
         r="8.4375" />
      <path
         sodipodi:nodetypes="cccc"
         d="m 35,55 v 6 l 4,-3 z"
         style="opacity:1;fill:#fbfbfb;fill-opacity:1;stroke:none;stroke-width:1;stroke-linecap:round;stroke-miterlimit:4;stroke-dasharray:none;stroke-opacity:1"
         id="rect932" />
    </g>
  </g>
  <g
     transform="translate(0.14090031,4.5997507)"
     id="media-playback-paused">
    <rect
       style="color:#dedede;stroke-width:1.5"
       x="0.85884982"
       y="28.4"
       width="22.0005"
       height="22.0005"
       fill="#ed1515"
       fill-opacity="0.00392163"
       opacity="0.01"
       id="rect50" />
    <g
       id="g952"
       transform="translate(-0.14090031,-18.599751)">
      <circle
         r="8.4375"
         cy="58"
         cx="12"
         id="circle936"
         style="opacity:1;fill:none;stroke:#fbfbfb;stroke-width:1.125;stroke-linecap:round;stroke-miterlimit:4;stroke-dasharray:none;stroke-opacity:1" />
      <path
         sodipodi:nodetypes="cccccccccc"
         d="m 9,55 v 6 h 2 v -6 z m 4,0 v 6 h 2 v -6 z"
         style="opacity:1;fill:#fbfbfb;fill-opacity:1;stroke:none;stroke-width:1;stroke-linecap:round;stroke-miterlimit:4;stroke-dasharray:none;stroke-opacity:1"
         id="rect946" />
    </g>
  </g>
</svg>
