<?xml version="1.0" encoding="UTF-8" standalone="no"?>
<svg
   xmlns:dc="http://purl.org/dc/elements/1.1/"
   xmlns:cc="http://creativecommons.org/ns#"
   xmlns:rdf="http://www.w3.org/1999/02/22-rdf-syntax-ns#"
   xmlns:svg="http://www.w3.org/2000/svg"
   xmlns="http://www.w3.org/2000/svg"
   xmlns:sodipodi="http://sodipodi.sourceforge.net/DTD/sodipodi-0.dtd"
   xmlns:inkscape="http://www.inkscape.org/namespaces/inkscape"
   id="svg"
   inkscape:version="0.92.4 5da689c313, 2019-01-14"
   sodipodi:docname="phone.svg"
   version="1.1"
   viewBox="0 0 22 22">
  <metadata
     id="metadata46">
    <rdf:RDF>
      <cc:Work
         rdf:about="">
        <dc:format>image/svg+xml</dc:format>
        <dc:type
           rdf:resource="http://purl.org/dc/dcmitype/StillImage" />
        <dc:title></dc:title>
      </cc:Work>
    </rdf:RDF>
  </metadata>
  <sodipodi:namedview
     id="namedview26"
     bordercolor="#666666"
     borderopacity="1"
     gridtolerance="10"
     guidetolerance="10"
     inkscape:current-layer="svg"
     inkscape:cx="17.60523"
     inkscape:cy="35.545119"
     inkscape:pageopacity="0"
     inkscape:pageshadow="2"
     inkscape:window-height="1007"
     inkscape:window-maximized="1"
     inkscape:window-width="1920"
     inkscape:window-x="0"
     inkscape:window-y="0"
     inkscape:zoom="5.2693538"
     objecttolerance="10"
     pagecolor="#c8c8c8"
     showgrid="true">
    <inkscape:grid
       id="grid835"
       type="xygrid" />
  </sodipodi:namedview>
  <defs
     id="defs81">
    <style
       id="current-color-scheme"
       type="text/css">.ColorScheme-Text { color:#dedede; } .ColorScheme-Highlight { color:#5294e2; } .ColorScheme-ButtonBackground { color:#dedede; }</style>
    <style
       id="current-color-scheme-9"
       type="text/css">.ColorScheme-Text { color:#dedede; } .ColorScheme-Highlight { color:#5294e2; } .ColorScheme-ButtonBackground { color:#dedede; }</style>
    <style
       id="current-color-scheme-3"
       type="text/css">
      .ColorScheme-Text {
        color:#31363b;
      }
      .ColorScheme-Background {
        color:#eff0f1;
      }
      .ColorScheme-Highlight {
        color:#3daee9;
      }
      .ColorScheme-ViewText {
        color:#31363b;
      }
      .ColorScheme-ViewBackground {
        color:#fcfcfc;
      }
      .ColorScheme-ViewHover {
        color:#93cee9;
      }
      .ColorScheme-ViewFocus{
        color:#3daee9;
      }
      .ColorScheme-ButtonText {
        color:#31363b;
      }
      .ColorScheme-ButtonBackground {
        color:#eff0f1;
      }
      .ColorScheme-ButtonHover {
        color:#93cee9;
      }
      .ColorScheme-ButtonFocus{
        color:#3daee9;
      }
      </style>
  </defs>
  <g
     id="22-22-phone">
    <rect
       id="rect836"
       x="6"
       y="2"
       width="10"
       height="18"
       rx="1"
       ry="1"
       fill="#dedede"
       opacity=".25"
       style="fill:#fbfbfb;fill-opacity:1" />
    <path
       id="path15"
       d="m0 0h22v22h-22z"
       opacity="0"
       inkscape:connector-curvature="0" />
    <path
       id="rect834"
       d="m7 1c-1.108 0-2 0.892-2 2v16c0 1.108 0.892 2 2 2h8c1.108 0 2-0.892 2-2v-16c0-1.108-0.892-2-2-2h-6zm0 1h1c0 0.554 0.446 1 1 1h4c0.554 0 1-0.446 1-1h1c0.554 0 1 0.446 1 1v16c0 0.554-0.446 1-1 1h-8c-0.554 0-1-0.446-1-1v-16c0-0.554 0.446-1 1-1z"
       fill="#dedede"
       inkscape:connector-curvature="0"
       style="fill:#fbfbfb;fill-opacity:1" />
    <path
       id="rect844"
       d="m8.5 18h5c0.277 0 0.5 0.223 0.5 0.5s-0.223 0.5-0.5 0.5h-5c-0.277 0-0.5-0.223-0.5-0.5s0.223-0.5 0.5-0.5z"
       fill="#dedede"
       opacity=".5"
       inkscape:connector-curvature="0"
       style="fill:#fbfbfb;fill-opacity:1" />
  </g>
  <g
     id="16-16-phone">
    <path
       id="rect872"
       d="m5 27c-1.108 0-2 0.892-2 2v10c0 1.108 0.892 2 2 2h6c1.108 0 2-0.892 2-2v-10c0-1.108-0.892-2-2-2zm0 1h6c0.554 0 1 0.446 1 1v10c0 0.554-0.446 1-1 1h-6c-0.554 0-1-0.446-1-1v-10c0-0.554 0.446-1 1-1z"
       fill="#dedede"
       inkscape:connector-curvature="0"
       style="fill:#fbfbfb;fill-opacity:1" />
    <rect
       id="rect874"
       x="4"
       y="28"
       width="8"
       height="12"
       rx="1"
       ry="1"
       fill="#dedede"
       opacity=".25"
       style="fill:#fbfbfb;fill-opacity:1" />
    <rect
       id="rect10"
       y="26"
       width="16"
       height="16"
       rx="0"
       ry="0"
       opacity="0" />
    <rect
       id="rect882"
       x="6"
       y="27"
       width="4"
       height="2"
       rx="1"
       ry="1"
       fill="#dedede"
       style="fill:#fbfbfb;fill-opacity:1" />
    <path
       id="rect884"
       d="m6.6375 38h2.7251c0.35315 0 0.63746 0.223 0.63746 0.5s-0.28431 0.5-0.63746 0.5h-2.7251c-0.35315 0-0.63746-0.223-0.63746-0.5s0.28431-0.5 0.63746-0.5z"
       fill="#dedede"
       opacity=".5"
       inkscape:connector-curvature="0"
       style="fill:#fbfbfb;fill-opacity:1" />
  </g>
  <g
     id="phone">
    <path
       id="rect894"
       d="m10-31c-1.108 0-2 0.892-2 2v22c0 1.108 0.892 2 2 2h12c1.108 0 2-0.892 2-2v-22c0-1.108-0.892-2-2-2zm0 1h12c0.554 0 1 0.446 1 1v22c0 0.554-0.446 1-1 1h-12c-0.554 0-1-0.446-1-1v-22c0-0.554 0.446-1 1-1z"
       fill="#dedede"
       inkscape:connector-curvature="0"
       style="fill:#fbfbfb;fill-opacity:1" />
    <rect
       id="rect896"
       x="9"
       y="-30"
       width="14"
       height="24"
       rx="0"
       ry="1"
       fill="#dedede"
       opacity=".25"
       style="fill:#fbfbfb;fill-opacity:1" />
    <rect
       id="rect5"
       y="-34"
       width="32"
       height="32"
       rx="0"
       ry="0"
       opacity="0" />
    <rect
       id="rect903"
       x="13"
       y="-31"
       width="6"
       height="2"
       rx="1"
       ry="1"
       fill="#dedede"
       style="fill:#fbfbfb;fill-opacity:1" />
    <rect
       id="rect905"
       x="12"
       y="-8"
       width="8"
       height="1"
       rx=".537"
       ry="1"
       fill="#dedede"
       opacity=".5"
       style="fill:#fbfbfb;fill-opacity:1" />
  </g>
  <g
     id="phone-battery">
    <path
       id="path897"
       d="m47-31c-1.108 0-2 0.892-2 2v22c0 1.108 0.892 2 2 2h12c1.108 0 2-0.892 2-2v-22c0-1.108-0.892-2-2-2zm0 1h12c0.554 0 1 0.446 1 1v22c0 0.554-0.446 1-1 1h-12c-0.554 0-1-0.446-1-1v-22c0-0.554 0.446-1 1-1z"
       fill="#dedede"
       inkscape:connector-curvature="0"
       style="fill:#fbfbfb;fill-opacity:1" />
    <rect
       id="rect899"
       x="46"
       y="-30"
       width="14"
       height="24"
       rx="0"
       ry="1"
       fill="#dedede"
       opacity=".25"
       style="fill:#fbfbfb;fill-opacity:1" />
    <rect
       id="rect901"
       x="37"
       y="-34"
       width="32"
       height="32"
       rx="0"
       ry="0"
       opacity="0" />
    <rect
       id="rect904"
       x="50"
       y="-31"
       width="6"
       height="2"
       rx="1"
       ry="1"
       fill="#dedede"
       style="fill:#fbfbfb;fill-opacity:1" />
    <rect
       id="rect906"
       x="49"
       y="-8"
       width="8"
       height="1"
       rx=".537"
       ry="1"
       fill="#dedede"
       opacity=".5"
       style="fill:#fbfbfb;fill-opacity:1" />
    <g
       id="g4600"
       transform="rotate(-90,-121.98,269.52)">
      <path
         id="path4472"
         transform="translate(214.54,404.5)"
         d="m-48 37a3 3 0 0 0-2.826 2h-1.174v2h1.176a3 3 0 0 0 2.824 2v-1h2v-1h-2v-2h2v-1h-2z"
         fill="#4caf50"
         inkscape:connector-curvature="0"
         style="fill:#3278ff;fill-opacity:1" />
    </g>
  </g>
  <g
     id="22-22-phone-battery">
    <rect
       id="rect875"
       x="43"
       y="2"
       width="10"
       height="18"
       rx="1"
       ry="1"
       fill="#dedede"
       opacity=".25"
       style="fill:#fbfbfb;fill-opacity:1" />
    <path
       id="path877"
       d="m37 0h22v22h-22z"
       opacity="0"
       inkscape:connector-curvature="0" />
    <path
       id="path879"
       d="m44 1c-1.108 0-2 0.892-2 2v16c0 1.108 0.892 2 2 2h8c1.108 0 2-0.892 2-2v-16c0-1.108-0.892-2-2-2h-6zm0 1h1c0 0.554 0.446 1 1 1h4c0.554 0 1-0.446 1-1h1c0.554 0 1 0.446 1 1v16c0 0.554-0.446 1-1 1h-8c-0.554 0-1-0.446-1-1v-16c0-0.554 0.446-1 1-1z"
       fill="#dedede"
       inkscape:connector-curvature="0"
       style="fill:#fbfbfb;fill-opacity:1" />
    <path
       id="path881"
       d="m45.5 18h5c0.277 0 0.5 0.223 0.5 0.5s-0.223 0.5-0.5 0.5h-5c-0.277 0-0.5-0.223-0.5-0.5s0.223-0.5 0.5-0.5z"
       fill="#dedede"
       opacity=".5"
       inkscape:connector-curvature="0"
       style="fill:#fbfbfb;fill-opacity:1" />
    <path
       id="path4600"
       d="m45 10a3 3 0 0 0 2 2.826v1.174h2v-1.176a3 3 0 0 0 2-2.824h-1v-2h-1v2h-2v-2h-1v2z"
       fill="#4caf50"
       inkscape:connector-curvature="0"
       style="fill:#3278ff;fill-opacity:1" />
  </g>
  <g
     id="16-16-phone-battery">
    <path
       id="path885"
       d="m42 27c-1.108 0-2 0.892-2 2v10c0 1.108 0.892 2 2 2h6c1.108 0 2-0.892 2-2v-10c0-1.108-0.892-2-2-2zm0 1h6c0.554 0 1 0.446 1 1v10c0 0.554-0.446 1-1 1h-6c-0.554 0-1-0.446-1-1v-10c0-0.554 0.446-1 1-1z"
       fill="#dedede"
       inkscape:connector-curvature="0"
       style="fill:#fbfbfb;fill-opacity:1" />
    <rect
       id="rect887"
       x="41"
       y="28"
       width="8"
       height="12"
       rx="1"
       ry="1"
       fill="#dedede"
       opacity=".25"
       style="fill:#fbfbfb;fill-opacity:1" />
    <rect
       id="rect889"
       x="37"
       y="26"
       width="16"
       height="16"
       rx="0"
       ry="0"
       opacity="0" />
    <rect
       id="rect891"
       x="43"
       y="27"
       width="4"
       height="2"
       rx="1"
       ry="1"
       fill="#dedede"
       style="fill:#fbfbfb;fill-opacity:1" />
    <path
       id="path893"
       d="m43.637 38h2.7251c0.35315 0 0.63746 0.223 0.63746 0.5s-0.28431 0.5-0.63746 0.5h-2.7251c-0.35315 0-0.63746-0.223-0.63746-0.5s0.28431-0.5 0.63746-0.5z"
       fill="#dedede"
       opacity=".5"
       inkscape:connector-curvature="0"
       style="fill:#fbfbfb;fill-opacity:1" />
    <path
       id="path936"
       d="m42 33a3 3 0 0 0 2 2.826v1.174h2v-1.176a3 3 0 0 0 2-2.824h-1v-2h-1v2h-2v-2h-1v2z"
       fill="#4caf50"
       inkscape:connector-curvature="0"
       style="fill:#3278ff;fill-opacity:1" />
  </g>
</svg>
