<?xml version="1.0" encoding="UTF-8" standalone="no"?>
<svg
   xmlns:dc="http://purl.org/dc/elements/1.1/"
   xmlns:cc="http://creativecommons.org/ns#"
   xmlns:rdf="http://www.w3.org/1999/02/22-rdf-syntax-ns#"
   xmlns:svg="http://www.w3.org/2000/svg"
   xmlns="http://www.w3.org/2000/svg"
   xmlns:xlink="http://www.w3.org/1999/xlink"
   xmlns:sodipodi="http://sodipodi.sourceforge.net/DTD/sodipodi-0.dtd"
   xmlns:inkscape="http://www.inkscape.org/namespaces/inkscape"
   viewBox="0 0 22 22"
   version="1.1"
   sodipodi:docname="preferences.svg"
   inkscape:version="1.0.1 (3bc2e813f5, 2020-09-07)"
   id="svg">
  <metadata
     id="metadata27">
    <rdf:RDF>
      <cc:Work
         rdf:about="">
        <dc:format>image/svg+xml</dc:format>
        <dc:type
           rdf:resource="http://purl.org/dc/dcmitype/StillImage" />
      </cc:Work>
    </rdf:RDF>
  </metadata>
  <sodipodi:namedview
     inkscape:document-rotation="0"
     showgrid="true"
     pagecolor="#383838"
     objecttolerance="10"
     inkscape:zoom="2.6818183"
     inkscape:window-y="0"
     inkscape:window-x="0"
     inkscape:window-width="1920"
     inkscape:window-maximized="1"
     inkscape:window-height="999"
     inkscape:snap-smooth-nodes="true"
     inkscape:snap-nodes="true"
     inkscape:snap-intersection-paths="true"
     inkscape:snap-bbox-edge-midpoints="true"
     inkscape:snap-bbox="true"
     inkscape:pageshadow="2"
     inkscape:pageopacity="0"
     inkscape:object-paths="true"
     inkscape:cy="61.24592"
     inkscape:cx="-73.646726"
     inkscape:current-layer="svg"
     inkscape:bbox-nodes="true"
     guidetolerance="10"
     gridtolerance="10"
     borderopacity="1"
     bordercolor="#666666"
     id="namedview21">
    <inkscape:grid
       type="xygrid"
       id="grid855" />
  </sodipodi:namedview>
  <defs
     id="defs7386">
    <style
       type="text/css"
       id="current-color-scheme">.ColorScheme-Text { color:#dedede; } .ColorScheme-Highlight { color:#5294e2; } .ColorScheme-ButtonBackground { color:#dedede; }</style>
    <filter
       id="c"
       x="-.07966"
       y="-.048123"
       width="1.1593"
       height="1.0962"
       color-interpolation-filters="sRGB">
      <feGaussianBlur
         stdDeviation="0.79660366"
         id="feGaussianBlur845" />
    </filter>
    <linearGradient
       id="linearGradient1448"
       x1="3.9687"
       x2="3.9687"
       y1="16.404"
       y2="2.6458"
       gradientTransform="matrix(3.4646,0,0,3.4646,66.680927,11.651707)"
       gradientUnits="userSpaceOnUse">
      <stop
         stop-color="#1964f0"
         offset="0"
         id="stop848" />
      <stop
         stop-color="#14c3fa"
         offset="1"
         id="stop850" />
    </linearGradient>
    <filter
       id="filter861"
       x="-.027"
       y="-.027"
       width="1.054"
       height="1.054"
       color-interpolation-filters="sRGB">
      <feGaussianBlur
         stdDeviation="0.16371"
         id="feGaussianBlur853" />
    </filter>
    <linearGradient
       id="linearGradient917"
       x1="29.565"
       x2="29.728"
       y1="11.048"
       y2="53.559"
       gradientTransform="translate(-57.000498,10.864133)"
       gradientUnits="userSpaceOnUse">
      <stop
         stop-color="#fff"
         offset="0"
         id="stop856" />
      <stop
         stop-color="#dbf6f8"
         offset="1"
         id="stop858" />
    </linearGradient>
    <linearGradient
       id="a"
       gradientUnits="userSpaceOnUse"
       x1="197.88585"
       x2="183.32736"
       y1="364.75723"
       y2="12.945999">
      <stop
         offset="0"
         stop-color="#197cf1"
         id="stop2" />
      <stop
         offset="1"
         stop-color="#20bcfa"
         id="stop4" />
    </linearGradient>
    <linearGradient
       y2="12.945999"
       x2="183.32736"
       y1="364.75723"
       x1="197.88585"
       gradientUnits="userSpaceOnUse"
       id="linearGradient893"
       xlink:href="#a"
       inkscape:collect="always" />
    <linearGradient
       y2="12.945999"
       x2="183.32736"
       y1="364.75723"
       x1="197.88585"
       gradientUnits="userSpaceOnUse"
       id="linearGradient945"
       xlink:href="#a"
       inkscape:collect="always" />
    <linearGradient
       y2="12.945999"
       x2="183.32736"
       y1="364.75723"
       x1="197.88585"
       gradientUnits="userSpaceOnUse"
       id="linearGradient947"
       xlink:href="#a"
       inkscape:collect="always" />
    <linearGradient
       y2="12.945999"
       x2="183.32736"
       y1="364.75723"
       x1="197.88585"
       gradientUnits="userSpaceOnUse"
       id="linearGradient949"
       xlink:href="#a"
       inkscape:collect="always" />
    <linearGradient
       y2="12.945999"
       x2="183.32736"
       y1="364.75723"
       x1="197.88585"
       gradientUnits="userSpaceOnUse"
       id="linearGradient969"
       xlink:href="#a"
       inkscape:collect="always" />
    <linearGradient
       y2="12.945999"
       x2="183.32736"
       y1="364.75723"
       x1="197.88585"
       gradientUnits="userSpaceOnUse"
       id="linearGradient971"
       xlink:href="#a"
       inkscape:collect="always" />
    <linearGradient
       y2="12.945999"
       x2="183.32736"
       y1="364.75723"
       x1="197.88585"
       gradientUnits="userSpaceOnUse"
       id="linearGradient973"
       xlink:href="#a"
       inkscape:collect="always" />
    <linearGradient
       y2="12.945999"
       x2="183.32736"
       y1="364.75723"
       x1="197.88585"
       gradientUnits="userSpaceOnUse"
       id="linearGradient975"
       xlink:href="#a"
       inkscape:collect="always" />
  </defs>
  <g
     id="preferences-system-bluetooth-3"
     transform="translate(0,39.693461)">
    <rect
       id="rect1015"
       style="opacity:0"
       y="28.009333"
       x="0.042796083"
       height="22"
       width="22" />
    <g
       id="g17"
       transform="matrix(0.39130434,0,0,0.39130434,-148.83297,-165.9551)">
      <ellipse
         id="ellipse7"
         ry="17.1875"
         rx="11.625"
         fill-rule="evenodd"
         fill="#ffffff"
         cy="524.86047"
         cx="408.57144" />
      <g
         id="g15"
         transform="matrix(0.12777778,0,0,0.12777778,385.57143,500.798)"
         fill="url(#a)"
         style="fill:url(#linearGradient893)">
        <path
           id="path9"
           d="M 180.003,0 C 113.723,0 60,53.723 60,120 v 120 c 0,66.277 53.723,120 120.003,120 C 246.277,360 300,306.277 300,240 V 120 C 300,53.723 246.277,0 180.003,0 Z m 69.364,224.128 c 2.705,2.168 4.279,5.448 4.279,8.915 0,3.467 -1.574,6.746 -4.279,8.915 l -71.652,57.439 c -2.067,1.657 -4.597,2.511 -7.148,2.511 -1.68,0 -3.369,-0.371 -4.942,-1.125 -3.961,-1.901 -6.481,-5.906 -6.481,-10.3 v -82.024 l -34.182,27.632 c -2.114,1.709 -4.653,2.541 -7.176,2.541 -3.331,0 -6.634,-1.45 -8.892,-4.243 -3.967,-4.907 -3.204,-12.101 1.703,-16.068 l 47.385,-38.306 -47.385,-38.306 c -4.907,-3.967 -5.67,-11.161 -1.703,-16.068 3.967,-4.908 11.162,-5.669 16.068,-1.703 l 34.182,27.632 V 69.519 c 0,-4.394 2.52,-8.399 6.481,-10.3 3.962,-1.901 8.663,-1.362 12.091,1.386 l 71.652,57.441 c 2.705,2.168 4.279,5.448 4.279,8.914 0,3.466 -1.574,6.746 -4.279,8.915 L 194.322,180 Z"
           style="fill:url(#linearGradient945)" />
        <path
           id="path11"
           d="m 223.954,126.959 -41.96,-33.638 v 67.275 z"
           style="fill:url(#linearGradient947)" />
        <path
           id="path13"
           d="m 223.954,233.042 -41.96,-33.638 v 67.275 z"
           style="fill:url(#linearGradient949)" />
      </g>
    </g>
  </g>
  <g
     id="16-16-preferences-system-bluetooth-3"
     transform="translate(0,39.693461)">
    <rect
       ry="0.28211999"
       y="32"
       x="28.000002"
       height="16"
       width="16"
       id="rect1041"
       style="opacity:0;fill:#000000;fill-opacity:1;stroke:none;stroke-width:1.43545;stroke-linecap:round;stroke-linejoin:round;stroke-miterlimit:4;stroke-dasharray:none;stroke-opacity:1;paint-order:stroke fill markers" />
    <g
       transform="matrix(0.35869566,0,0,0.34782608,-110.5528,-142.1906)"
       id="g967">
      <ellipse
         cx="408.57144"
         cy="524.86047"
         fill="#ffffff"
         fill-rule="evenodd"
         rx="11.625"
         ry="17.1875"
         id="ellipse957" />
      <g
         style="fill:url(#linearGradient975)"
         fill="url(#a)"
         transform="matrix(0.12777778,0,0,0.12777778,385.57143,500.798)"
         id="g965">
        <path
           style="fill:url(#linearGradient969)"
           d="M 180.003,0 C 113.723,0 60,53.723 60,120 v 120 c 0,66.277 53.723,120 120.003,120 C 246.277,360 300,306.277 300,240 V 120 C 300,53.723 246.277,0 180.003,0 Z m 69.364,224.128 c 2.705,2.168 4.279,5.448 4.279,8.915 0,3.467 -1.574,6.746 -4.279,8.915 l -71.652,57.439 c -2.067,1.657 -4.597,2.511 -7.148,2.511 -1.68,0 -3.369,-0.371 -4.942,-1.125 -3.961,-1.901 -6.481,-5.906 -6.481,-10.3 v -82.024 l -34.182,27.632 c -2.114,1.709 -4.653,2.541 -7.176,2.541 -3.331,0 -6.634,-1.45 -8.892,-4.243 -3.967,-4.907 -3.204,-12.101 1.703,-16.068 l 47.385,-38.306 -47.385,-38.306 c -4.907,-3.967 -5.67,-11.161 -1.703,-16.068 3.967,-4.908 11.162,-5.669 16.068,-1.703 l 34.182,27.632 V 69.519 c 0,-4.394 2.52,-8.399 6.481,-10.3 3.962,-1.901 8.663,-1.362 12.091,1.386 l 71.652,57.441 c 2.705,2.168 4.279,5.448 4.279,8.914 0,3.466 -1.574,6.746 -4.279,8.915 L 194.322,180 Z"
           id="path959" />
        <path
           style="fill:url(#linearGradient971)"
           d="m 223.954,126.959 -41.96,-33.638 v 67.275 z"
           id="path961" />
        <path
           style="fill:url(#linearGradient973)"
           d="m 223.954,233.042 -41.96,-33.638 v 67.275 z"
           id="path963" />
      </g>
    </g>
  </g>
  <g
     id="preferences-desktop-notification"
     transform="translate(-1,39)">
    <rect
       id="rect3068"
       x="1"
       y="1"
       width="22"
       height="22"
       fill-opacity="0" />
    <rect
       id="rect4130-82-0"
       x="4.000011"
       y="4"
       width="15.999978"
       height="15.999987"
       ry="7.999989"
       fill="#3daee9"
       style="fill:#3278ff;fill-opacity:1" />
    <path
       id="rect4142-6"
       d="m 11.202644,7.1999826 -0.0026,7.2000124 h 1.599998 l 0.0026,-7.2000124 z m 0.799999,7.9999894 c -0.441822,0 -0.799999,0.358171 -0.799999,0.799999 0,0.441827 0.358177,0.799999 0.799999,0.799999 0.441822,0 0.799999,-0.358172 0.799999,-0.799999 0,-0.441828 -0.358177,-0.799999 -0.799999,-0.799999 z"
       fill="#fcfcfc" />
  </g>
  <g
     id="22-22-preferences-system-bluetooth"
     transform="translate(-22,94)">
    <rect
       id="rect4645"
       x="66"
       width="22"
       height="22"
       fill="none"
       y="0" />
    <path
       id="rect4163-9"
       class="ColorScheme-Text"
       d="m 76.998047,3 v 7.041013 l -3.292969,-3.2929692 -0.002,0.00195 C 73.347329,6.39404 72.707031,5.7539062 72.707031,5.7539062 L 72,6.4609375 76.544922,11.001953 72,15.542969 72.707031,16.25 c 0,0 0.640351,-0.640094 0.996094,-0.996094 h 0.002 L 77,11.960938 V 19 h 1 L 82,15 78,11 82,7 78,3 Z M 78,4.4160156 80.585938,7.0019531 78,9.5878906 Z m 0,8.0000004 2.585938,2.585937 L 78,17.587891 Z"
       fill="currentColor"
       style="fill:#fbfbfb;fill-opacity:1" />
  </g>
  <g
     id="22-22-preferences-system-bluetooth-activated"
     transform="translate(0,94)">
    <rect
       id="rect4674"
       x="66"
       width="22"
       height="22"
       fill="none"
       y="0" />
    <path
       id="path4676"
       class="ColorScheme-Text"
       d="m 76.998047,3 v 7.041013 l -3.292969,-3.2929692 -0.002,0.00195 C 73.347329,6.39404 72.707031,5.7539062 72.707031,5.7539062 L 72,6.4609375 76.544922,11.001953 72,15.542969 72.707031,16.25 c 0,0 0.640351,-0.640094 0.996094,-0.996094 h 0.002 L 77,11.960938 V 19 h 1 L 82,15 78,11 82,7 78,3 Z M 78,4.4160156 80.585938,7.0019531 78,9.5878906 Z M 67,10 a 1,1 0 0 0 -1,1 1,1 0 0 0 1,1 1,1 0 0 0 1,-1 1,1 0 0 0 -1,-1 z m 4,0 a 1,1 0 0 0 -1,1 1,1 0 0 0 1,1 1,1 0 0 0 1,-1 1,1 0 0 0 -1,-1 z m 12,0 a 1,1 0 0 0 -1,1 1,1 0 0 0 1,1 1,1 0 0 0 1,-1 1,1 0 0 0 -1,-1 z m 4,0 a 1,1 0 0 0 -1,1 1,1 0 0 0 1,1 1,1 0 0 0 1,-1 1,1 0 0 0 -1,-1 z m -9,2.416016 2.585938,2.585937 L 78,17.587891 Z"
       fill="currentColor"
       style="fill:#fbfbfb;fill-opacity:1" />
  </g>
  <g
     id="22-22-preferences-system-bluetooth-inactive"
     transform="translate(-44,94)">
    <rect
       id="rect4162"
       x="66"
       width="22"
       height="22"
       fill="none"
       y="0" />
    <path
       id="path4164"
       class="ColorScheme-Text"
       d="m 76.998047,3 v 7.041013 l -3.292969,-3.2929692 -0.002,0.00195 C 73.347329,6.39404 72.707031,5.7539062 72.707031,5.7539062 L 72,6.4609375 76.544922,11.001953 72,15.542969 72.707031,16.25 c 0,0 0.640351,-0.640094 0.996094,-0.996094 h 0.002 L 77,11.960938 V 19 h 1 L 82,15 78,11 82,7 78,3 Z M 78,4.4160156 80.585938,7.0019531 78,9.5878906 Z m 0,8.0000004 2.585938,2.585937 L 78,17.587891 Z"
       fill="currentColor"
       opacity="0.5"
       style="fill:#fbfbfb;fill-opacity:1" />
  </g>
  <g
     id="preferences-system-bluetooth"
     transform="translate(44,94)">
    <rect
       id="rect4168"
       x="-5"
       y="22"
       width="32"
       height="32"
       fill="none" />
    <path
       id="rect4331"
       class="ColorScheme-Text"
       d="m 11,26 v 0.410156 10.587891 L 5.0019531,31 4.296875,31.705078 10.589844,38 4.296875,44.294922 5.0019531,45 11,39.001953 V 50 h 1 0.002 L 18,44.001953 V 44 43.998 L 12.001953,38 18,32.001953 V 32 31.998 L 12.001953,26 H 12 Z M 12,27.410156 16.587891,32 12,36.589844 Z m 0,12 L 16.587891,44 12,48.589844 Z"
       fill="currentColor"
       style="fill:#fbfbfb;fill-opacity:1" />
  </g>
  <g
     id="preferences-system-bluetooth-activated"
     transform="translate(44,94)">
    <rect
       id="rect4422"
       x="27"
       y="22"
       width="32"
       height="32"
       fill="none" />
    <path
       id="path4424"
       class="ColorScheme-Text"
       d="M 43,26 V 36.998047 L 37.001953,31 36.296875,31.705078 42.589844,38 36.296875,44.294922 37.001953,45 43,39.001953 V 50 h 1.002 L 50,44.001953 v -0.0039 L 44.001953,38 50,32.001953 v -0.0039 L 44.001953,26 Z M 44,27.410156 48.587891,32 44,36.589844 Z M 30,37 a 1,1 0 0 0 -1,1 1,1 0 0 0 1,1 1,1 0 0 0 1,-1 1,1 0 0 0 -1,-1 z m 6,0 a 1,1 0 0 0 -1,1 1,1 0 0 0 1,1 1,1 0 0 0 1,-1 1,1 0 0 0 -1,-1 z m 14,0 a 1,1 0 0 0 -1,1 1,1 0 0 0 1,1 1,1 0 0 0 1,-1 1,1 0 0 0 -1,-1 z m 6,0 a 1,1 0 0 0 -1,1 1,1 0 0 0 1,1 1,1 0 0 0 1,-1 1,1 0 0 0 -1,-1 z M 44,39.410156 48.587891,44 44,48.589844 Z"
       fill="currentColor"
       style="fill:#fbfbfb;fill-opacity:1" />
  </g>
  <g
     id="preferences-system-bluetooth-inactive"
     transform="translate(44,94)">
    <rect
       id="rect4426"
       x="-37"
       y="22"
       width="32"
       height="32"
       fill="none" />
    <path
       id="path4428"
       class="ColorScheme-Text"
       d="M -21,26 V 36.998047 L -26.998047,31 -27.703125,31.705078 -21.410156,38 -27.703125,44.294922 -26.998047,45 -21,39.001953 V 50 h 1.002 L -14,44.001953 v -0.004 L -19.998047,38 -14,32.001953 V 31.998 L -19.998047,26 Z m 1,1.410156 L -15.412109,32 -20,36.589844 Z m 0,12 L -15.412109,44 -20,48.589844 Z"
       fill="currentColor"
       opacity="0.5"
       style="fill:#fbfbfb;fill-opacity:1" />
  </g>
  <g
     id="preferences-system-bluetooth-battery"
     transform="translate(44,126)">
    <rect
       id="rect4168-3"
       x="-5"
       y="22"
       width="32"
       height="32"
       fill="none" />
    <path
       id="rect4331-5"
       class="ColorScheme-Text"
       d="m 11,26 v 0.410156 10.587891 L 5.0019531,31 4.296875,31.705078 10.589844,38 4.296875,44.294922 5.0019531,45 11,39.001953 V 50 h 1 0.002 L 18,44.001953 V 44 43.998 L 12.001953,38 18,32.001953 V 32 31.998 L 12.001953,26 H 12 Z M 12,27.410156 16.587891,32 12,36.589844 Z m 0,12 L 16.587891,44 12,48.589844 Z"
       fill="currentColor"
       style="fill:#fbfbfb;fill-opacity:1" />
  </g>
  <g
     id="preferences-desktop-display-randr">
    <rect
       id="rect3832-6"
       x="26"
       y="-10"
       width="32"
       height="32"
       style="fill-opacity:0" />
    <g
       transform="translate(-22,1)"
       id="g909">
      <g
         id="g875">
        <path
           inkscape:connector-curvature="0"
           id="rect851"
           d="M 53,-5 V 12 H 75 V -5 Z m 1,1 H 74 V 10 H 54 Z"
           style="opacity:1;fill:#fbfbfb;fill-opacity:1;stroke:none;stroke-width:1;stroke-miterlimit:4;stroke-dasharray:none;stroke-opacity:1" />
        <g
           transform="matrix(1,0,0,1.5,3,-6.9067497)"
           id="g866">
          <rect
             style="opacity:1;fill:#fbfbfb;fill-opacity:1;stroke:none;stroke-width:1;stroke-miterlimit:4;stroke-dasharray:none;stroke-opacity:1"
             id="rect860"
             width="1"
             height="2"
             x="59"
             y="12.6045" />
          <rect
             style="opacity:1;fill:#fbfbfb;fill-opacity:1;stroke:none;stroke-width:1;stroke-miterlimit:4;stroke-dasharray:none;stroke-opacity:1"
             id="rect862"
             width="1"
             height="2"
             x="62"
             y="12.6045" />
        </g>
        <rect
           y="15"
           x="58"
           height="1"
           width="12"
           id="rect868"
           style="opacity:1;fill:#fbfbfb;fill-opacity:1;stroke:none;stroke-width:1;stroke-miterlimit:4;stroke-dasharray:none;stroke-opacity:1" />
      </g>
      <g
         id="g883">
        <rect
           y="4"
           x="55"
           height="5"
           width="1"
           id="rect877"
           style="opacity:1;fill:#fbfbfb;fill-opacity:1;stroke:none;stroke-width:1;stroke-miterlimit:4;stroke-dasharray:none;stroke-opacity:1" />
        <rect
           transform="rotate(90)"
           style="opacity:1;fill:#fbfbfb;fill-opacity:1;stroke:none;stroke-width:1;stroke-miterlimit:4;stroke-dasharray:none;stroke-opacity:1"
           id="rect879"
           width="1"
           height="5"
           x="8"
           y="-60" />
      </g>
      <g
         id="g895">
        <rect
           transform="scale(-1)"
           style="opacity:1;fill:#fbfbfb;fill-opacity:1;stroke:none;stroke-width:1;stroke-miterlimit:4;stroke-dasharray:none;stroke-opacity:1"
           id="rect885"
           width="1"
           height="5"
           x="-73"
           y="-2" />
        <rect
           y="68"
           x="2"
           height="5"
           width="1"
           id="rect887"
           style="opacity:1;fill:#fbfbfb;fill-opacity:1;stroke:none;stroke-width:1;stroke-miterlimit:4;stroke-dasharray:none;stroke-opacity:1"
           transform="rotate(-90)" />
      </g>
    </g>
  </g>
  <g
     id="22-22-preferences-desktop-display-randr">
    <rect
       id="rect3832"
       x="0"
       y="0"
       width="22"
       height="22"
       style="fill-opacity:0" />
    <g
       transform="translate(20,1)"
       id="g973">
      <path
         style="opacity:1;fill:#fbfbfb;fill-opacity:1;stroke:none;stroke-width:0.716498;stroke-miterlimit:4;stroke-dasharray:none;stroke-opacity:1"
         d="M -17,3 V 15 H -1 V 3 Z m 1,1 h 14 v 9 h -14 z"
         id="rect855"
         inkscape:connector-curvature="0" />
      <g
         id="g938"
         transform="translate(0,-1)">
        <rect
           y="16"
           x="-11"
           height="2"
           width="1"
           id="rect932"
           style="opacity:1;fill:#fbfbfb;fill-opacity:1;stroke:none;stroke-width:1;stroke-miterlimit:4;stroke-dasharray:none;stroke-opacity:1" />
        <rect
           y="16"
           x="-8"
           height="2"
           width="1"
           id="rect934"
           style="opacity:1;fill:#fbfbfb;fill-opacity:1;stroke:none;stroke-width:1;stroke-miterlimit:4;stroke-dasharray:none;stroke-opacity:1" />
      </g>
      <rect
         style="opacity:1;fill:#fbfbfb;fill-opacity:1;stroke:none;stroke-width:1;stroke-miterlimit:4;stroke-dasharray:none;stroke-opacity:1"
         id="rect940"
         width="8"
         height="1"
         x="-13"
         y="17" />
      <g
         id="g948">
        <rect
           y="9"
           x="-15"
           height="3"
           width="1"
           id="rect942"
           style="opacity:1;fill:#fbfbfb;fill-opacity:1;stroke:none;stroke-width:1;stroke-miterlimit:4;stroke-dasharray:none;stroke-opacity:1" />
        <rect
           transform="rotate(90)"
           style="opacity:1;fill:#fbfbfb;fill-opacity:1;stroke:none;stroke-width:1;stroke-miterlimit:4;stroke-dasharray:none;stroke-opacity:1"
           id="rect944"
           width="1"
           height="3"
           x="11"
           y="12" />
      </g>
      <g
         id="g960">
        <rect
           transform="scale(-1)"
           style="opacity:1;fill:#fbfbfb;fill-opacity:1;stroke:none;stroke-width:1;stroke-miterlimit:4;stroke-dasharray:none;stroke-opacity:1"
           id="rect950"
           width="1"
           height="3"
           x="3"
           y="-8" />
        <rect
           y="-6"
           x="-6"
           height="3"
           width="1"
           id="rect952"
           style="opacity:1;fill:#fbfbfb;fill-opacity:1;stroke:none;stroke-width:1;stroke-miterlimit:4;stroke-dasharray:none;stroke-opacity:1"
           transform="rotate(-90)" />
      </g>
    </g>
  </g>
</svg>
