<?xml version="1.0" encoding="UTF-8" standalone="no"?>
<svg
   xmlns:dc="http://purl.org/dc/elements/1.1/"
   xmlns:cc="http://creativecommons.org/ns#"
   xmlns:rdf="http://www.w3.org/1999/02/22-rdf-syntax-ns#"
   xmlns:svg="http://www.w3.org/2000/svg"
   xmlns="http://www.w3.org/2000/svg"
   xmlns:xlink="http://www.w3.org/1999/xlink"
   xmlns:sodipodi="http://sodipodi.sourceforge.net/DTD/sodipodi-0.dtd"
   xmlns:inkscape="http://www.inkscape.org/namespaces/inkscape"
   id="svg4153"
   width="22"
   height="22"
   version="1.1"
   viewBox="0 0 22 22"
   sodipodi:docname="software.svg"
   inkscape:version="1.0.1 (3bc2e813f5, 2020-09-07)">
  <metadata
     id="metadata35">
    <rdf:RDF>
      <cc:Work
         rdf:about="">
        <dc:format>image/svg+xml</dc:format>
        <dc:type
           rdf:resource="http://purl.org/dc/dcmitype/StillImage" />
        <dc:title />
      </cc:Work>
    </rdf:RDF>
  </metadata>
  <sodipodi:namedview
     pagecolor="#c8c8c8"
     bordercolor="#666666"
     borderopacity="1"
     objecttolerance="10"
     gridtolerance="10"
     guidetolerance="10"
     inkscape:pageopacity="0"
     inkscape:pageshadow="2"
     inkscape:window-width="1920"
     inkscape:window-height="999"
     id="namedview33"
     showgrid="true"
     inkscape:zoom="8"
     inkscape:cx="6.5377167"
     inkscape:cy="61.541666"
     inkscape:window-x="0"
     inkscape:window-y="0"
     inkscape:window-maximized="1"
     inkscape:current-layer="svg4153"
     inkscape:document-rotation="0"
     inkscape:snap-nodes="true">
    <inkscape:grid
       type="xygrid"
       id="grid887" />
  </sodipodi:namedview>
  <defs
     id="defs4157">
    <style
       id="current-color-scheme"
       type="text/css">
   .ColorScheme-Text { color:#333333; } .ColorScheme-Highlight { color:#5294e2; } .ColorScheme-ButtonBackground { color:#333333; }
  </style>
  </defs>
  <use
     x="0"
     y="0"
     xlink:href="#g878"
     id="use880"
     transform="translate(-27.32783)"
     width="100%"
     height="100%" />
  <use
     x="0"
     y="0"
     xlink:href="#use880"
     id="use882"
     transform="translate(-24.481181,0.18977659)"
     width="100%"
     height="100%" />
  <use
     x="0"
     y="0"
     xlink:href="#use884"
     id="use886"
     transform="translate(-27.897159,0.75910638)"
     width="100%"
     height="100%" />
  <g
     id="software-updates-updates">
    <rect
       y="0"
       x="4.4433591e-08"
       height="22"
       width="22"
       id="rect817-1-0"
       style="clip-rule:evenodd;fill:#ffffff;fill-opacity:0;fill-rule:evenodd;stroke-width:0.546348;stroke-linejoin:round;stroke-miterlimit:1.41421" />
    <g
       id="g941"
       transform="translate(48.19292,-0.17401057)">
      <path
         sodipodi:arc-type="arc"
         sodipodi:open="true"
         sodipodi:end="5.7441557"
         sodipodi:start="0.78539816"
         sodipodi:ry="7.4999809"
         sodipodi:rx="7.4999809"
         sodipodi:cy="11.31262"
         sodipodi:cx="-36.934963"
         sodipodi:type="arc"
         style="fill:none;stroke:#0078d7;stroke-width:1.00026;stroke-linecap:round;stroke-miterlimit:4;stroke-dasharray:none;stroke-opacity:1"
         id="path918"
         d="m -31.631676,16.615908 a 7.4999809,7.4999809 0 0 1 -8.59447,1.435987 7.4999809,7.4999809 0 0 1 -4.151966,-7.66082 7.4999809,7.4999809 0 0 1 5.894945,-6.4169 7.4999809,7.4999809 0 0 1 7.984741,3.4886792" />
      <rect
         style="opacity:1;fill:#0078d7;fill-opacity:1;stroke-width:0.912871;stroke-linecap:round;stroke-miterlimit:4;stroke-dasharray:none"
         id="rect920"
         width="5"
         height="1"
         x="-33.684391"
         y="11.103754"
         ry="0.5"
         transform="rotate(7.8703413)" />
      <rect
         style="opacity:1;fill:#0078d7;fill-opacity:1;stroke-width:0.912871;stroke-linecap:round;stroke-miterlimit:4;stroke-dasharray:none"
         id="rect925"
         width="5"
         height="1"
         x="7.103754"
         y="28.684389"
         ry="0.5"
         transform="rotate(97.870342)" />
    </g>
  </g>
  <g
     id="software-updates-release"
     transform="translate(-4.4433591e-8,25)">
    <rect
       y="0"
       x="4.4433591e-08"
       height="22"
       width="22"
       id="rect955"
       style="clip-rule:evenodd;fill:#ffffff;fill-opacity:0;fill-rule:evenodd;stroke-width:0.546348;stroke-linejoin:round;stroke-miterlimit:1.41421" />
    <g
       id="g963"
       transform="translate(48.19292,-0.17401057)">
      <path
         sodipodi:arc-type="arc"
         sodipodi:open="true"
         sodipodi:end="5.7441557"
         sodipodi:start="0.78539816"
         sodipodi:ry="7.4999809"
         sodipodi:rx="7.4999809"
         sodipodi:cy="11.31262"
         sodipodi:cx="-36.934963"
         sodipodi:type="arc"
         style="fill:none;stroke:#0078d7;stroke-width:1.00026;stroke-linecap:round;stroke-miterlimit:4;stroke-dasharray:none;stroke-opacity:1"
         id="path957"
         d="m -31.631676,16.615908 a 7.4999809,7.4999809 0 0 1 -8.59447,1.435987 7.4999809,7.4999809 0 0 1 -4.151966,-7.66082 7.4999809,7.4999809 0 0 1 5.894945,-6.4169 7.4999809,7.4999809 0 0 1 7.984741,3.4886792" />
      <rect
         style="opacity:1;fill:#0078d7;fill-opacity:1;stroke-width:0.912871;stroke-linecap:round;stroke-miterlimit:4;stroke-dasharray:none"
         id="rect959"
         width="5"
         height="1"
         x="-33.684391"
         y="11.103754"
         ry="0.5"
         transform="rotate(7.8703413)" />
      <rect
         style="opacity:1;fill:#0078d7;fill-opacity:1;stroke-width:0.912871;stroke-linecap:round;stroke-miterlimit:4;stroke-dasharray:none"
         id="rect961"
         width="5"
         height="1"
         x="7.103754"
         y="28.684389"
         ry="0.5"
         transform="rotate(97.870342)" />
    </g>
  </g>
  <g
     id="software-updates-additional"
     transform="translate(-4.4433591e-8,51)">
    <rect
       y="0"
       x="4.4433591e-08"
       height="22"
       width="22"
       id="rect967"
       style="clip-rule:evenodd;fill:#ffffff;fill-opacity:0;fill-rule:evenodd;stroke-width:0.546348;stroke-linejoin:round;stroke-miterlimit:1.41421" />
    <g
       id="g975"
       transform="translate(48.19292,-0.17401057)">
      <path
         sodipodi:arc-type="arc"
         sodipodi:open="true"
         sodipodi:end="5.7441557"
         sodipodi:start="0.78539816"
         sodipodi:ry="7.4999809"
         sodipodi:rx="7.4999809"
         sodipodi:cy="11.31262"
         sodipodi:cx="-36.934963"
         sodipodi:type="arc"
         style="fill:none;stroke:#0078d7;stroke-width:1.00026;stroke-linecap:round;stroke-miterlimit:4;stroke-dasharray:none;stroke-opacity:1"
         id="path969"
         d="m -31.631676,16.615908 a 7.4999809,7.4999809 0 0 1 -8.59447,1.435987 7.4999809,7.4999809 0 0 1 -4.151966,-7.66082 7.4999809,7.4999809 0 0 1 5.894945,-6.4169 7.4999809,7.4999809 0 0 1 7.984741,3.4886792" />
      <rect
         style="opacity:1;fill:#0078d7;fill-opacity:1;stroke-width:0.912871;stroke-linecap:round;stroke-miterlimit:4;stroke-dasharray:none"
         id="rect971"
         width="5"
         height="1"
         x="-33.684391"
         y="11.103754"
         ry="0.5"
         transform="rotate(7.8703413)" />
      <rect
         style="opacity:1;fill:#0078d7;fill-opacity:1;stroke-width:0.912871;stroke-linecap:round;stroke-miterlimit:4;stroke-dasharray:none"
         id="rect973"
         width="5"
         height="1"
         x="7.103754"
         y="28.684389"
         ry="0.5"
         transform="rotate(97.870342)" />
    </g>
  </g>
  <g
     id="software-updates-inactive"
     transform="translate(39)">
    <rect
       y="0"
       x="4.4433591e-08"
       height="22"
       width="22"
       id="rect979"
       style="clip-rule:evenodd;fill:#ffffff;fill-opacity:0;fill-rule:evenodd;stroke-width:0.546348;stroke-linejoin:round;stroke-miterlimit:1.41421" />
    <g
       id="g987"
       transform="translate(48.19292,-0.17401057)">
      <path
         sodipodi:arc-type="arc"
         sodipodi:open="true"
         sodipodi:end="5.7441557"
         sodipodi:start="0.78539816"
         sodipodi:ry="7.4999809"
         sodipodi:rx="7.4999809"
         sodipodi:cy="11.31262"
         sodipodi:cx="-36.934963"
         sodipodi:type="arc"
         style="fill:none;stroke:#323232;stroke-width:1.00026;stroke-linecap:round;stroke-miterlimit:4;stroke-dasharray:none;stroke-opacity:1"
         id="path981"
         d="m -31.631676,16.615908 a 7.4999809,7.4999809 0 0 1 -8.59447,1.435987 7.4999809,7.4999809 0 0 1 -4.151966,-7.66082 7.4999809,7.4999809 0 0 1 5.894945,-6.4169 7.4999809,7.4999809 0 0 1 7.984741,3.4886792" />
      <rect
         style="opacity:1;fill:#323232;fill-opacity:1;stroke-width:0.912871;stroke-linecap:round;stroke-miterlimit:4;stroke-dasharray:none"
         id="rect983"
         width="5"
         height="1"
         x="-33.684391"
         y="11.103754"
         ry="0.5"
         transform="rotate(7.8703413)" />
      <rect
         style="opacity:1;fill:#323232;fill-opacity:1;stroke-width:0.912871;stroke-linecap:round;stroke-miterlimit:4;stroke-dasharray:none"
         id="rect985"
         width="5"
         height="1"
         x="7.103754"
         y="28.684389"
         ry="0.5"
         transform="rotate(97.870342)" />
    </g>
  </g>
  <g
     id="software-updates-security"
     transform="translate(39,25)">
    <rect
       y="0"
       x="4.4433591e-08"
       height="22"
       width="22"
       id="rect991"
       style="clip-rule:evenodd;fill:#ffffff;fill-opacity:0;fill-rule:evenodd;stroke-width:0.546348;stroke-linejoin:round;stroke-miterlimit:1.41421" />
    <g
       id="g999"
       transform="translate(48.19292,-0.17401057)">
      <path
         sodipodi:arc-type="arc"
         sodipodi:open="true"
         sodipodi:end="5.7441557"
         sodipodi:start="0.78539816"
         sodipodi:ry="7.4999809"
         sodipodi:rx="7.4999809"
         sodipodi:cy="11.31262"
         sodipodi:cx="-36.934963"
         sodipodi:type="arc"
         style="fill:none;stroke:#72d78f;stroke-width:1.00026;stroke-linecap:round;stroke-miterlimit:4;stroke-dasharray:none;stroke-opacity:1"
         id="path993"
         d="m -31.631676,16.615908 a 7.4999809,7.4999809 0 0 1 -8.59447,1.435987 7.4999809,7.4999809 0 0 1 -4.151966,-7.66082 7.4999809,7.4999809 0 0 1 5.894945,-6.4169 7.4999809,7.4999809 0 0 1 7.984741,3.4886792" />
      <rect
         style="opacity:1;fill:#72d78f;fill-opacity:1;stroke-width:0.912871;stroke-linecap:round;stroke-miterlimit:4;stroke-dasharray:none"
         id="rect995"
         width="5"
         height="1"
         x="-33.684391"
         y="11.103754"
         ry="0.5"
         transform="rotate(7.8703413)" />
      <rect
         style="opacity:1;fill:#72d78f;fill-opacity:1;stroke-width:0.912871;stroke-linecap:round;stroke-miterlimit:4;stroke-dasharray:none"
         id="rect997"
         width="5"
         height="1"
         x="7.103754"
         y="28.684389"
         ry="0.5"
         transform="rotate(97.870342)" />
    </g>
  </g>
  <g
     id="software-updates-important"
     transform="translate(39,51)">
    <rect
       y="0"
       x="4.4433591e-08"
       height="22"
       width="22"
       id="rect1003"
       style="clip-rule:evenodd;fill:#ffffff;fill-opacity:0;fill-rule:evenodd;stroke-width:0.546348;stroke-linejoin:round;stroke-miterlimit:1.41421" />
    <g
       id="g1011"
       transform="translate(48.19292,-0.17401057)">
      <path
         sodipodi:arc-type="arc"
         sodipodi:open="true"
         sodipodi:end="5.7441557"
         sodipodi:start="0.78539816"
         sodipodi:ry="7.4999809"
         sodipodi:rx="7.4999809"
         sodipodi:cy="11.31262"
         sodipodi:cx="-36.934963"
         sodipodi:type="arc"
         style="fill:none;stroke:#f6e849;stroke-width:1.00026;stroke-linecap:round;stroke-miterlimit:4;stroke-dasharray:none;stroke-opacity:1"
         id="path1005"
         d="m -31.631676,16.615908 a 7.4999809,7.4999809 0 0 1 -8.59447,1.435987 7.4999809,7.4999809 0 0 1 -4.151966,-7.66082 7.4999809,7.4999809 0 0 1 5.894945,-6.4169 7.4999809,7.4999809 0 0 1 7.984741,3.4886792" />
      <rect
         style="opacity:1;fill:#f6e849;fill-opacity:1;stroke-width:0.912871;stroke-linecap:round;stroke-miterlimit:4;stroke-dasharray:none"
         id="rect1007"
         width="5"
         height="1"
         x="-33.684391"
         y="11.103754"
         ry="0.5"
         transform="rotate(7.8703413)" />
      <rect
         style="opacity:1;fill:#f6e849;fill-opacity:1;stroke-width:0.912871;stroke-linecap:round;stroke-miterlimit:4;stroke-dasharray:none"
         id="rect1009"
         width="5"
         height="1"
         x="7.103754"
         y="28.684389"
         ry="0.5"
         transform="rotate(97.870342)" />
    </g>
  </g>
</svg>
