<?xml version="1.0" encoding="UTF-8"?>
<!-- Created with Inkscape (http://www.inkscape.org/) -->
<svg id="svg" version="1.1" viewBox="0 0 22 22" xmlns="http://www.w3.org/2000/svg" xmlns:cc="http://creativecommons.org/ns#" xmlns:dc="http://purl.org/dc/elements/1.1/" xmlns:rdf="http://www.w3.org/1999/02/22-rdf-syntax-ns#" xmlns:xlink="http://www.w3.org/1999/xlink">
 <defs>
  <style id="current-color-scheme" type="text/css">.ColorScheme-Text {
        color:#7B7C7E;
      }
      .ColorScheme-Background{
        color:#EFF0F1;
      }
      .ColorScheme-Highlight{
        color:#3DAEE6;
      }
      .ColorScheme-ViewText {
        color:#7B7C7E;
      }
      .ColorScheme-ViewBackground{
        color:#FCFCFC;
      }
      .ColorScheme-ViewHover {
        color:#3DAEE6;
      }
      .ColorScheme-ViewFocus{
        color:#1E92FF;
      }
      .ColorScheme-ButtonText {
        color:#7B7C7E;
      }
      .ColorScheme-ButtonBackground{
        color:#EFF0F1;
      }
      .ColorScheme-ButtonHover {
        color:#3DAEE6;
      }
      .ColorScheme-ButtonFocus{
        color:#1E92FF;
      }</style>
  <style type="text/css">.ColorScheme-Text { color:#dedede; } .ColorScheme-Highlight { color:#5294e2; } .ColorScheme-ButtonBackground { color:#dedede; }</style>
  <style type="text/css"/>
  <style type="text/css">.ColorScheme-Text {
            color:#232629;
        }
        .ColorScheme-Background {
            color:#eff0f1;
        }
        .ColorScheme-ViewBackground {
            color:#fcfcfc;
        }
        .ColorScheme-ButtonFocus {
            color:#3daee9;
        }
        .ColorScheme-PositiveText {
            color:#27ae60;
        }
        .ColorScheme-NeutralText {
            color:#f67400;
        }
        .ColorScheme-NegativeText {
            color:#da4453;
        }</style>
 </defs>
 <metadata>
  <rdf:RDF>
   <cc:Work rdf:about="">
    <dc:format>image/svg+xml</dc:format>
    <dc:type rdf:resource="http://purl.org/dc/dcmitype/StillImage"/>
    <dc:title/>
   </cc:Work>
  </rdf:RDF>
 </metadata>
 <g id="video-display-brightness" transform="translate(-40)">
  <rect x="38" y="-34" width="32" height="32" fill-opacity="0"/>
  <g transform="translate(-10,-23)" fill="#fbfbfb">
   <path d="m53-5v17h22v-17zm1 1h20v14h-20z"/>
   <g transform="matrix(1 0 0 1.5 3 -6.9067)">
    <rect x="59" y="12.604" width="1" height="2"/>
    <rect x="62" y="12.604" width="1" height="2"/>
   </g>
   <rect x="58" y="15" width="12" height="1"/>
  </g>
  <g transform="translate(.5)" fill="#fbfbfb">
   <g transform="translate(-.5)">
    <path d="m55.23-22.733a3 3 0 0 1 0.26953 1.2334 3 3 0 0 1-3 3 3 3 0 0 1-1.2305-0.2666 3 3 0 0 0 2.7305 1.7666 3 3 0 0 0 3-3 3 3 0 0 0-1.7695-2.7334z"/>
    <path d="m54-23a3 3 0 0 0-3 3 3 3 0 0 0 3 3 3 3 0 0 0 3-3 3 3 0 0 0-3-3zm0 0.75a2.25 2.25 0 0 1 2.25 2.25 2.25 2.25 0 0 1-2.25 2.25 2.25 2.25 0 0 1-2.25-2.25 2.25 2.25 0 0 1 2.25-2.25z"/>
   </g>
   <rect x="53" y="-26" width="1" height="2" ry=".5"/>
   <rect x="53" y="-16" width="1" height="2" ry=".5"/>
   <rect transform="rotate(45)" x="23.188" y="-57.972" width="1" height="2" ry=".5"/>
   <rect transform="rotate(45)" x="23.188" y="-47.972" width="1" height="2" ry=".5"/>
   <rect transform="rotate(90)" x="-20.5" y="-59.5" width="1" height="2" ry=".5"/>
   <rect transform="rotate(90)" x="-20.5" y="-49.5" width="1" height="2" ry=".5"/>
   <rect transform="rotate(135)" x="-52.472" y="-29.688" width="1" height="2" ry=".5"/>
   <rect transform="rotate(135)" x="-52.472" y="-19.688" width="1" height="2" ry=".5"/>
  </g>
 </g>
 <g id="22-22-video-display-brightness" transform="translate(-40)">
  <rect x="40" width="22" height="22" fill-opacity="0"/>
  <path d="m43 4v12h16v-12zm1 1h14v9h-14z" fill="#fbfbfb"/>
  <g transform="translate(60)" fill="#fbfbfb">
   <rect x="-11" y="16" width="1" height="2"/>
   <rect x="-8" y="16" width="1" height="2"/>
  </g>
  <rect x="47" y="18" width="8" height="1" fill="#fbfbfb"/>
  <g transform="translate(.5)" fill="#fbfbfb">
   <circle cx="50.5" cy="9.5" r="1.5"/>
   <rect x="50" y="6" width="1" height="1" ry=".5"/>
   <rect x="50" y="12" width="1" height="1" ry=".5"/>
   <rect transform="rotate(45)" x="41.926" y="-32.491" width="1" height="1" ry=".5"/>
   <rect transform="rotate(45)" x="41.926" y="-26.491" width="1" height="1" ry=".5"/>
   <rect transform="rotate(90)" x="9" y="-54" width="1" height="1" ry=".5"/>
   <rect transform="rotate(90)" x="9" y="-48" width="1" height="1" ry=".5"/>
   <rect transform="rotate(-45)" x="28.491" y="38.926" width="1" height="1" ry=".5"/>
   <rect transform="rotate(-45)" x="28.491" y="44.926" width="1" height="1" ry=".5"/>
  </g>
 </g>
</svg>
