<?xml version="1.0" encoding="UTF-8" standalone="no"?>
<svg
   xmlns:dc="http://purl.org/dc/elements/1.1/"
   xmlns:cc="http://creativecommons.org/ns#"
   xmlns:rdf="http://www.w3.org/1999/02/22-rdf-syntax-ns#"
   xmlns:svg="http://www.w3.org/2000/svg"
   xmlns="http://www.w3.org/2000/svg"
   xmlns:sodipodi="http://sodipodi.sourceforge.net/DTD/sodipodi-0.dtd"
   xmlns:inkscape="http://www.inkscape.org/namespaces/inkscape"
   viewBox="0 0 34 34"
   version="1.1"
   id="svg6"
   sodipodi:docname="logo.svg"
   inkscape:version="1.0.2 (e86c870879, 2021-01-15, custom)"
   width="34"
   height="34">
  <metadata
     id="metadata10">
    <rdf:RDF>
      <cc:Work
         rdf:about="">
        <dc:format>image/svg+xml</dc:format>
        <dc:type
           rdf:resource="http://purl.org/dc/dcmitype/StillImage" />
        <dc:title></dc:title>
      </cc:Work>
    </rdf:RDF>
  </metadata>
  <sodipodi:namedview
     pagecolor="#ffffff"
     bordercolor="#666666"
     borderopacity="1"
     objecttolerance="10"
     gridtolerance="10"
     guidetolerance="10"
     inkscape:pageopacity="0"
     inkscape:pageshadow="2"
     inkscape:window-width="1920"
     inkscape:window-height="980"
     id="namedview8"
     showgrid="true"
     inkscape:zoom="16.25"
     inkscape:cx="6.9738898"
     inkscape:cy="14.244654"
     inkscape:window-x="0"
     inkscape:window-y="34"
     inkscape:window-maximized="1"
     inkscape:current-layer="svg6"
     inkscape:document-rotation="0"
     fit-margin-top="0"
     fit-margin-left="0"
     fit-margin-right="0"
     fit-margin-bottom="0">
    <inkscape:grid
       type="xygrid"
       id="grid835"
       originx="6"
       originy="6" />
  </sodipodi:namedview>
  <defs
     id="defs3051">
    <style
       type="text/css"
       id="current-color-scheme">
      .ColorScheme-Text {
        color:#282828;
      }
      </style>
  </defs>
  <rect
     style="opacity:1;fill:#ffffff;fill-opacity:0.00784314;stroke:none;stroke-width:0;stroke-linecap:round;stroke-linejoin:round;stroke-miterlimit:4;stroke-dasharray:none;stroke-opacity:1"
     id="rect837"
     width="34"
     height="34"
     x="0"
     y="0"
     inkscape:export-xdpi="1445.6471"
     inkscape:export-ydpi="1445.6471" />
  <path
     style="fill:#f9f9fb;fill-opacity:1;stroke:none"
     d="m 17,9 a 3.9999902,4.0000296 0 0 0 -4,4 3.9999902,4.0000296 0 0 0 4,4 3.9999902,4.0000296 0 0 0 4,-4 3.9999902,4.0000296 0 0 0 -4,-4 z m 0,1 a 3,3.0000296 0 0 1 3,3 3,3.0000296 0 0 1 -3,3 3,3.0000296 0 0 1 -3,-3 3,3.0000296 0 0 1 3,-3 z m 0,8 A 7.9999504,8.0000296 0 0 0 9.0722656,25 H 10.080078 A 6.9999604,7.0000296 0 0 1 17,19 a 6.9999604,7.0000296 0 0 1 6.921875,6 h 1.007813 A 7.9999504,8.0000296 0 0 0 17,18 Z"
     class="ColorScheme-Text"
     id="path4"
     inkscape:export-xdpi="1445.6471"
     inkscape:export-ydpi="1445.6471" />
  <circle
     style="opacity:1;fill:none;stroke:#f9f9fb;stroke-width:0.899997;stroke-linecap:round;stroke-linejoin:round;stroke-miterlimit:4;stroke-dasharray:none;stroke-opacity:1"
     id="path831"
     cx="17"
     cy="17.5"
     r="13.550001"
     inkscape:export-xdpi="1445.6471"
     inkscape:export-ydpi="1445.6471" />
</svg>
