<?xml version="1.0" encoding="UTF-8" standalone="no"?>
<svg
   width="220"
   height="85"
   version="1"
   id="svg8"
   sodipodi:docname="panel-background.svg"
   inkscape:version="1.3.2 (091e20ef0f, 2023-11-25, custom)"
   xmlns:inkscape="http://www.inkscape.org/namespaces/inkscape"
   xmlns:sodipodi="http://sodipodi.sourceforge.net/DTD/sodipodi-0.dtd"
   xmlns="http://www.w3.org/2000/svg"
   xmlns:svg="http://www.w3.org/2000/svg">
  <defs
     id="defs8" />
  <sodipodi:namedview
     id="namedview8"
     pagecolor="#ffffff"
     bordercolor="#666666"
     borderopacity="1.0"
     inkscape:showpageshadow="2"
     inkscape:pageopacity="0.0"
     inkscape:pagecheckerboard="0"
     inkscape:deskcolor="#d1d1d1"
     inkscape:zoom="8.5909091"
     inkscape:cx="110"
     inkscape:cy="42.544974"
     inkscape:window-width="2560"
     inkscape:window-height="1510"
     inkscape:window-x="0"
     inkscape:window-y="50"
     inkscape:window-maximized="1"
     inkscape:current-layer="svg8" />
  <rect
     id="center"
     style="fill:#0d0d0d;fill-opacity:1"
     width="50"
     height="50"
     x="7"
     y="28" />
  <g
     id="topleft"
     transform="translate(-183,-231.00083)">
    <path
       style="fill:#0d0d0d;fill-opacity:1"
       d="m 190.00001,251.99982 v 7 h -7 v -2 c 0,-2.77 2.23,-5 5,-5 z"
       id="path1" />
  </g>
  <g
     id="left"
     transform="translate(-183,-231.00083)">
    <path
       style="fill:#0d0d0d;fill-opacity:1"
       d="m 183.00002,258.99981 v 50 l 7,10e-6 v -50 z"
       id="path2" />
  </g>
  <g
     id="right"
     transform="translate(-183,-231.00084)">
    <path
       style="fill:#0d0d0d;fill-opacity:1"
       d="m 247,258.99982 v 50 l -7,10e-6 v -50 z"
       id="path3" />
  </g>
  <g
     id="bottomleft"
     transform="translate(-183,-231.00092)">
    <path
       style="fill:#0d0d0d;fill-opacity:1"
       d="m 190.00001,315.99991 v -7 h -7 v 2 c 0,2.77 2.23,5 5,5 z"
       id="path4" />
  </g>
  <g
     id="bottom"
     transform="translate(-183,-231.00096)">
    <path
       style="fill:#0d0d0d;fill-opacity:1"
       d="M 189.99998,315.99995 H 240 v -7 h -50.00001 z"
       id="path5" />
  </g>
  <g
     id="bottomright"
     transform="translate(-183,-231.00092)">
    <path
       style="fill:#0d0d0d;fill-opacity:1"
       d="m 240,315.99991 v -7 h 7 v 2 c 0,2.77 -2.23,5 -5,5 z"
       id="path6" />
  </g>
  <g
     id="topright"
     transform="translate(-183,-231.00083)">
    <path
       style="fill:#0d0d0d;fill-opacity:1"
       d="m 240,251.99982 v 7 h 7 v -2 c 0,-2.77 -2.23,-5 -5,-5 z"
       id="path7" />
  </g>
  <g
     id="top"
     transform="translate(-183,-231.00083)">
    <path
       style="fill:#0d0d0d;fill-opacity:1"
       d="M 189.99998,251.99982 H 240 v 7 h -50.00001 z"
       id="path8" />
  </g>
  <rect
     id="mask-center"
     style="fill:#000000"
     width="50"
     height="50"
     x="75"
     y="28" />
  <path
     id="mask-topleft"
     style="fill:#000000"
     d="m 75,20.999865 v 7 h -7 v -2 c 0,-2.77 2.23,-5 5,-5 z" />
  <path
     id="mask-left"
     style="fill:#000000"
     d="m 68.00001,27.999855 v 50.00001 l 7,1e-5 v -50.00001 z" />
  <path
     id="mask-right"
     style="fill:#000000"
     d="m 131.99999,27.999865 v 50.00001 l -7,1e-5 v -50.00001 z" />
  <path
     id="mask-bottomleft"
     style="fill:#000000"
     d="m 75,84.999965 v -7 h -7 v 2 c 0,2.77 2.23,5 5,5 z" />
  <path
     id="mask-bottom"
     style="fill:#000000"
     d="m 74.99997,85.000005 h 50.00002 v -7 H 74.99998 Z" />
  <path
     id="mask-bottomright"
     style="fill:#000000"
     d="m 124.99999,84.999965 v -7 h 7 v 2 c 0,2.77 -2.23,5 -5,5 z" />
  <path
     id="mask-topright"
     style="fill:#000000"
     d="m 124.99999,20.999865 v 7 h 7 v -2 c 0,-2.77 -2.23,-5 -5,-5 z" />
  <path
     id="mask-top"
     style="fill:#000000"
     d="m 74.99997,20.999865 h 50.00002 v 7 H 74.99998 Z" />
  <rect
     id="hint-tile-center"
     style="fill:#ff00ff"
     width="5"
     height="5"
     x="0"
     y="0" />
  <rect
     id="thick-hint-top-margin"
     style="fill:#ff00ff"
     width="4"
     height="8"
     x="29"
     y="21" />
  <rect
     id="thick-hint-bottom-margin"
     style="fill:#ff00ff"
     width="4"
     height="8"
     x="29"
     y="77" />
  <rect
     id="thick-hint-right-margin"
     style="fill:#ff00ff"
     width="4"
     height="8"
     x="51"
     y="-64"
     transform="rotate(90)" />
  <rect
     id="thick-hint-left-margin"
     style="fill:#ff00ff"
     width="4"
     height="8"
     x="51"
     y="-8"
     transform="rotate(90)" />
  <rect
     id="thick-center"
     style="fill:#800080"
     width="2"
     height="2"
     x="5"
     y="0" />
  <rect
     id="hint-top-margin"
     style="fill:#800080"
     width="4"
     height="4"
     x="29"
     y="21" />
  <rect
     id="hint-bottom-margin"
     style="fill:#800080"
     width="4"
     height="4"
     x="29"
     y="81" />
  <rect
     id="hint-left-margin"
     style="fill:#800080"
     width="4"
     height="4"
     x="0"
     y="51" />
  <rect
     id="hint-right-margin"
     style="fill:#800080"
     width="4"
     height="4"
     x="60"
     y="51" />
</svg>
