<?xml version="1.0" encoding="UTF-8" standalone="no"?>
<svg
   width="88"
   height="24"
   version="1"
   id="svg18"
   sodipodi:docname="lineedit.svg"
   inkscape:version="1.3.2 (091e20ef0f, 2023-11-25, custom)"
   xmlns:inkscape="http://www.inkscape.org/namespaces/inkscape"
   xmlns:sodipodi="http://sodipodi.sourceforge.net/DTD/sodipodi-0.dtd"
   xmlns="http://www.w3.org/2000/svg"
   xmlns:svg="http://www.w3.org/2000/svg">
  <defs
     id="defs18" />
  <sodipodi:namedview
     id="namedview18"
     pagecolor="#ffffff"
     bordercolor="#666666"
     borderopacity="1.0"
     inkscape:showpageshadow="2"
     inkscape:pageopacity="0.0"
     inkscape:pagecheckerboard="0"
     inkscape:deskcolor="#d1d1d1"
     inkscape:zoom="21.477273"
     inkscape:cx="75.195766"
     inkscape:cy="15.760846"
     inkscape:window-width="2560"
     inkscape:window-height="1510"
     inkscape:window-x="0"
     inkscape:window-y="50"
     inkscape:window-maximized="1"
     inkscape:current-layer="svg18" />
  <rect
     id="base-center"
     style="opacity:0.04;fill:#ffffff"
     width="8"
     height="8"
     x="8"
     y="8" />
  <rect
     id="base-top"
     style="opacity:0.04;fill:#ffffff"
     width="8"
     height="8"
     x="8"
     y="0" />
  <rect
     id="base-topright"
     style="opacity:0.04;fill:#ffffff"
     width="8"
     height="8"
     x="16"
     y="0"
     inkscape:label="base-topright" />
  <rect
     id="base-topleft"
     style="opacity:0.04;fill:#ffffff"
     width="8"
     height="8"
     x="0"
     y="0"
     inkscape:label="base-topleft" />
  <rect
     id="base-left"
     style="opacity:0.04;fill:#ffffff"
     width="8"
     height="8"
     x="0"
     y="8" />
  <rect
     id="base-right"
     style="opacity:0.04;fill:#ffffff"
     width="8"
     height="8"
     x="16"
     y="8" />
  <g
     id="base-bottom"
     transform="matrix(0.24998451,0,0,3.9999487,-95.994058,-423.99427)">
    <path
       style="opacity:0.04;fill:#ffffff"
       transform="matrix(16,0,0,1,-5936,5)"
       d="m 397,105 v 1.75 h 2 V 105 Z"
       id="path1" />
    <path
       style="opacity:0.26;fill:#ffffff"
       d="m 416,112 h 32 v -0.25 h -32 z"
       id="path2" />
  </g>
  <g
     id="base-bottomright"
     transform="matrix(3.9997555,0,0,3.9999487,-1579.9022,-403.99452)">
    <path
       style="opacity:0.04;fill:#ffffff"
       d="m 399,105 v 1.75 h 2 V 105 Z"
       id="path3" />
    <path
       style="opacity:0.26;fill:#ffffff"
       d="m 399,106.75 h 2 V 107 h -2 z"
       id="path4" />
  </g>
  <g
     id="base-bottomleft"
     transform="matrix(3.9997555,0,0,3.9999487,-1579.9022,-403.99452)">
    <path
       style="opacity:0.04;fill:#ffffff"
       d="m 395,105 v 1.75 h 2 V 105 Z"
       id="path5" />
    <path
       style="opacity:0.26;fill:#ffffff"
       d="m 395,106.75 h 2 V 107 h -2 z"
       id="path6" />
  </g>
  <rect
     id="hover-center"
     style="opacity:0.001;fill:none"
     width="8"
     height="8"
     x="40"
     y="8" />
  <rect
     id="hover-top"
     style="opacity:0.00100002"
     width="8"
     height="8"
     x="40.046562"
     y="0.046560846" />
  <rect
     id="hover-topright"
     style="opacity:0.00100002"
     width="8"
     height="8"
     x="47.999001"
     y="0"
     inkscape:label="hover-topright" />
  <rect
     id="hover-topleft"
     style="opacity:0.00100002"
     width="8"
     height="8"
     x="32"
     y="0"
     inkscape:label="hover-topleft" />
  <rect
     id="hover-left"
     style="opacity:0.001"
     width="8"
     height="8"
     x="32"
     y="8" />
  <rect
     id="hover-right"
     style="opacity:0.001"
     width="8"
     height="8"
     x="48"
     y="8" />
  <g
     id="hover-bottom"
     transform="matrix(0.24999659,0,0,3.9999487,-63.999108,-423.99427)">
    <path
       style="opacity:0.001"
       transform="matrix(16,0,0,1,-5936,5)"
       d="m 397,105 v 2 h 2 v -2 z"
       id="path7" />
    <path
       style="fill:#6e95bd"
       d="m 416,112 h 32 v -0.5 h -32 z"
       id="path8" />
  </g>
  <g
     id="hover-bottomright"
     transform="matrix(3.9999487,0,0,3.9999487,-1547.979,-403.99452)">
    <path
       style="opacity:0.001"
       d="m 399,105 v 2 h 2 v -2 z"
       id="path9" />
    <path
       style="fill:#6e95bd"
       d="m 399,106.5 h 0.49987 V 107 H 399 Z"
       id="path10" />
  </g>
  <g
     id="hover-bottomleft"
     transform="matrix(3.9999487,0,0,3.9999487,-1547.979,-403.99452)">
    <path
       style="opacity:0.001"
       d="m 395,105 v 2 h 2 v -2 z"
       id="path11" />
    <path
       style="fill:#6e95bd"
       d="M 396.49984,106.5 H 397 v 0.5 h -0.50016 z"
       id="path12" />
  </g>
  <rect
     id="focus-center"
     style="opacity:0.001"
     width="8"
     height="8"
     x="72"
     y="8" />
  <rect
     id="focus-top"
     style="opacity:0.001"
     width="8"
     height="8"
     x="72"
     y="0" />
  <rect
     id="focus-topleft"
     style="opacity:0.00100002"
     width="8"
     height="8"
     x="63.999001"
     y="0"
     inkscape:label="focus-topleft" />
  <rect
     id="focus-topright"
     style="opacity:0.00100002"
     width="8"
     height="8"
     x="79.999001"
     y="0"
     inkscape:label="focus-topright" />
  <rect
     id="focus-left"
     style="opacity:0.001"
     width="8"
     height="8"
     x="64"
     y="8" />
  <rect
     id="focus-right"
     style="opacity:0.001"
     width="8"
     height="8"
     x="80"
     y="8" />
  <g
     id="focus-bottom"
     transform="matrix(0.24999659,0,0,3.9999487,-31.999518,-423.99427)">
    <path
       style="opacity:0.001"
       transform="matrix(16,0,0,1,-5936,5)"
       d="m 397,105 v 2 h 2 v -2 z"
       id="path13" />
    <path
       style="fill:#6e95bd"
       d="m 416,112 h 32 v -0.5 h -32 z"
       id="path14" />
  </g>
  <g
     id="focus-bottomright"
     transform="matrix(3.9999487,0,0,3.9999487,-1515.9794,-403.99452)">
    <path
       style="opacity:0.001"
       d="m 399,105 v 2 h 2 v -2 z"
       id="path15" />
    <path
       style="fill:#6e95bd"
       d="m 399,106.5 h 0.49998 V 107 H 399 Z"
       id="path16" />
  </g>
  <g
     id="focus-bottomleft"
     transform="matrix(3.9999487,0,0,3.9999487,-1515.9794,-403.99452)">
    <path
       style="opacity:0.001"
       d="m 395,105 v 2 h 2 v -2 z"
       id="path17" />
    <path
       style="fill:#6e95bd"
       d="M 396.49994,106.5 H 397 v 0.5 h -0.50006 z"
       id="path18" />
  </g>
  <rect
     id="hover-hint-bottom-margin"
     style="fill:#ff00ff"
     width="2"
     height=".1"
     x="43"
     y="23.9" />
  <rect
     id="hover-hint-top-margin"
     style="fill:#ff00ff"
     width="2"
     height="6"
     x="43"
     y="0" />
  <rect
     id="hover-hint-left-margin"
     style="fill:#ff00ff"
     width="2"
     height="6"
     x="-13"
     y="32"
     transform="rotate(-90)" />
  <rect
     id="hover-hint-right-margin"
     style="fill:#ff00ff"
     width="2"
     height="6"
     x="-13"
     y="50"
     transform="rotate(-90)" />
  <rect
     id="focus-hint-bottom-margin"
     style="fill:#ff00ff"
     width="2"
     height=".1"
     x="75"
     y="23.9"
     inkscape:label="focus-hint-bottom-margin" />
  <rect
     id="focus-hint-top-margin"
     style="fill:#ff00ff"
     width="2"
     height="6"
     x="75"
     y="0" />
  <rect
     id="focus-hint-left-margin"
     style="fill:#ff00ff"
     width="2"
     height="6"
     x="-13"
     y="64"
     transform="rotate(-90)" />
  <rect
     id="focus-hint-right-margin"
     style="fill:#ff00ff"
     width="2"
     height="6"
     x="-13"
     y="82"
     transform="rotate(-90)" />
  <rect
     id="base-hint-top-margin"
     style="fill:#ff00ff"
     width="2"
     height="6"
     x="11"
     y="0" />
  <rect
     id="base-hint-right-margin"
     style="fill:#ff00ff"
     width="2"
     height="6"
     x="-13"
     y="18"
     transform="rotate(-90)" />
  <rect
     id="base-hint-left-margin"
     style="fill:#ff00ff"
     width="2"
     height="6"
     x="-13"
     y="0"
     transform="rotate(-90)" />
  <rect
     id="base-hint-bottom-margin"
     style="fill:#ff00ff"
     width="2"
     height="6"
     x="11"
     y="18" />
</svg>
