<?xml version="1.0" encoding="UTF-8" standalone="no"?>
<svg
   xmlns:dc="http://purl.org/dc/elements/1.1/"
   xmlns:cc="http://creativecommons.org/ns#"
   xmlns:rdf="http://www.w3.org/1999/02/22-rdf-syntax-ns#"
   xmlns:svg="http://www.w3.org/2000/svg"
   xmlns="http://www.w3.org/2000/svg"
   xmlns:sodipodi="http://sodipodi.sourceforge.net/DTD/sodipodi-0.dtd"
   xmlns:inkscape="http://www.inkscape.org/namespaces/inkscape"
   id="svg"
   inkscape:version="0.92.4 5da689c313, 2019-01-14"
   sodipodi:docname="device.svg"
   version="1.1"
   viewBox="0 0 22 22">
  <metadata
     id="metadata28">
    <rdf:RDF>
      <cc:Work
         rdf:about="">
        <dc:format>image/svg+xml</dc:format>
        <dc:type
           rdf:resource="http://purl.org/dc/dcmitype/StillImage" />
        <dc:title></dc:title>
      </cc:Work>
    </rdf:RDF>
  </metadata>
  <sodipodi:namedview
     id="namedview33"
     bordercolor="#666666"
     borderopacity="1"
     gridtolerance="10"
     guidetolerance="10"
     inkscape:bbox-nodes="true"
     inkscape:current-layer="svg"
     inkscape:cx="6.4964198"
     inkscape:cy="6.8830685"
     inkscape:object-nodes="true"
     inkscape:object-paths="true"
     inkscape:pageopacity="0"
     inkscape:pageshadow="2"
     inkscape:snap-bbox="true"
     inkscape:snap-bbox-edge-midpoints="true"
     inkscape:snap-intersection-paths="true"
     inkscape:snap-midpoints="true"
     inkscape:snap-nodes="true"
     inkscape:snap-smooth-nodes="true"
     inkscape:window-height="1007"
     inkscape:window-maximized="1"
     inkscape:window-width="1920"
     inkscape:window-x="0"
     inkscape:window-y="0"
     inkscape:zoom="10.727273"
     objecttolerance="10"
     pagecolor="#c8c8c8"
     showgrid="true"
     showguides="false">
    <inkscape:grid
       id="grid842"
       type="xygrid" />
  </sodipodi:namedview>
  <defs
     id="defs3">
    <style
       id="current-color-scheme"
       type="text/css">.ColorScheme-Text { color:#dedede; } .ColorScheme-Highlight { color:#5294e2; } .ColorScheme-ButtonBackground { color:#dedede; }</style>
  </defs>
  <g
     id="22-22-device-notifier">
    <rect
       y="1.2617187e-05"
       x="9.9999997e-06"
       height="21.999985"
       width="21.999985"
       id="rect4157"
       style="opacity:0.2;fill:none;fill-opacity:1;stroke:none" />
    <g
       transform="translate(-20,1)"
       id="g931">
      <rect
         style="opacity:1;fill:#fbfbfb;fill-opacity:1;stroke:none;stroke-width:2;stroke-miterlimit:4;stroke-dasharray:none;stroke-opacity:1"
         id="rect845"
         width="1"
         height="1"
         x="29"
         y="4" />
      <rect
         style="opacity:1;fill:#fbfbfb;fill-opacity:1;stroke:none;stroke-width:2;stroke-miterlimit:4;stroke-dasharray:none;stroke-opacity:1"
         id="rect847"
         width="1"
         height="1"
         x="31"
         y="4" />
      <rect
         style="opacity:1;fill:#fbfbfb;fill-opacity:1;stroke:none;stroke-width:3.05505037;stroke-miterlimit:4;stroke-dasharray:none;stroke-opacity:1"
         id="rect849"
         width="7"
         height="1"
         x="10.606602"
         y="36.476658"
         transform="rotate(-45)" />
      <rect
         y="-11.606602"
         x="34.476658"
         height="1"
         width="3"
         id="rect851"
         style="opacity:1;fill:#fbfbfb;fill-opacity:1;stroke:none;stroke-width:2;stroke-miterlimit:4;stroke-dasharray:none;stroke-opacity:1"
         transform="rotate(45)" />
      <path
         style="opacity:1;fill:#fbfbfb;fill-opacity:1;stroke:none;stroke-width:1.89736664;stroke-miterlimit:4;stroke-dasharray:none;stroke-opacity:1"
         d="m 26,6 v 13 h 7.292969 L 32.939453,18.646484 32.585938,18.292969 32.292969,18 H 27 V 7 h 7 v 9.878906 l 1,-1 V 6 Z"
         id="rect903"
         inkscape:connector-curvature="0"
         sodipodi:nodetypes="ccccccccccccc" />
      <path
         inkscape:connector-curvature="0"
         style="opacity:1;fill:#fbfbfb;fill-opacity:1;stroke:none;stroke-width:1;stroke-miterlimit:4;stroke-dasharray:none;stroke-opacity:1"
         d="m 27,2 v 5 h 7 V 2 Z m 1,1 h 5 v 3 h -5 z"
         id="rect908" />
    </g>
  </g>
  <g
     id="device-notifier">
    <rect
       y="-35.999996"
       x="0"
       height="31.999985"
       width="31.999985"
       id="rect4151"
       style="opacity:0.2;fill:none;fill-opacity:1;stroke:none" />
    <g
       transform="translate(-18.000008)"
       id="g967">
      <path
         inkscape:connector-curvature="0"
         style="opacity:1;fill:#fbfbfb;fill-opacity:1;stroke:none;stroke-width:3.07846117;stroke-miterlimit:4;stroke-dasharray:none;stroke-opacity:1"
         d="m 28,-28 c -0.554,0 -1,0.446 -1,1 v 20 c 0,0.554 0.446,1 1,1 h 12 c 0.554,0 1,-0.446 1,-1 v -20 c 0,-0.554 -0.446,-1 -1,-1 z m 0,1 H 40 V -7 H 28 Z"
         id="rect840" />
      <path
         inkscape:connector-curvature="0"
         style="opacity:1;fill:#fbfbfb;fill-opacity:1;stroke:none;stroke-width:1.46759868;stroke-miterlimit:4;stroke-dasharray:none;stroke-opacity:1"
         d="m 30,-34 c -0.554,0 -1,0.446 -1,1 v 5 c 0,0.554 0.446,1 1,1 h 8 c 0.554,0 1,-0.446 1,-1 v -5 c 0,-0.554 -0.446,-1 -1,-1 z m 0,1 h 8 v 5 h -8 z"
         id="rect951" />
      <rect
         style="opacity:1;fill:#fbfbfb;fill-opacity:1;stroke:none;stroke-width:1;stroke-miterlimit:4;stroke-dasharray:none;stroke-opacity:1"
         id="rect959"
         width="2"
         height="2"
         x="31"
         y="-32" />
      <rect
         y="-32"
         x="35"
         height="2"
         width="2"
         id="rect961"
         style="opacity:1;fill:#fbfbfb;fill-opacity:1;stroke:none;stroke-width:1;stroke-miterlimit:4;stroke-dasharray:none;stroke-opacity:1" />
    </g>
  </g>
  <g
     id="16-16-device-notifier">
    <rect
       style="opacity:0.2;fill:none;fill-opacity:1;stroke:none"
       id="rect4182"
       width="15.999985"
       height="15.999985"
       x="0"
       y="26.000002" />
    <g
       transform="translate(-7.6293945e-6)"
       id="g999">
      <path
         inkscape:connector-curvature="0"
         style="opacity:1;fill:#fbfbfb;fill-opacity:1;stroke:none;stroke-width:1.28900659;stroke-miterlimit:4;stroke-dasharray:none;stroke-opacity:1"
         d="m 5,31 v 9 h 6 v -9 z m 1,1 h 4 v 7.076172 H 6 Z"
         id="rect945" />
      <path
         style="opacity:1;fill:#fbfbfb;fill-opacity:1;stroke:none;stroke-width:0.70164645;stroke-miterlimit:4;stroke-dasharray:none;stroke-opacity:1"
         d="M 6 29 L 6 32 L 10 32 L 10 29 L 6 29 z M 7 30 L 9 30 L 9 31 L 7 31 L 7 30 z "
         transform="translate(7.6293945e-6)"
         id="rect979" />
    </g>
  </g>
</svg>
