<?xml version="1.0" encoding="UTF-8" standalone="no"?>
<svg
   xmlns:dc="http://purl.org/dc/elements/1.1/"
   xmlns:cc="http://creativecommons.org/ns#"
   xmlns:rdf="http://www.w3.org/1999/02/22-rdf-syntax-ns#"
   xmlns:svg="http://www.w3.org/2000/svg"
   xmlns="http://www.w3.org/2000/svg"
   xmlns:sodipodi="http://sodipodi.sourceforge.net/DTD/sodipodi-0.dtd"
   xmlns:inkscape="http://www.inkscape.org/namespaces/inkscape"
   id="svg"
   inkscape:version="0.92.4 5da689c313, 2019-01-14"
   sodipodi:docname="configure.svg"
   version="1.1"
   viewBox="0 0 32 32"
   width="32"
   height="32">
  <metadata
     id="metadata15">
    <rdf:RDF>
      <cc:Work
         rdf:about="">
        <dc:format>image/svg+xml</dc:format>
        <dc:type
           rdf:resource="http://purl.org/dc/dcmitype/StillImage" />
        <dc:title />
      </cc:Work>
    </rdf:RDF>
  </metadata>
  <sodipodi:namedview
     id="namedview20"
     bordercolor="#666666"
     borderopacity="1"
     gridtolerance="10"
     guidetolerance="10"
     inkscape:current-layer="svg"
     inkscape:cx="0.34891132"
     inkscape:cy="39.698645"
     inkscape:pageopacity="0"
     inkscape:pageshadow="2"
     inkscape:window-height="1007"
     inkscape:window-maximized="1"
     inkscape:window-width="1920"
     inkscape:window-x="0"
     inkscape:window-y="0"
     inkscape:zoom="3.7926636"
     objecttolerance="10"
     pagecolor="#c8c8c8"
     showgrid="false" />
  <defs
     id="defs3">
    <style
       id="current-color-scheme"
       type="text/css">.ColorScheme-Text { color:#dedede; } .ColorScheme-Highlight { color:#5294e2; } .ColorScheme-ButtonBackground { color:#dedede; }</style>
  </defs>
  <g
     transform="translate(-22,10)"
     id="22-22-configure">
    <path
       style="color:#dedede;fill:#fbfbfb;fill-opacity:1"
       inkscape:connector-curvature="0"
       class="ColorScheme-Text"
       d="m 16.96464,11.28291 q 0,-0.0707 0.004,-0.14146 0.004,-0.0707 0.004,-0.14145 0,-0.0707 -0.004,-0.14145 -0.004,-0.0707 -0.004,-0.14146 L 19,9.45187 17.75049,6.44204 15.4165,6.97642 Q 15.2279,6.7721 15.02358,6.5835 L 15.55796,4.24951 12.54813,3 11.28291,5.03536 q -0.0707,0 -0.14146,-0.004 -0.0707,-0.004 -0.14145,-0.004 -0.0707,0 -0.14145,0.004 -0.0707,0.004 -0.14146,0.004 L 9.45187,3 6.44204,4.24951 6.97642,6.5835 Q 6.7721,6.7721 6.5835,6.97642 L 4.24951,6.44204 3,9.45187 5.03536,10.71709 q 0,0.0707 -0.004,0.14146 -0.004,0.0707 -0.004,0.14145 0,0.0707 0.004,0.14145 0.004,0.0707 0.004,0.14146 L 3,12.54813 4.24951,15.55796 6.5835,15.02358 Q 6.7721,15.2279 6.97642,15.4165 L 6.44204,17.75049 9.45187,19 10.71709,16.96464 q 0.0707,0 0.14146,0.004 0.0707,0.004 0.14145,0.004 0.0707,0 0.14145,-0.004 0.0707,-0.004 0.14146,-0.004 L 12.54813,19 15.55796,17.75049 15.02358,15.4165 Q 15.2279,15.2279 15.4165,15.02358 L 17.75049,15.55796 19,12.54813 Z M 16.04519,10.2613 q 0.0157,0.1886 0.0314,0.37328 0.0157,0.18467 0.0157,0.37328 0,0.18075 -0.0157,0.36935 -0.0157,0.18861 -0.0314,0.36935 l 1.85461,1.15521 -0.67583,1.63458 -2.12967,-0.49509 q -0.24361,0.29862 -0.49902,0.5501 -0.2554,0.25147 -0.55402,0.50294 l 0.49509,2.12967 -1.63458,0.67583 -1.16307,-1.85461 q -0.18074,0.0157 -0.36935,0.0314 -0.1886,0.0157 -0.36935,0.0157 -0.18861,0 -0.37328,-0.0157 -0.18468,-0.0157 -0.37328,-0.0314 L 9.09823,17.8998 7.46365,17.22397 7.95874,15.0943 Q 7.66012,14.85069 7.40864,14.59529 7.15717,14.33988 6.9057,14.04126 L 4.77603,14.53635 4.1002,12.90177 5.95481,11.7387 q -0.0157,-0.1886 -0.0314,-0.37328 -0.0157,-0.18467 -0.0157,-0.37328 0,-0.18075 0.0157,-0.36935 0.0157,-0.18861 0.0314,-0.36935 L 4.1002,9.09823 4.77603,7.46365 6.9057,7.95874 Q 7.14931,7.66012 7.40472,7.40864 7.66012,7.15717 7.95874,6.9057 L 7.46365,4.77603 9.09823,4.1002 10.2613,5.95481 q 0.18074,-0.0157 0.36935,-0.0314 0.1886,-0.0157 0.36935,-0.0157 0.18861,0 0.37328,0.0157 0.18468,0.0157 0.37328,0.0314 L 12.90177,4.1002 14.53635,4.77603 14.04126,6.9057 q 0.29862,0.24361 0.5501,0.49902 0.25147,0.2554 0.50294,0.55402 L 17.22397,7.46365 17.8998,9.09823 Z M 11,13.95481 q 0.61297,0 1.15128,-0.23182 0.53831,-0.23183 0.93909,-0.63262 0.40079,-0.40078 0.63262,-0.93909 0.23182,-0.53831 0.23182,-1.15128 0,-0.61297 -0.23182,-1.15128 Q 13.49116,9.31041 13.09037,8.90963 12.68959,8.50884 12.15128,8.27701 11.61297,8.04519 11,8.04519 q -0.61297,0 -1.15128,0.23182 Q 9.31041,8.50884 8.90963,8.90963 8.50884,9.31041 8.27701,9.84872 8.04519,10.38703 8.04519,11 q 0,0.61297 0.23182,1.15128 0.23183,0.53831 0.63262,0.93909 0.40078,0.40079 0.93909,0.63262 0.53831,0.23182 1.15128,0.23182 z m 0,-5.02947 q 0.43222,0 0.80943,0.1611 0.37721,0.1611 0.66012,0.44401 0.28291,0.28291 0.44401,0.66012 0.1611,0.37721 0.1611,0.80943 0,0.43222 -0.1611,0.80943 -0.1611,0.37721 -0.44401,0.66012 -0.28291,0.28291 -0.66012,0.44401 -0.37721,0.1611 -0.80943,0.1611 -0.43222,0 -0.80943,-0.1611 Q 9.81336,12.75246 9.53045,12.46955 9.24754,12.18664 9.08644,11.80943 8.92534,11.43222 8.92534,11 q 0,-0.43222 0.1611,-0.80943 Q 9.24754,9.81336 9.53045,9.53045 9.81336,9.24754 10.19057,9.08644 10.56778,8.92534 11,8.92534 Z"
       id="path7" />
    <path
       style="fill:none"
       inkscape:connector-curvature="0"
       d="M 0,0 V 22 H 22 V 0 Z"
       id="path9" />
  </g>
  <g
     id="configure">
    <path
       style="color:#dedede;fill:#fbfbfb;stroke-width:1.49998999;fill-opacity:1"
       inkscape:connector-curvature="0"
       class="ColorScheme-Text"
       d="m 24.94696,16.424365 q 0,-0.10605 0.006,-0.21219 0.006,-0.10605 0.006,-0.212175 0,-0.10605 -0.006,-0.212175 -0.006,-0.10605 -0.006,-0.21219 L 28,13.677805 26.125735,9.16306 22.62475,9.96463 Q 22.34185,9.65815 22.03537,9.37525 L 22.83694,5.874265 18.322195,4 16.424365,7.05304 q -0.10605,0 -0.21219,-0.006 -0.10605,-0.006 -0.212175,-0.006 -0.10605,0 -0.212175,0.006 -0.10605,0.006 -0.21219,0.006 L 13.677805,4 9.16306,5.874265 9.96463,9.37525 Q 9.65815,9.65815 9.37525,9.96463 L 5.874265,9.16306 4,13.677805 l 3.05304,1.89783 q 0,0.10605 -0.006,0.21219 -0.006,0.10605 -0.006,0.212175 0,0.10605 0.006,0.212175 0.006,0.10605 0.006,0.21219 L 4,18.322195 5.874265,22.83694 9.37525,22.03537 q 0.2829,0.30648 0.58938,0.58938 L 9.16306,26.125735 13.677805,28 l 1.89783,-3.05304 q 0.10605,0 0.21219,0.006 0.10605,0.006 0.212175,0.006 0.10605,0 0.212175,-0.006 0.10605,-0.006 0.21219,-0.006 L 18.322195,28 22.83694,26.125735 22.03537,22.62475 q 0.30648,-0.2829 0.58938,-0.58938 L 26.125735,22.83694 28,18.322195 Z M 23.567785,14.89195 q 0.02355,0.2829 0.0471,0.55992 0.02355,0.277005 0.02355,0.55992 0,0.271125 -0.02355,0.554025 -0.02355,0.282915 -0.0471,0.554025 l 2.781915,1.732815 -1.013745,2.45187 -3.194505,-0.742635 q -0.365415,0.44793 -0.74853,0.82515 -0.3831,0.377205 -0.83103,0.75441 l 0.742635,3.194505 -2.45187,1.013745 -1.744605,-2.781915 q -0.27111,0.02355 -0.554025,0.0471 -0.2829,0.02355 -0.554025,0.02355 -0.282915,0 -0.55992,-0.02355 -0.27702,-0.02355 -0.55992,-0.0471 L 13.147345,26.3497 10.695475,25.335955 11.43811,22.14145 Q 10.99018,21.776035 10.61296,21.392935 10.235755,21.00982 9.85855,20.56189 L 6.664045,21.304525 5.6503,18.852655 8.432215,17.10805 q -0.02355,-0.2829 -0.0471,-0.55992 -0.02355,-0.277005 -0.02355,-0.55992 0,-0.271125 0.02355,-0.554025 0.02355,-0.282915 0.0471,-0.554025 L 5.6503,13.147345 6.664045,10.695475 9.85855,11.43811 q 0.365415,-0.44793 0.74853,-0.82515 0.3831,-0.377205 0.83103,-0.75441 L 10.695475,6.664045 13.147345,5.6503 14.89195,8.432215 q 0.27111,-0.02355 0.554025,-0.0471 0.2829,-0.02355 0.554025,-0.02355 0.282915,0 0.55992,0.02355 0.27702,0.02355 0.55992,0.0471 L 18.852655,5.6503 21.304525,6.664045 20.56189,9.85855 q 0.44793,0.365415 0.82515,0.74853 0.377205,0.3831 0.75441,0.83103 l 3.194505,-0.742635 1.013745,2.45187 z M 16,20.432215 q 0.919455,0 1.72692,-0.34773 0.807465,-0.347745 1.408635,-0.94893 0.601185,-0.60117 0.94893,-1.408635 0.34773,-0.807465 0.34773,-1.72692 0,-0.919455 -0.34773,-1.72692 -0.347745,-0.807465 -0.94893,-1.408635 -0.60117,-0.601185 -1.408635,-0.94893 -0.807465,-0.34773 -1.72692,-0.34773 -0.919455,0 -1.72692,0.34773 -0.807465,0.347745 -1.408635,0.94893 -0.601185,0.60117 -0.94893,1.408635 -0.34773,0.807465 -0.34773,1.72692 0,0.919455 0.34773,1.72692 0.347745,0.807465 0.94893,1.408635 0.60117,0.601185 1.408635,0.94893 0.807465,0.34773 1.72692,0.34773 z m 0,-7.544205 q 0.64833,0 1.214145,0.24165 0.565815,0.24165 0.99018,0.666015 0.424365,0.424365 0.666015,0.99018 0.24165,0.565815 0.24165,1.214145 0,0.64833 -0.24165,1.214145 -0.24165,0.565815 -0.666015,0.99018 Q 17.77996,18.62869 17.214145,18.87034 16.64833,19.11199 16,19.11199 q -0.64833,0 -1.214145,-0.24165 Q 14.22004,18.62869 13.795675,18.204325 13.37131,17.77996 13.12966,17.214145 12.88801,16.64833 12.88801,16 q 0,-0.64833 0.24165,-1.214145 0.24165,-0.565815 0.666015,-0.99018 Q 14.22004,13.37131 14.785855,13.12966 15.35167,12.88801 16,12.88801 Z"
       id="path11" />
    <path
       style="fill:none"
       inkscape:connector-curvature="0"
       d="M 0,0 V 32 H 32 V 0 Z"
       id="path14-6" />
  </g>
  <g
     id="16-16-configure"
     transform="translate(-38,16)">
    <path
       style="fill:none;stroke-width:0.72727299"
       inkscape:connector-curvature="0"
       d="M 0,0 V 16 H 16 V 0 Z"
       id="path9-7" />
    <path
       style="color:#dedede;fill:#fbfbfb;stroke-width:0.99998403;fill-opacity:1"
       inkscape:connector-curvature="0"
       class="ColorScheme-Text"
       d="m 13.964203,8.28291 q 0,-0.0707 0.004,-0.14146 0.004,-0.0707 0.004,-0.14145 0,-0.0707 -0.004,-0.14145 -0.004,-0.0707 -0.004,-0.14146 L 15.9995,6.45187 14.750029,3.44204 12.416112,3.97642 Q 12.227518,3.7721 12.023204,3.5835 L 12.557567,1.24951 9.547831,0 8.282651,2.03536 q -0.0707,0 -0.141456,-0.004 -0.0707,-0.004 -0.141445,-0.004 -0.0707,0 -0.141446,0.004 -0.0707,0.004 -0.141455,0.004 L 6.451668,0 3.441932,1.24951 3.976296,3.5835 Q 3.771982,3.7721 3.583388,3.97642 L 1.249471,3.44204 0,6.45187 2.035296,7.71709 q 0,0.0707 -0.004,0.14146 -0.004,0.0707 -0.004,0.14145 0,0.0707 0.004,0.14145 0.004,0.0707 0.004,0.14146 L 0,9.54813 1.249471,12.55796 3.583388,12.02358 Q 3.771982,12.2279 3.976296,12.4165 L 3.441932,14.75049 6.451668,16 7.716849,13.96464 q 0.0707,0 0.141455,0.004 0.0707,0.004 0.141446,0.004 0.0707,0 0.141445,-0.004 0.0707,-0.004 0.141456,-0.004 L 9.547831,16 12.557567,14.75049 12.023204,12.4165 q 0.204314,-0.1886 0.392908,-0.39292 L 14.750029,12.55796 15.9995,9.54813 Z M 13.044782,7.2613 q 0.0157,0.1886 0.0314,0.37328 0.0157,0.18467 0.0157,0.37328 0,0.18075 -0.0157,0.36935 -0.0157,0.18861 -0.0314,0.36935 l 1.854552,1.15521 -0.675809,1.63458 -2.129603,-0.49509 q -0.243602,0.29862 -0.499005,0.5501 -0.255392,0.25147 -0.554002,0.50294 L 11.535989,14.22397 9.90146,14.8998 8.738427,13.04519 q -0.180735,0.0157 -0.369339,0.0314 -0.188594,0.0157 -0.369338,0.0157 -0.188604,0 -0.373268,-0.0157 -0.184675,-0.0157 -0.373269,-0.0314 L 6.098039,14.8998 4.46351,14.22397 4.958585,12.0943 Q 4.659974,11.85069 4.408502,11.59529 4.15704,11.33988 3.905578,11.04126 L 1.775974,11.53635 1.100166,9.90177 2.954718,8.7387 q -0.0157,-0.1886 -0.0314,-0.37328 -0.0157,-0.18467 -0.0157,-0.37328 0,-0.18075 0.0157,-0.36935 0.0157,-0.18861 0.0314,-0.36935 L 1.100166,6.09823 1.775974,4.46365 3.905578,4.95874 Q 4.14918,4.66012 4.404582,4.40864 4.659974,4.15717 4.958585,3.9057 L 4.46351,1.77603 6.098039,1.1002 7.261073,2.95481 q 0.180734,-0.0157 0.369338,-0.0314 0.188595,-0.0157 0.369339,-0.0157 0.188604,0 0.373268,0.0157 0.184674,0.0157 0.373269,0.0314 L 9.90146,1.1002 11.535989,1.77603 11.040915,3.9057 q 0.29861,0.24361 0.550083,0.49902 0.251462,0.2554 0.502924,0.55402 l 2.129603,-0.49509 0.675809,1.63458 z M 7.99975,10.95481 q 0.612951,0 1.151244,-0.23182 0.538293,-0.23183 0.939061,-0.63262 0.400777,-0.40078 0.6326,-0.93909 Q 10.954468,8.61297 10.954468,8 q 0,-0.61297 -0.231813,-1.15128 Q 10.490832,6.31041 10.090055,5.90963 9.689287,5.50884 9.150994,5.27701 8.612701,5.04519 7.99975,5.04519 7.386799,5.04519 6.848506,5.27701 6.310213,5.50884 5.909445,5.90963 5.508668,6.31041 5.276845,6.84872 5.045032,7.38703 5.045032,8 q 0,0.61297 0.231813,1.15128 0.231823,0.53831 0.6326,0.93909 0.400768,0.40079 0.939061,0.63262 0.538293,0.23182 1.151244,0.23182 z m 0,-5.02947 q 0.432206,0 0.809405,0.1611 0.377198,0.1611 0.660099,0.44401 Q 9.752155,6.81336 9.91325,7.19057 10.074345,7.56778 10.074345,8 q 0,0.43222 -0.161095,0.80943 -0.161095,0.37721 -0.443996,0.66012 -0.282901,0.28291 -0.660099,0.44401 -0.377199,0.1611 -0.809405,0.1611 -0.432207,0 -0.809405,-0.1611 Q 6.813147,9.75246 6.530246,9.46955 6.247345,9.18664 6.08625,8.80943 5.925155,8.43222 5.925155,8 5.925155,7.56778 6.08625,7.19057 6.247345,6.81336 6.530246,6.53045 6.813147,6.24754 7.190345,6.08644 7.567543,5.92534 7.99975,5.92534 Z"
       id="path4" />
  </g>
</svg>
