<svg id="svg" version="1.1" xmlns="http://www.w3.org/2000/svg" xmlns:xlink="http://www.w3.org/1999/xlink" width="400" height="409.5808383233533" viewBox="0, 0, 400,409.5808383233533"><g id="svgg"><path id="path0" d="M197.213 4.700 C 196.058 7.065,194.772 9.692,194.356 10.538 C 193.940 11.384,193.600 12.329,193.600 12.638 C 193.600 12.947,193.420 13.200,193.200 13.200 C 192.980 13.200,192.800 13.560,192.800 14.000 C 192.800 14.440,192.620 14.800,192.400 14.800 C 192.180 14.800,192.000 15.160,192.000 15.600 C 192.000 16.040,191.820 16.400,191.600 16.400 C 191.380 16.400,191.200 16.760,191.200 17.200 C 191.200 17.640,191.020 18.000,190.800 18.000 C 190.580 18.000,190.400 18.360,190.400 18.800 C 190.400 19.240,190.220 19.600,190.000 19.600 C 189.780 19.600,189.600 19.960,189.600 20.400 C 189.600 20.840,189.420 21.200,189.200 21.200 C 188.980 21.200,188.800 21.560,188.800 22.000 C 188.800 22.440,188.620 22.800,188.400 22.800 C 188.180 22.800,188.000 23.160,188.000 23.600 C 188.000 24.040,187.820 24.400,187.600 24.400 C 187.380 24.400,187.200 24.760,187.200 25.200 C 187.200 25.640,187.020 26.000,186.800 26.000 C 186.580 26.000,186.400 26.360,186.400 26.800 C 186.400 27.240,186.220 27.600,186.000 27.600 C 185.780 27.600,185.600 27.960,185.600 28.400 C 185.600 28.840,185.420 29.200,185.200 29.200 C 184.980 29.200,184.800 29.560,184.800 30.000 C 184.800 30.440,184.620 30.800,184.400 30.800 C 184.180 30.800,184.000 31.160,184.000 31.600 C 184.000 32.040,183.820 32.400,183.600 32.400 C 183.380 32.400,183.200 32.760,183.200 33.200 C 183.200 33.640,183.020 34.000,182.800 34.000 C 182.580 34.000,182.400 34.360,182.400 34.800 C 182.400 35.240,182.220 35.600,182.000 35.600 C 181.780 35.600,181.600 35.819,181.600 36.086 C 181.600 36.507,179.075 42.093,177.980 44.095 C 177.771 44.477,177.600 45.062,177.600 45.395 C 177.600 45.728,177.420 46.000,177.200 46.000 C 176.980 46.000,176.800 46.360,176.800 46.800 C 176.800 47.240,176.620 47.600,176.400 47.600 C 176.180 47.600,176.000 47.960,176.000 48.400 C 176.000 48.840,175.820 49.200,175.600 49.200 C 175.380 49.200,175.200 49.560,175.200 50.000 C 175.200 50.440,175.020 50.800,174.800 50.800 C 174.580 50.800,174.400 51.160,174.400 51.600 C 174.400 52.040,174.220 52.400,174.000 52.400 C 173.780 52.400,173.600 52.760,173.600 53.200 C 173.600 53.640,173.420 54.000,173.200 54.000 C 172.980 54.000,172.800 54.360,172.800 54.800 C 172.800 55.240,172.620 55.600,172.400 55.600 C 172.180 55.600,172.000 55.960,172.000 56.400 C 172.000 56.840,171.820 57.200,171.600 57.200 C 171.380 57.200,171.200 57.560,171.200 58.000 C 171.200 58.440,171.020 58.800,170.800 58.800 C 170.580 58.800,170.400 59.160,170.400 59.600 C 170.400 60.040,170.220 60.400,170.000 60.400 C 169.780 60.400,169.600 60.760,169.600 61.200 C 169.600 61.640,169.420 62.000,169.200 62.000 C 168.980 62.000,168.800 62.360,168.800 62.800 C 168.800 63.240,168.620 63.600,168.400 63.600 C 168.180 63.600,168.000 63.960,168.000 64.400 C 168.000 64.840,167.820 65.200,167.600 65.200 C 167.380 65.200,167.200 65.560,167.200 66.000 C 167.200 66.440,167.020 66.800,166.800 66.800 C 166.580 66.800,166.401 67.025,166.403 67.300 C 166.407 67.839,166.446 67.756,156.800 87.400 C 147.154 107.044,147.193 106.961,147.197 107.500 C 147.199 107.775,147.020 108.000,146.800 108.000 C 146.580 108.000,146.400 108.360,146.400 108.800 C 146.400 109.240,146.220 109.600,146.000 109.600 C 145.780 109.600,145.600 109.960,145.600 110.400 C 145.600 110.840,145.420 111.200,145.200 111.200 C 144.980 111.200,144.800 111.560,144.800 112.000 C 144.800 112.440,144.620 112.800,144.400 112.800 C 144.180 112.800,144.000 113.160,144.000 113.600 C 144.000 114.040,143.820 114.400,143.600 114.400 C 143.380 114.400,143.200 114.760,143.200 115.200 C 143.200 115.640,143.020 116.000,142.800 116.000 C 142.580 116.000,142.400 116.360,142.400 116.800 C 142.400 117.240,142.220 117.600,142.000 117.600 C 141.780 117.600,141.600 117.821,141.600 118.091 C 141.600 118.361,139.819 122.186,137.641 126.591 C 132.696 136.597,131.200 139.794,131.200 140.357 C 131.200 140.601,131.020 140.800,130.800 140.800 C 130.580 140.800,130.400 141.160,130.400 141.600 C 130.400 142.040,130.220 142.400,130.000 142.400 C 129.780 142.400,129.600 142.724,129.600 143.120 C 129.600 143.516,129.392 144.048,129.137 144.303 C 128.515 144.925,129.260 145.805,131.155 146.687 C 131.950 147.056,132.690 147.458,132.800 147.579 C 133.134 147.948,135.311 149.184,136.900 149.906 C 137.725 150.282,138.400 150.726,138.400 150.894 C 138.400 151.062,138.760 151.200,139.200 151.200 C 139.640 151.200,140.001 151.335,140.003 151.500 C 140.005 151.665,140.410 151.998,140.903 152.240 C 142.590 153.069,145.400 154.600,145.600 154.800 C 145.906 155.106,148.028 156.285,149.700 157.078 C 150.525 157.469,151.200 157.926,151.200 158.094 C 151.200 158.262,151.483 158.400,151.828 158.400 C 152.173 158.400,153.208 158.911,154.128 159.535 C 155.048 160.159,156.385 160.923,157.100 161.232 C 157.815 161.542,158.400 161.931,158.400 162.098 C 158.400 162.264,158.745 162.400,159.167 162.400 C 159.588 162.400,159.993 162.535,160.067 162.700 C 160.234 163.076,162.364 164.375,163.300 164.671 C 163.685 164.793,164.000 165.052,164.000 165.247 C 164.000 165.441,164.360 165.600,164.800 165.600 C 165.240 165.600,165.601 165.735,165.603 165.900 C 165.605 166.065,166.010 166.398,166.503 166.640 C 168.911 167.822,171.013 169.030,171.133 169.300 C 171.207 169.465,171.534 169.600,171.861 169.600 C 172.188 169.600,173.208 170.111,174.128 170.735 C 175.048 171.359,176.385 172.123,177.100 172.432 C 177.815 172.742,178.400 173.131,178.400 173.298 C 178.400 173.464,178.760 173.600,179.200 173.600 C 179.640 173.600,180.000 173.737,180.000 173.904 C 180.000 174.072,181.215 174.835,182.700 175.601 C 184.185 176.367,185.490 177.085,185.600 177.197 C 185.965 177.568,188.179 178.815,189.700 179.506 C 190.525 179.882,191.200 180.326,191.200 180.494 C 191.200 180.662,191.560 180.800,192.000 180.800 C 192.440 180.800,192.801 180.935,192.803 181.100 C 192.805 181.265,193.210 181.587,193.703 181.817 C 195.566 182.682,198.205 184.211,198.333 184.500 C 198.407 184.665,198.812 184.800,199.233 184.800 C 199.655 184.800,200.000 184.937,200.000 185.104 C 200.000 185.272,201.215 186.035,202.700 186.801 C 204.185 187.567,205.490 188.285,205.600 188.397 C 205.806 188.606,207.037 189.283,210.709 191.210 C 211.869 191.819,213.039 192.490,213.309 192.702 C 213.579 192.913,215.150 193.774,216.800 194.615 C 218.450 195.456,220.070 196.357,220.400 196.619 C 220.730 196.880,222.350 197.793,224.000 198.647 C 225.650 199.501,227.090 200.310,227.200 200.444 C 227.310 200.578,228.705 201.360,230.300 202.182 C 231.895 203.004,233.301 203.839,233.424 204.038 C 233.547 204.237,233.997 204.400,234.424 204.400 C 234.851 204.400,235.200 204.580,235.200 204.800 C 235.200 205.020,235.560 205.200,236.000 205.200 C 236.440 205.200,236.800 205.380,236.800 205.600 C 236.800 205.820,237.078 206.000,237.417 206.000 C 237.756 206.000,238.420 206.360,238.892 206.800 C 239.364 207.240,239.987 207.600,240.275 207.600 C 240.564 207.600,240.800 207.780,240.800 208.000 C 240.800 208.220,241.160 208.400,241.600 208.400 C 242.040 208.400,242.400 208.580,242.400 208.800 C 242.400 209.020,242.760 209.200,243.200 209.200 C 243.640 209.200,244.000 209.380,244.000 209.600 C 244.000 209.820,244.360 210.000,244.800 210.000 C 245.240 210.000,245.600 210.158,245.600 210.351 C 245.600 210.545,246.140 210.927,246.800 211.200 C 247.460 211.473,248.000 211.855,248.000 212.049 C 248.000 212.242,248.360 212.400,248.800 212.400 C 249.240 212.400,249.600 212.580,249.600 212.800 C 249.600 213.020,249.960 213.200,250.400 213.200 C 250.840 213.200,251.200 213.380,251.200 213.600 C 251.200 213.820,251.478 214.000,251.817 214.000 C 252.156 214.000,252.820 214.360,253.292 214.800 C 253.764 215.240,254.387 215.600,254.675 215.600 C 254.964 215.600,255.200 215.780,255.200 216.000 C 255.200 216.220,255.560 216.400,256.000 216.400 C 256.440 216.400,256.800 216.580,256.800 216.800 C 256.800 217.020,257.078 217.200,257.417 217.200 C 257.756 217.200,258.420 217.560,258.892 218.000 C 259.364 218.440,259.987 218.800,260.275 218.800 C 260.564 218.800,260.800 218.980,260.800 219.200 C 260.800 219.420,261.160 219.600,261.600 219.600 C 262.040 219.600,262.400 219.780,262.400 220.000 C 262.400 220.220,262.760 220.400,263.200 220.400 C 263.640 220.400,264.000 220.580,264.000 220.800 C 264.000 221.020,264.320 221.200,264.712 221.200 C 265.103 221.200,265.683 221.560,266.000 222.000 C 266.317 222.440,266.897 222.800,267.288 222.800 C 267.680 222.800,268.000 222.980,268.000 223.200 C 268.000 223.420,268.360 223.600,268.800 223.600 C 269.240 223.600,269.600 223.780,269.600 224.000 C 269.600 224.220,269.960 224.400,270.400 224.400 C 270.840 224.400,271.200 224.580,271.200 224.800 C 271.200 225.020,271.436 225.200,271.725 225.200 C 272.013 225.200,272.636 225.560,273.108 226.000 C 273.580 226.440,274.244 226.800,274.583 226.800 C 274.922 226.800,275.200 226.980,275.200 227.200 C 275.200 227.420,275.560 227.600,276.000 227.600 C 276.440 227.600,276.800 227.780,276.800 228.000 C 276.800 228.220,277.078 228.400,277.417 228.400 C 277.756 228.400,278.420 228.760,278.892 229.200 C 279.364 229.640,279.987 230.000,280.275 230.000 C 280.564 230.000,280.800 230.180,280.800 230.400 C 280.800 230.620,281.160 230.800,281.600 230.800 C 282.040 230.800,282.400 230.980,282.400 231.200 C 282.400 231.420,282.760 231.600,283.200 231.600 C 283.640 231.600,284.000 231.780,284.000 232.000 C 284.000 232.220,284.320 232.400,284.712 232.400 C 285.103 232.400,285.683 232.760,286.000 233.200 C 286.317 233.640,286.897 234.000,287.288 234.000 C 287.680 234.000,288.000 234.180,288.000 234.400 C 288.000 234.620,288.360 234.800,288.800 234.800 C 289.240 234.800,289.600 234.980,289.600 235.200 C 289.600 235.420,289.945 235.600,290.367 235.600 C 290.788 235.600,291.193 235.735,291.267 235.900 C 291.434 236.276,293.564 237.575,294.500 237.871 C 294.885 237.993,295.200 238.252,295.200 238.447 C 295.200 238.641,295.560 238.800,296.000 238.800 C 296.440 238.800,296.800 238.980,296.800 239.200 C 296.800 239.420,297.160 239.600,297.600 239.600 C 298.040 239.600,298.400 239.780,298.400 240.000 C 298.400 240.220,298.636 240.400,298.925 240.400 C 299.213 240.400,299.836 240.760,300.308 241.200 C 300.780 241.640,301.444 242.000,301.783 242.000 C 302.122 242.000,302.400 242.180,302.400 242.400 C 302.400 242.620,302.760 242.800,303.200 242.800 C 303.640 242.800,304.000 242.980,304.000 243.200 C 304.000 243.420,304.320 243.600,304.712 243.600 C 305.103 243.600,305.683 243.960,306.000 244.400 C 306.317 244.840,306.897 245.200,307.288 245.200 C 307.680 245.200,308.000 245.380,308.000 245.600 C 308.000 245.820,308.360 246.000,308.800 246.000 C 309.240 246.000,309.600 246.146,309.600 246.325 C 309.600 246.504,310.230 246.898,311.000 247.200 C 311.770 247.502,312.400 247.852,312.400 247.977 C 312.400 248.102,312.985 248.459,313.700 248.770 C 314.415 249.081,315.090 249.449,315.200 249.587 C 315.310 249.725,316.436 250.338,317.702 250.949 C 318.968 251.560,320.235 252.272,320.517 252.530 C 322.518 254.359,324.400 254.490,324.400 252.800 C 324.400 252.140,324.220 251.600,324.000 251.600 C 323.780 251.600,323.600 251.240,323.600 250.800 C 323.600 250.360,323.420 250.000,323.200 250.000 C 322.980 250.000,322.800 249.640,322.800 249.200 C 322.800 248.760,322.620 248.400,322.400 248.400 C 322.180 248.400,322.000 248.040,322.000 247.600 C 322.000 247.160,321.820 246.800,321.600 246.800 C 321.380 246.800,321.200 246.440,321.200 246.000 C 321.200 245.560,321.020 245.200,320.800 245.200 C 320.580 245.200,320.400 244.840,320.400 244.400 C 320.400 243.960,320.220 243.600,320.000 243.600 C 319.780 243.600,319.600 243.240,319.600 242.800 C 319.600 242.360,319.420 242.000,319.200 242.000 C 318.980 242.000,318.800 241.640,318.800 241.200 C 318.800 240.760,318.620 240.400,318.400 240.400 C 318.180 240.400,318.000 240.051,318.000 239.624 C 318.000 239.197,317.820 238.736,317.600 238.600 C 317.380 238.464,317.200 238.003,317.200 237.576 C 317.200 237.149,317.020 236.800,316.800 236.800 C 316.580 236.800,316.400 236.440,316.400 236.000 C 316.400 235.560,316.220 235.200,316.000 235.200 C 315.780 235.200,315.600 234.840,315.600 234.400 C 315.600 233.960,315.420 233.600,315.200 233.600 C 314.980 233.600,314.800 233.240,314.800 232.800 C 314.800 232.360,314.620 232.000,314.400 232.000 C 314.180 232.000,314.001 231.775,314.003 231.500 C 314.006 230.865,309.914 222.645,309.505 222.467 C 309.337 222.393,309.200 221.898,309.200 221.367 C 309.200 220.835,309.020 220.400,308.800 220.400 C 308.580 220.400,308.400 220.040,308.400 219.600 C 308.400 219.160,308.220 218.800,308.000 218.800 C 307.780 218.800,307.600 218.455,307.600 218.033 C 307.600 217.612,307.463 217.207,307.295 217.133 C 307.127 217.060,306.005 215.020,304.800 212.600 C 303.595 210.180,302.473 208.140,302.305 208.067 C 302.137 207.993,302.000 207.498,302.000 206.967 C 302.000 206.435,301.820 206.000,301.600 206.000 C 301.380 206.000,301.200 205.651,301.200 205.224 C 301.200 204.797,301.020 204.336,300.800 204.200 C 300.580 204.064,300.400 203.702,300.400 203.395 C 300.400 203.088,297.250 196.474,293.400 188.696 C 289.550 180.918,286.400 174.340,286.400 174.077 C 286.400 173.815,286.220 173.600,286.000 173.600 C 285.780 173.600,285.600 173.352,285.600 173.050 C 285.600 172.514,284.727 170.678,277.766 156.583 C 275.915 152.834,274.400 149.549,274.400 149.283 C 274.400 149.018,274.220 148.800,274.000 148.800 C 273.780 148.800,273.600 148.440,273.600 148.000 C 273.600 147.560,273.420 147.200,273.200 147.200 C 272.980 147.200,272.800 146.840,272.800 146.400 C 272.800 145.960,272.620 145.600,272.400 145.600 C 272.180 145.600,272.000 145.240,272.000 144.800 C 272.000 144.360,271.820 144.000,271.600 144.000 C 271.380 144.000,271.200 143.640,271.200 143.200 C 271.200 142.760,271.020 142.400,270.800 142.400 C 270.580 142.400,270.400 142.040,270.400 141.600 C 270.400 141.160,270.220 140.800,270.000 140.800 C 269.780 140.800,269.600 140.547,269.600 140.238 C 269.600 139.929,269.250 138.984,268.822 138.138 C 265.134 130.852,258.400 116.856,258.400 116.476 C 258.400 116.214,258.220 116.000,258.000 116.000 C 257.780 116.000,257.600 115.640,257.600 115.200 C 257.600 114.760,257.420 114.400,257.200 114.400 C 256.980 114.400,256.800 114.040,256.800 113.600 C 256.800 113.160,256.620 112.800,256.400 112.800 C 256.180 112.800,256.000 112.440,256.000 112.000 C 256.000 111.560,255.820 111.200,255.600 111.200 C 255.380 111.200,255.200 110.840,255.200 110.400 C 255.200 109.960,255.020 109.600,254.800 109.600 C 254.580 109.600,254.400 109.240,254.400 108.800 C 254.400 108.360,254.220 108.000,254.000 108.000 C 253.780 108.000,253.600 107.802,253.600 107.561 C 253.600 106.931,251.085 101.728,235.562 70.244 C 234.923 68.948,234.400 67.643,234.400 67.344 C 234.400 67.045,234.220 66.800,234.000 66.800 C 233.780 66.800,233.600 66.440,233.600 66.000 C 233.600 65.560,233.420 65.200,233.200 65.200 C 232.980 65.200,232.800 64.840,232.800 64.400 C 232.800 63.960,232.665 63.599,232.500 63.597 C 232.141 63.593,231.200 61.656,231.200 60.920 C 231.200 60.634,231.020 60.400,230.800 60.400 C 230.580 60.400,230.400 60.040,230.400 59.600 C 230.400 59.160,230.220 58.800,230.000 58.800 C 229.780 58.800,229.600 58.440,229.600 58.000 C 229.600 57.560,229.420 57.200,229.200 57.200 C 228.980 57.200,228.800 56.840,228.800 56.400 C 228.800 55.960,228.620 55.600,228.400 55.600 C 228.180 55.600,228.000 55.240,228.000 54.800 C 228.000 54.360,227.820 54.000,227.600 54.000 C 227.380 54.000,227.200 53.640,227.200 53.200 C 227.200 52.760,227.020 52.400,226.800 52.400 C 226.580 52.400,226.400 52.040,226.400 51.600 C 226.400 51.160,226.220 50.800,226.000 50.800 C 225.780 50.800,225.600 50.440,225.600 50.000 C 225.600 49.560,225.420 49.200,225.200 49.200 C 224.980 49.200,224.800 48.840,224.800 48.400 C 224.800 47.960,224.620 47.600,224.400 47.600 C 224.180 47.600,224.000 47.240,224.000 46.800 C 224.000 46.360,223.820 46.000,223.600 46.000 C 223.380 46.000,223.200 45.728,223.200 45.395 C 223.200 45.062,223.030 44.477,222.823 44.095 C 221.590 41.825,218.400 34.895,218.400 34.487 C 218.400 34.219,218.220 34.000,218.000 34.000 C 217.780 34.000,217.600 33.640,217.600 33.200 C 217.600 32.760,217.420 32.400,217.200 32.400 C 216.980 32.400,216.800 32.040,216.800 31.600 C 216.800 31.160,216.665 30.799,216.500 30.797 C 216.141 30.793,215.200 28.856,215.200 28.120 C 215.200 27.834,215.020 27.600,214.800 27.600 C 214.580 27.600,214.400 27.240,214.400 26.800 C 214.400 26.360,214.220 26.000,214.000 26.000 C 213.780 26.000,213.600 25.640,213.600 25.200 C 213.600 24.760,213.420 24.400,213.200 24.400 C 212.980 24.400,212.800 24.040,212.800 23.600 C 212.800 23.160,212.620 22.800,212.400 22.800 C 212.180 22.800,212.000 22.440,212.000 22.000 C 212.000 21.560,211.820 21.200,211.600 21.200 C 211.380 21.200,211.200 20.840,211.200 20.400 C 211.200 19.960,211.020 19.600,210.800 19.600 C 210.580 19.600,210.400 19.240,210.400 18.800 C 210.400 18.360,210.220 18.000,210.000 18.000 C 209.780 18.000,209.600 17.640,209.600 17.200 C 209.600 16.760,209.420 16.400,209.200 16.400 C 208.980 16.400,208.800 16.040,208.800 15.600 C 208.800 15.160,208.620 14.800,208.400 14.800 C 208.180 14.800,208.000 14.440,208.000 14.000 C 208.000 13.560,207.820 13.200,207.600 13.200 C 207.380 13.200,207.200 12.947,207.200 12.638 C 207.200 12.329,206.860 11.384,206.444 10.538 C 206.028 9.692,204.742 7.065,203.587 4.700 C 201.684 0.804,201.385 0.400,200.400 0.400 C 199.415 0.400,199.116 0.804,197.213 4.700 " stroke="none" fill="#27b9ee" fill-rule="evenodd"></path><path id="path1" d="M108.091 188.001 C 107.609 188.450,107.329 189.070,107.456 189.403 C 107.582 189.731,107.521 190.000,107.320 190.000 C 106.932 190.000,104.400 194.827,104.400 195.566 C 104.400 195.805,104.220 196.000,104.000 196.000 C 103.780 196.000,103.600 196.360,103.600 196.800 C 103.600 197.240,103.420 197.600,103.200 197.600 C 102.980 197.600,102.800 198.039,102.800 198.576 C 102.800 199.113,102.620 199.664,102.400 199.800 C 102.180 199.936,102.000 200.397,102.000 200.824 C 102.000 201.251,101.820 201.600,101.600 201.600 C 101.380 201.600,101.200 201.960,101.200 202.400 C 101.200 202.840,101.020 203.200,100.800 203.200 C 100.580 203.200,100.400 203.478,100.400 203.817 C 100.400 204.156,100.040 204.820,99.600 205.292 C 99.160 205.764,98.800 206.567,98.800 207.075 C 98.800 207.584,98.620 208.000,98.400 208.000 C 98.180 208.000,98.000 208.360,98.000 208.800 C 98.000 209.240,97.820 209.600,97.600 209.600 C 97.380 209.600,97.200 209.945,97.200 210.367 C 97.200 210.788,97.062 211.193,96.894 211.267 C 96.726 211.340,94.913 214.820,92.866 219.000 C 90.818 223.180,88.976 226.913,88.771 227.295 C 88.567 227.677,88.400 228.312,88.400 228.706 C 88.400 229.101,88.040 229.683,87.600 230.000 C 87.160 230.317,86.800 230.886,86.800 231.265 C 86.800 231.643,86.620 232.064,86.400 232.200 C 86.180 232.336,86.000 232.887,86.000 233.424 C 86.000 233.961,85.820 234.400,85.600 234.400 C 85.380 234.400,85.200 234.681,85.200 235.024 C 85.200 235.367,85.057 235.559,84.883 235.451 C 84.709 235.344,84.540 235.605,84.508 236.031 C 84.475 236.458,84.078 237.329,83.625 237.965 C 83.171 238.602,82.800 239.304,82.800 239.524 C 82.800 240.070,81.073 243.368,80.700 243.533 C 80.535 243.607,80.400 244.001,80.400 244.410 C 80.400 244.818,80.220 245.264,80.000 245.400 C 79.780 245.536,79.600 245.997,79.600 246.424 C 79.600 246.851,79.420 247.200,79.200 247.200 C 78.980 247.200,78.800 247.560,78.800 248.000 C 78.800 248.440,78.620 248.800,78.400 248.800 C 78.180 248.800,78.000 249.160,78.000 249.600 C 78.000 250.040,77.865 250.401,77.700 250.403 C 77.335 250.407,76.400 252.349,76.400 253.103 C 76.400 253.402,76.220 253.536,76.000 253.400 C 75.780 253.264,75.600 253.523,75.600 253.976 C 75.600 254.429,75.420 254.800,75.200 254.800 C 74.980 254.800,74.800 255.261,74.800 255.824 C 74.800 256.404,74.627 256.740,74.400 256.600 C 74.180 256.464,74.000 256.723,74.000 257.176 C 74.000 257.629,73.820 258.000,73.600 258.000 C 73.380 258.000,73.221 258.135,73.247 258.300 C 73.436 259.495,73.157 260.553,72.800 260.000 C 72.488 259.518,72.411 259.582,72.406 260.326 C 72.400 261.308,71.722 262.842,71.120 263.236 C 70.922 263.366,70.731 263.861,70.695 264.336 C 70.659 264.811,70.488 265.200,70.315 265.200 C 70.142 265.200,70.000 265.449,70.000 265.754 C 70.000 266.584,68.960 268.427,68.661 268.127 C 68.517 267.984,68.400 268.347,68.400 268.933 C 68.400 269.520,68.265 270.001,68.100 270.003 C 67.741 270.007,66.800 271.944,66.800 272.680 C 66.800 272.966,66.620 273.200,66.400 273.200 C 66.180 273.200,66.000 273.453,66.000 273.762 C 66.000 274.428,64.332 277.741,63.900 277.933 C 63.735 278.007,63.600 278.412,63.600 278.833 C 63.600 279.255,63.420 279.600,63.200 279.600 C 62.980 279.600,62.800 279.960,62.800 280.400 C 62.800 280.840,62.620 281.200,62.400 281.200 C 62.180 281.200,62.000 281.650,62.000 282.200 C 62.000 282.750,61.820 283.200,61.600 283.200 C 61.380 283.200,61.200 283.470,61.200 283.800 C 61.200 284.130,61.020 284.400,60.800 284.400 C 60.580 284.400,60.400 284.760,60.400 285.200 C 60.400 285.640,60.258 286.000,60.085 286.000 C 59.912 286.000,59.740 286.402,59.703 286.894 C 59.666 287.386,59.448 287.851,59.218 287.927 C 58.988 288.004,58.800 288.311,58.800 288.609 C 58.800 288.907,58.260 290.135,57.600 291.337 C 56.940 292.540,56.400 293.811,56.400 294.162 C 56.400 294.513,56.265 294.801,56.100 294.803 C 55.741 294.807,54.800 296.744,54.800 297.480 C 54.800 297.766,54.620 298.000,54.400 298.000 C 54.180 298.000,54.000 298.278,54.000 298.617 C 54.000 298.956,53.640 299.620,53.200 300.092 C 52.760 300.564,52.400 301.367,52.400 301.875 C 52.400 302.384,52.264 302.800,52.098 302.800 C 51.931 302.800,51.571 303.340,51.298 304.000 C 51.024 304.660,50.576 305.740,50.302 306.400 C 50.029 307.060,49.669 307.600,49.502 307.600 C 49.336 307.600,49.200 307.960,49.200 308.400 C 49.200 308.840,49.020 309.200,48.800 309.200 C 48.580 309.200,48.400 309.560,48.400 310.000 C 48.400 310.440,48.220 310.800,48.000 310.800 C 47.780 310.800,47.600 311.053,47.600 311.362 C 47.600 312.028,45.932 315.341,45.500 315.533 C 45.335 315.607,45.200 316.001,45.200 316.410 C 45.200 316.818,45.020 317.264,44.800 317.400 C 44.580 317.536,44.400 317.924,44.400 318.262 C 44.400 318.600,44.071 319.354,43.670 319.938 C 43.268 320.522,42.697 321.630,42.400 322.400 C 42.103 323.170,41.521 324.293,41.106 324.896 C 40.690 325.499,40.324 326.354,40.290 326.796 C 40.257 327.238,40.088 327.600,39.915 327.600 C 39.742 327.600,39.600 327.883,39.600 328.229 C 39.600 328.574,39.321 329.136,38.980 329.477 C 38.640 329.818,38.257 330.615,38.130 331.248 C 38.004 331.882,37.742 332.400,37.550 332.400 C 37.358 332.400,37.200 332.745,37.200 333.167 C 37.200 333.588,37.065 333.993,36.900 334.067 C 36.468 334.259,34.800 337.572,34.800 338.238 C 34.800 338.547,34.620 338.800,34.400 338.800 C 34.180 338.800,34.000 339.053,34.000 339.362 C 34.000 340.028,32.332 343.341,31.900 343.533 C 31.735 343.607,31.600 344.012,31.600 344.433 C 31.600 344.855,31.420 345.200,31.200 345.200 C 30.980 345.200,30.800 345.560,30.800 346.000 C 30.800 346.440,30.620 346.800,30.400 346.800 C 30.180 346.800,30.000 347.250,30.000 347.800 C 30.000 348.350,29.854 348.800,29.675 348.800 C 29.496 348.800,29.102 349.430,28.800 350.200 C 28.498 350.970,28.143 351.600,28.010 351.600 C 27.878 351.600,27.740 352.002,27.703 352.494 C 27.666 352.986,27.448 353.451,27.218 353.527 C 26.988 353.604,26.800 353.997,26.800 354.400 C 26.800 354.803,26.665 355.193,26.500 355.267 C 26.335 355.340,25.775 356.300,25.256 357.400 C 24.737 358.500,24.152 359.713,23.956 360.095 C 23.760 360.477,23.597 361.107,23.594 361.495 C 23.589 362.096,23.531 362.112,23.200 361.600 C 22.899 361.134,22.811 361.251,22.806 362.124 C 22.802 362.870,22.645 363.151,22.338 362.962 C 22.081 362.803,21.984 362.850,22.120 363.070 C 22.253 363.286,21.741 364.699,20.981 366.209 C 20.222 367.719,19.600 369.200,19.600 369.501 C 19.600 369.801,19.420 369.936,19.200 369.800 C 18.980 369.664,18.800 369.923,18.800 370.376 C 18.800 370.829,18.620 371.200,18.400 371.200 C 18.180 371.200,18.000 371.539,18.000 371.954 C 18.000 372.937,16.997 374.864,16.661 374.527 C 16.517 374.384,16.400 374.657,16.400 375.133 C 16.400 375.610,16.220 376.000,16.000 376.000 C 15.780 376.000,15.600 376.461,15.600 377.024 C 15.600 377.604,15.427 377.940,15.200 377.800 C 14.972 377.659,14.800 378.004,14.800 378.600 C 14.800 379.196,14.628 379.541,14.400 379.400 C 14.176 379.262,14.000 379.571,14.000 380.101 C 14.000 380.622,13.640 381.436,13.200 381.908 C 12.760 382.380,12.400 383.134,12.400 383.583 C 12.400 384.032,12.220 384.400,12.000 384.400 C 11.780 384.400,11.600 384.850,11.600 385.400 C 11.600 385.950,11.420 386.400,11.200 386.400 C 10.980 386.400,10.800 386.672,10.800 387.005 C 10.800 387.582,10.050 389.174,9.578 389.600 C 9.119 390.015,7.600 393.249,7.600 393.812 C 7.600 394.136,7.420 394.400,7.200 394.400 C 6.980 394.400,6.800 394.653,6.800 394.962 C 6.800 395.628,5.132 398.941,4.700 399.133 C 4.535 399.207,4.400 399.434,4.400 399.638 C 4.400 400.221,2.673 403.785,2.319 403.933 C 2.143 404.007,2.000 404.329,2.000 404.649 C 2.000 404.970,1.640 405.938,1.200 406.800 C -0.281 409.703,0.520 410.005,3.570 407.697 C 4.663 406.870,7.141 405.277,9.078 404.157 C 11.015 403.037,14.130 401.220,16.000 400.119 C 25.668 394.425,33.541 389.804,34.700 389.142 C 35.415 388.734,36.585 388.066,37.300 387.657 C 38.904 386.741,46.765 382.090,50.760 379.694 C 52.387 378.718,54.277 377.601,54.960 377.211 C 55.642 376.821,57.775 375.580,59.700 374.451 C 61.625 373.323,64.775 371.477,66.700 370.349 C 68.625 369.220,70.758 367.979,71.440 367.589 C 72.123 367.199,74.013 366.081,75.640 365.103 C 78.802 363.204,98.730 351.505,102.400 349.394 C 103.610 348.698,107.120 346.634,110.200 344.808 C 113.280 342.981,116.340 341.176,117.000 340.795 C 118.377 340.000,123.644 336.915,128.600 334.000 C 133.299 331.236,138.764 328.034,140.200 327.203 C 143.758 325.146,146.918 323.287,149.560 321.699 C 151.187 320.720,153.077 319.601,153.760 319.211 C 154.442 318.821,156.620 317.556,158.600 316.400 C 160.580 315.244,162.761 313.977,163.447 313.585 C 164.132 313.194,165.906 312.137,167.388 311.237 C 168.869 310.337,170.166 309.600,170.269 309.600 C 170.372 309.600,171.241 309.060,172.200 308.400 C 173.159 307.740,174.039 307.200,174.154 307.200 C 174.270 307.200,175.318 306.635,176.482 305.944 C 177.647 305.253,179.140 304.376,179.800 303.995 C 180.460 303.614,182.530 302.408,184.400 301.315 C 186.270 300.222,191.130 297.388,195.200 295.017 C 199.270 292.645,204.220 289.759,206.200 288.603 C 208.180 287.446,210.700 286.009,211.800 285.408 C 212.900 284.808,213.980 284.174,214.200 284.001 C 214.420 283.827,215.275 283.306,216.100 282.843 C 216.925 282.379,218.230 281.640,219.000 281.200 C 219.770 280.760,221.075 280.023,221.900 279.562 C 222.725 279.102,223.571 278.562,223.780 278.362 C 224.275 277.890,225.600 277.894,225.600 278.367 C 225.600 278.568,225.375 278.838,225.100 278.967 C 224.700 279.153,224.700 279.247,225.100 279.433 C 225.375 279.562,225.600 280.012,225.600 280.433 C 225.600 280.855,225.780 281.200,226.000 281.200 C 226.220 281.200,226.400 281.520,226.400 281.912 C 226.400 282.303,226.760 282.883,227.200 283.200 C 227.640 283.517,228.000 284.097,228.000 284.488 C 228.000 284.880,228.180 285.200,228.400 285.200 C 228.620 285.200,228.800 285.520,228.800 285.912 C 228.800 286.303,229.160 286.883,229.600 287.200 C 230.040 287.517,230.400 288.097,230.400 288.488 C 230.400 288.880,230.580 289.200,230.800 289.200 C 231.020 289.200,231.200 289.520,231.200 289.912 C 231.200 290.303,231.560 290.883,232.000 291.200 C 232.440 291.517,232.800 292.097,232.800 292.488 C 232.800 292.880,232.980 293.200,233.200 293.200 C 233.420 293.200,233.600 293.560,233.600 294.000 C 233.600 294.440,233.780 294.800,234.000 294.800 C 234.220 294.800,234.400 295.120,234.400 295.512 C 234.400 295.903,234.760 296.483,235.200 296.800 C 235.640 297.117,236.000 297.697,236.000 298.088 C 236.000 298.480,236.180 298.800,236.400 298.800 C 236.620 298.800,236.800 299.120,236.800 299.512 C 236.800 299.903,237.160 300.483,237.600 300.800 C 238.040 301.117,238.400 301.697,238.400 302.088 C 238.400 302.480,238.580 302.800,238.800 302.800 C 239.020 302.800,239.200 303.120,239.200 303.512 C 239.200 303.903,239.560 304.483,240.000 304.800 C 240.440 305.117,240.800 305.631,240.800 305.941 C 240.800 306.252,241.177 306.833,241.637 307.232 C 242.097 307.631,242.358 308.145,242.216 308.374 C 242.061 308.625,242.206 308.696,242.579 308.553 C 242.921 308.422,243.200 308.181,243.200 308.018 C 243.200 307.855,243.758 307.706,244.441 307.686 C 245.830 307.647,245.706 308.096,244.300 308.200 C 243.503 308.259,243.140 308.991,243.900 309.006 C 244.065 309.009,244.453 309.172,244.762 309.368 C 245.173 309.628,245.236 309.582,244.996 309.194 C 244.757 308.807,244.852 308.734,245.350 308.925 C 245.758 309.082,246.115 308.967,246.241 308.637 C 246.361 308.325,246.829 308.158,247.326 308.249 C 247.807 308.337,247.974 308.302,247.698 308.170 C 247.421 308.039,247.316 307.736,247.463 307.498 C 247.633 307.224,247.491 307.156,247.078 307.315 C 246.719 307.452,246.319 307.393,246.189 307.183 C 246.059 306.972,246.413 306.800,246.976 306.800 C 247.539 306.800,248.000 306.620,248.000 306.400 C 248.000 306.180,248.512 306.000,249.138 306.000 C 249.783 306.000,250.602 305.639,251.029 305.168 C 251.535 304.609,252.132 304.387,252.850 304.493 C 253.685 304.615,253.866 304.513,253.684 304.025 C 253.475 303.466,253.530 303.464,254.202 304.000 C 254.805 304.481,254.886 304.488,254.611 304.032 C 254.351 303.601,254.437 303.528,254.967 303.732 C 255.351 303.879,255.763 304.000,255.882 304.000 C 256.001 304.000,255.851 304.315,255.549 304.700 C 255.051 305.336,255.065 305.349,255.705 304.847 C 256.093 304.542,256.380 304.092,256.342 303.847 C 256.160 302.660,256.919 302.000,258.466 302.000 C 259.418 302.000,259.949 301.841,259.800 301.600 C 259.664 301.380,259.934 301.200,260.400 301.200 C 260.866 301.200,261.157 301.055,261.047 300.877 C 260.938 300.699,261.542 300.513,262.391 300.463 C 263.240 300.412,264.051 300.558,264.192 300.787 C 264.368 301.072,264.702 301.066,265.259 300.768 C 265.705 300.530,266.529 300.251,267.089 300.150 C 268.491 299.895,270.400 298.867,270.400 298.366 C 270.400 298.139,270.564 298.054,270.764 298.178 C 271.255 298.481,272.400 298.014,272.400 297.511 C 272.400 297.288,272.030 297.204,271.577 297.322 C 270.902 297.498,270.839 297.435,271.226 296.969 C 271.486 296.656,272.047 296.400,272.473 296.400 C 272.900 296.400,273.134 296.216,272.994 295.990 C 272.855 295.765,272.889 295.606,273.070 295.637 C 273.890 295.780,274.829 295.571,274.652 295.285 C 274.545 295.112,274.877 294.935,275.389 294.893 C 275.901 294.850,276.423 295.082,276.548 295.408 C 276.673 295.733,276.571 296.000,276.321 296.000 C 276.071 296.000,275.973 296.106,276.103 296.237 C 276.233 296.367,276.668 296.282,277.070 296.049 C 277.471 295.815,277.605 295.619,277.367 295.612 C 276.737 295.594,276.835 294.472,277.487 294.222 C 277.792 294.105,277.961 294.142,277.863 294.305 C 277.521 294.869,278.620 295.474,279.414 295.159 C 280.169 294.859,280.166 294.836,279.314 294.580 C 278.262 294.264,278.993 293.205,280.271 293.194 C 280.804 293.189,280.861 293.100,280.484 292.861 C 280.161 292.655,280.497 292.533,281.384 292.533 C 282.163 292.533,282.800 292.658,282.800 292.811 C 282.800 292.964,283.603 292.905,284.584 292.681 C 285.565 292.456,286.280 292.129,286.171 291.954 C 286.063 291.778,285.710 291.736,285.387 291.860 C 285.021 292.001,284.800 291.844,284.800 291.443 C 284.800 291.020,285.150 290.800,285.824 290.800 C 286.495 290.800,286.749 290.641,286.562 290.338 C 286.393 290.064,286.451 289.985,286.706 290.142 C 286.942 290.288,287.420 290.123,287.768 289.775 C 288.115 289.427,288.400 289.337,288.400 289.575 C 288.400 289.964,289.771 289.432,290.400 288.799 C 290.981 288.214,292.903 288.354,292.669 288.964 C 292.535 289.314,292.599 289.600,292.813 289.600 C 293.381 289.600,293.285 288.104,292.700 287.846 C 292.425 287.725,292.740 287.665,293.400 287.713 C 294.113 287.765,294.559 288.003,294.500 288.300 C 294.445 288.575,294.715 288.794,295.100 288.787 C 295.646 288.778,295.536 288.541,294.600 287.712 C 293.940 287.127,293.711 286.766,294.092 286.909 C 294.812 287.179,298.166 285.899,297.772 285.505 C 297.648 285.381,297.784 285.290,298.073 285.303 C 299.431 285.362,300.429 285.171,300.252 284.885 C 300.145 284.712,300.495 284.534,301.029 284.489 C 301.563 284.445,302.000 284.581,302.000 284.792 C 302.000 285.003,301.699 285.059,301.331 284.918 C 300.837 284.729,300.724 284.825,300.901 285.285 C 301.083 285.760,300.932 285.866,300.270 285.727 C 299.465 285.559,299.455 285.580,300.139 286.014 C 300.677 286.356,300.997 286.363,301.319 286.041 C 301.561 285.799,302.129 285.586,302.580 285.568 C 303.031 285.551,303.175 285.446,302.900 285.335 C 302.061 284.996,302.302 283.600,303.200 283.600 C 303.640 283.600,304.000 283.434,304.000 283.230 C 304.000 282.916,305.636 282.902,307.000 283.206 C 307.974 283.422,308.384 283.136,308.295 282.301 C 308.225 281.636,308.436 281.369,309.106 281.273 C 309.604 281.201,309.909 280.976,309.782 280.771 C 309.656 280.567,309.923 280.400,310.376 280.400 C 310.829 280.400,311.200 280.186,311.200 279.924 C 311.200 279.661,311.451 279.790,311.757 280.208 C 312.347 281.016,313.600 280.493,313.600 279.438 C 313.600 279.183,314.049 278.937,314.598 278.892 C 315.160 278.845,315.554 279.004,315.498 279.255 C 315.444 279.500,315.625 279.783,315.900 279.883 C 316.241 280.008,316.313 279.832,316.125 279.333 C 315.883 278.688,315.931 278.666,316.525 279.149 C 316.985 279.523,317.200 279.551,317.200 279.236 C 317.200 278.982,316.795 278.611,316.300 278.412 L 315.400 278.051 316.273 278.025 C 316.809 278.010,317.244 278.309,317.400 278.800 C 317.727 279.831,318.415 279.828,318.686 278.794 C 318.802 278.350,319.100 278.011,319.348 278.041 C 320.058 278.126,320.556 278.015,321.141 277.645 C 321.994 277.104,320.997 275.600,319.786 275.600 C 319.244 275.600,318.800 275.420,318.800 275.200 C 318.800 274.980,318.564 274.800,318.275 274.800 C 317.784 274.800,315.071 273.654,313.505 272.785 C 313.123 272.573,312.538 272.400,312.205 272.400 C 311.872 272.400,311.600 272.220,311.600 272.000 C 311.600 271.780,311.161 271.600,310.624 271.600 C 310.087 271.600,309.536 271.420,309.400 271.200 C 309.264 270.980,308.803 270.800,308.376 270.800 C 307.949 270.800,307.600 270.653,307.600 270.472 C 307.600 270.292,306.700 269.900,305.600 269.600 C 304.500 269.300,303.600 268.908,303.600 268.728 C 303.600 268.547,303.251 268.400,302.824 268.400 C 302.397 268.400,301.936 268.220,301.800 268.000 C 301.664 267.780,301.113 267.600,300.576 267.600 C 300.039 267.600,299.600 267.420,299.600 267.200 C 299.600 266.980,299.335 266.800,299.010 266.800 C 298.686 266.800,297.241 266.260,295.800 265.600 C 294.359 264.940,293.004 264.400,292.790 264.400 C 292.575 264.400,292.400 264.253,292.400 264.072 C 292.400 263.892,291.500 263.500,290.400 263.200 C 289.300 262.900,288.400 262.508,288.400 262.328 C 288.400 262.147,288.040 262.000,287.600 262.000 C 287.160 262.000,286.800 261.801,286.800 261.557 C 286.800 261.314,286.567 261.204,286.283 261.313 C 285.999 261.422,285.425 261.261,285.007 260.956 C 284.589 260.650,283.921 260.400,283.524 260.400 C 283.126 260.400,282.800 260.220,282.800 260.000 C 282.800 259.780,282.451 259.600,282.024 259.600 C 281.597 259.600,281.136 259.420,281.000 259.200 C 280.864 258.980,280.313 258.800,279.776 258.800 C 279.239 258.800,278.800 258.620,278.800 258.400 C 278.800 258.180,278.528 258.000,278.195 258.000 C 277.639 258.000,276.078 257.278,275.600 256.800 C 275.490 256.690,275.130 256.550,274.800 256.489 C 274.470 256.427,273.750 256.178,273.200 255.935 C 272.650 255.692,271.840 255.353,271.400 255.183 C 269.944 254.618,269.003 254.270,268.800 254.220 C 268.690 254.194,268.150 253.923,267.600 253.618 C 267.050 253.314,266.555 253.095,266.500 253.132 C 266.133 253.381,265.598 253.127,265.800 252.800 C 265.938 252.576,265.628 252.400,265.094 252.400 C 264.570 252.400,263.075 251.887,261.771 251.261 C 260.467 250.634,258.918 250.004,258.328 249.860 C 257.738 249.716,257.018 249.374,256.728 249.099 C 256.438 248.825,255.840 248.539,255.400 248.463 C 254.960 248.388,254.540 248.162,254.466 247.961 C 254.392 247.760,254.173 247.693,253.980 247.813 C 253.786 247.932,252.946 247.683,252.114 247.258 C 251.281 246.833,250.420 246.443,250.200 246.390 C 249.980 246.337,249.173 245.958,248.407 245.548 C 247.641 245.137,246.426 244.691,245.707 244.556 C 244.988 244.421,244.400 244.151,244.400 243.955 C 244.400 243.760,244.040 243.600,243.600 243.600 C 243.160 243.600,242.800 243.420,242.800 243.200 C 242.800 242.980,242.412 242.800,241.939 242.800 C 241.465 242.800,240.070 242.330,238.839 241.756 C 236.546 240.687,235.186 240.089,232.900 239.143 C 232.185 238.847,231.600 238.474,231.600 238.315 C 231.600 238.156,231.353 238.120,231.052 238.236 C 230.750 238.351,230.223 238.166,229.880 237.823 C 229.537 237.480,228.895 237.200,228.452 237.200 C 228.009 237.200,227.528 237.008,227.383 236.773 C 227.238 236.538,226.889 236.434,226.608 236.541 C 226.327 236.649,225.887 236.527,225.629 236.269 C 225.371 236.011,225.034 235.792,224.880 235.782 C 224.023 235.728,221.673 234.606,221.842 234.332 C 221.952 234.154,221.785 234.107,221.472 234.228 C 221.159 234.348,220.623 234.166,220.280 233.823 C 219.937 233.480,219.393 233.200,219.070 233.200 C 218.311 233.200,212.741 230.936,212.434 230.503 C 212.305 230.322,211.885 230.157,211.500 230.137 C 210.141 230.066,209.955 229.996,210.173 229.644 C 210.294 229.448,209.756 229.168,208.977 229.022 C 208.197 228.876,206.732 228.316,205.720 227.778 C 204.709 227.240,203.638 226.800,203.340 226.800 C 203.043 226.800,202.800 226.658,202.800 226.485 C 202.800 226.312,202.477 226.146,202.081 226.116 C 201.686 226.086,200.291 225.571,198.981 224.972 C 197.672 224.372,196.380 223.835,196.112 223.778 C 195.843 223.721,194.510 223.118,193.148 222.437 C 191.786 221.757,190.341 221.200,189.936 221.200 C 189.531 221.200,189.200 221.020,189.200 220.800 C 189.200 220.580,188.919 220.400,188.575 220.400 C 188.231 220.400,186.746 219.842,185.275 219.161 C 181.715 217.512,180.393 216.985,179.496 216.859 C 179.329 216.835,178.655 216.539,178.000 216.200 C 177.345 215.861,176.720 215.579,176.612 215.573 C 176.505 215.568,175.378 215.089,174.108 214.509 C 172.839 213.930,171.478 213.443,171.085 213.428 C 170.692 213.412,170.242 213.205,170.085 212.966 C 169.780 212.501,164.438 210.313,163.845 210.410 C 163.649 210.442,163.363 210.264,163.209 210.014 C 163.054 209.764,162.494 209.533,161.964 209.499 C 161.434 209.466,160.892 209.283,160.760 209.093 C 160.628 208.902,160.268 208.700,159.960 208.642 C 159.652 208.584,158.680 208.211,157.800 207.813 C 156.920 207.415,155.750 206.913,155.200 206.698 C 154.650 206.483,153.887 206.148,153.505 205.953 C 153.123 205.759,152.448 205.600,152.005 205.600 C 151.562 205.600,151.200 205.420,151.200 205.200 C 151.200 204.980,150.840 204.800,150.400 204.800 C 149.960 204.800,149.600 204.620,149.600 204.400 C 149.600 204.180,149.150 204.000,148.600 204.000 C 148.050 204.000,147.600 203.820,147.600 203.600 C 147.600 203.380,147.328 203.200,146.995 203.200 C 146.662 203.200,146.077 203.041,145.695 202.847 C 145.313 202.652,144.460 202.271,143.800 202.000 C 143.140 201.729,142.287 201.348,141.905 201.153 C 141.523 200.959,140.938 200.800,140.605 200.800 C 140.272 200.800,140.000 200.653,140.000 200.472 C 140.000 200.292,139.100 199.900,138.000 199.600 C 136.900 199.300,136.000 198.908,136.000 198.728 C 136.000 198.547,135.561 198.400,135.024 198.400 C 134.487 198.400,133.936 198.220,133.800 198.000 C 133.664 197.780,133.203 197.600,132.776 197.600 C 132.349 197.600,132.000 197.420,132.000 197.200 C 132.000 196.980,131.640 196.800,131.200 196.800 C 130.760 196.800,130.400 196.620,130.400 196.400 C 130.400 196.180,129.939 196.000,129.376 196.000 C 128.813 196.000,128.440 195.858,128.548 195.685 C 128.655 195.512,128.260 195.330,127.671 195.281 C 127.082 195.233,126.540 195.015,126.467 194.797 C 126.393 194.578,125.988 194.400,125.567 194.400 C 125.145 194.400,124.800 194.220,124.800 194.000 C 124.800 193.780,124.528 193.600,124.195 193.600 C 123.862 193.600,123.232 193.420,122.795 193.200 C 122.358 192.980,121.642 192.620,121.205 192.400 C 120.768 192.180,120.138 192.000,119.805 192.000 C 119.472 192.000,119.200 191.820,119.200 191.600 C 119.200 191.380,118.761 191.200,118.224 191.200 C 117.687 191.200,117.136 191.020,117.000 190.800 C 116.864 190.580,116.403 190.400,115.976 190.400 C 115.549 190.400,115.200 190.220,115.200 190.000 C 115.200 189.780,114.840 189.600,114.400 189.600 C 113.960 189.600,113.600 189.420,113.600 189.200 C 113.600 188.980,113.060 188.800,112.400 188.800 C 111.740 188.800,111.200 188.620,111.200 188.400 C 111.200 188.180,110.876 188.000,110.480 188.000 C 110.084 188.000,109.579 187.819,109.358 187.598 C 109.088 187.328,108.671 187.461,108.091 188.001 M310.800 280.800 C 310.267 281.145,310.267 281.189,310.800 281.200 C 311.333 281.211,311.333 281.256,310.800 281.602 C 310.341 281.901,310.458 281.973,311.300 281.909 C 312.447 281.822,312.865 281.200,311.776 281.200 C 311.433 281.200,311.264 281.020,311.400 280.800 C 311.707 280.303,311.568 280.303,310.800 280.800 M297.597 286.411 C 297.162 286.685,297.142 286.789,297.524 286.794 C 297.812 286.797,297.936 286.980,297.800 287.200 C 297.664 287.420,297.733 287.600,297.953 287.600 C 298.547 287.600,298.942 286.782,298.542 286.382 C 298.344 286.184,297.936 286.196,297.597 286.411 M295.851 287.412 C 295.732 287.722,295.807 288.081,296.017 288.211 C 296.228 288.341,296.400 288.246,296.400 288.000 C 296.400 287.754,296.580 287.664,296.800 287.800 C 297.020 287.936,297.200 287.876,297.200 287.666 C 297.200 287.025,296.080 286.814,295.851 287.412 M290.800 289.624 C 290.800 289.857,290.620 289.936,290.400 289.800 C 290.180 289.664,290.000 289.724,290.000 289.934 C 290.000 290.143,290.270 290.418,290.600 290.545 C 290.930 290.671,291.200 290.705,291.200 290.620 C 291.200 290.535,291.309 290.181,291.443 289.833 C 291.576 289.485,291.486 289.200,291.243 289.200 C 290.999 289.200,290.800 289.391,290.800 289.624 M288.200 290.400 C 287.540 290.568,287.180 290.729,287.400 290.759 C 287.620 290.788,287.556 290.967,287.257 291.156 C 286.876 291.398,286.847 291.582,287.160 291.775 C 287.405 291.927,287.703 291.796,287.823 291.485 C 287.960 291.128,288.405 290.988,289.026 291.107 C 289.809 291.257,289.960 291.162,289.763 290.648 C 289.626 290.291,289.489 290.021,289.457 290.047 C 289.426 290.073,288.860 290.232,288.200 290.400 M269.273 298.200 C 268.619 298.750,267.831 299.200,267.522 299.200 C 267.213 299.200,266.737 299.423,266.463 299.697 C 266.068 300.092,265.891 300.072,265.596 299.597 C 265.310 299.136,265.473 298.948,266.313 298.770 C 266.911 298.644,267.940 298.258,268.600 297.913 C 270.381 296.981,270.607 297.077,269.273 298.200 M265.200 299.945 C 265.200 300.134,264.750 300.203,264.200 300.098 C 263.650 299.993,263.200 299.838,263.200 299.753 C 263.200 299.669,263.650 299.600,264.200 299.600 C 264.750 299.600,265.200 299.755,265.200 299.945 M262.400 301.167 C 262.400 301.405,262.051 301.600,261.624 301.600 C 261.197 301.600,260.736 301.780,260.600 302.000 C 260.464 302.220,260.713 302.400,261.153 302.400 C 261.593 302.400,262.072 302.208,262.217 301.973 C 262.362 301.738,262.748 301.648,263.074 301.773 C 263.426 301.908,263.602 301.807,263.508 301.525 C 263.300 300.901,262.400 300.609,262.400 301.167 M251.600 306.019 C 251.600 306.276,251.336 306.384,251.013 306.260 C 250.690 306.136,250.319 306.207,250.189 306.417 C 249.896 306.892,251.205 306.912,251.943 306.444 C 252.321 306.204,252.351 306.017,252.043 305.826 C 251.799 305.676,251.600 305.763,251.600 306.019 M248.268 306.967 C 248.020 307.612,249.050 308.167,249.411 307.583 C 249.541 307.372,249.446 307.200,249.200 307.200 C 248.954 307.200,248.864 307.020,249.000 306.800 C 249.136 306.580,249.076 306.400,248.866 306.400 C 248.657 306.400,248.388 306.655,248.268 306.967 " stroke="none" fill="#cd91fb" fill-rule="evenodd"></path><path id="path2" d="M341.437 297.231 C 340.137 298.094,338.821 298.800,338.513 298.800 C 338.205 298.800,338.064 298.980,338.200 299.200 C 338.336 299.420,338.164 299.600,337.818 299.600 C 337.088 299.600,335.782 300.300,334.645 301.300 C 334.207 301.685,333.557 302.000,333.200 302.000 C 332.843 302.000,332.202 302.325,331.775 302.722 C 331.349 303.120,330.415 303.703,329.700 304.020 C 328.985 304.336,328.400 304.698,328.400 304.823 C 328.400 304.948,327.770 305.298,327.000 305.600 C 326.230 305.902,325.600 306.296,325.600 306.475 C 325.600 306.654,325.255 306.800,324.833 306.800 C 324.412 306.800,324.007 306.966,323.933 307.170 C 323.860 307.373,323.530 307.598,323.200 307.670 C 322.870 307.741,322.309 308.115,321.953 308.500 C 321.597 308.885,321.012 309.200,320.653 309.200 C 320.294 309.200,320.000 309.380,320.000 309.600 C 320.000 309.820,319.640 310.000,319.200 310.000 C 318.760 310.000,318.400 310.180,318.400 310.400 C 318.400 310.620,318.164 310.800,317.875 310.800 C 317.587 310.800,316.964 311.160,316.492 311.600 C 316.020 312.040,315.356 312.400,315.017 312.400 C 314.678 312.400,314.400 312.559,314.400 312.753 C 314.400 312.948,314.085 313.207,313.700 313.329 C 312.764 313.625,310.634 314.924,310.467 315.300 C 310.393 315.465,309.988 315.600,309.567 315.600 C 309.145 315.600,308.800 315.746,308.800 315.925 C 308.800 316.104,308.166 316.499,307.391 316.803 C 306.617 317.107,305.689 317.681,305.329 318.078 C 304.970 318.475,304.359 318.800,303.971 318.800 C 303.584 318.800,303.207 318.935,303.133 319.100 C 303.060 319.265,302.190 319.837,301.200 320.370 C 300.210 320.904,299.310 321.459,299.200 321.604 C 299.090 321.748,297.830 322.480,296.400 323.230 C 294.970 323.980,293.740 324.730,293.667 324.897 C 293.593 325.063,293.271 325.200,292.950 325.200 C 292.629 325.200,291.980 325.560,291.508 326.000 C 291.036 326.440,290.357 326.800,290.000 326.800 C 289.643 326.800,289.002 327.115,288.575 327.500 C 288.149 327.885,287.260 328.464,286.600 328.788 C 285.940 329.111,284.648 329.876,283.728 330.488 C 282.808 331.099,281.813 331.600,281.516 331.600 C 281.219 331.600,280.717 331.960,280.400 332.400 C 280.083 332.840,279.503 333.200,279.112 333.200 C 278.720 333.200,278.400 333.380,278.400 333.600 C 278.400 333.820,278.040 334.000,277.600 334.000 C 277.160 334.000,276.800 334.150,276.800 334.332 C 276.800 334.515,276.305 334.914,275.700 335.218 C 275.095 335.522,274.122 336.093,273.538 336.486 C 272.954 336.879,272.189 337.200,271.838 337.200 C 271.487 337.200,271.200 337.346,271.200 337.525 C 271.200 337.704,270.570 338.098,269.800 338.400 C 269.030 338.702,268.400 339.096,268.400 339.275 C 268.400 339.454,268.130 339.600,267.800 339.600 C 267.470 339.600,267.200 339.780,267.200 340.000 C 267.200 340.220,266.855 340.400,266.433 340.400 C 266.012 340.400,265.607 340.535,265.533 340.700 C 265.460 340.865,264.545 341.433,263.500 341.963 C 262.455 342.492,261.600 343.077,261.600 343.263 C 261.600 343.448,261.317 343.600,260.971 343.600 C 260.626 343.600,260.071 343.872,259.739 344.204 C 259.407 344.536,258.970 344.705,258.768 344.580 C 258.565 344.455,258.400 344.543,258.400 344.776 C 258.400 345.009,258.130 345.200,257.800 345.200 C 257.470 345.200,257.200 345.346,257.200 345.525 C 257.200 345.704,256.570 346.098,255.800 346.400 C 255.030 346.702,254.400 347.096,254.400 347.275 C 254.400 347.454,254.080 347.600,253.688 347.600 C 253.297 347.600,252.717 347.960,252.400 348.400 C 252.083 348.840,251.548 349.204,251.212 349.209 C 250.875 349.214,250.150 349.570,249.600 350.000 C 249.050 350.430,248.285 350.786,247.900 350.791 C 247.515 350.796,247.200 350.980,247.200 351.200 C 247.200 351.420,247.032 351.600,246.828 351.600 C 246.014 351.600,243.686 353.440,243.723 354.052 C 243.751 354.514,243.945 354.608,244.382 354.374 C 244.874 354.110,284.901 349.955,302.400 348.352 C 304.490 348.160,306.580 347.916,307.045 347.808 C 307.580 347.684,308.314 347.977,309.045 348.606 C 309.680 349.152,310.403 349.599,310.651 349.600 C 310.899 349.600,311.343 349.890,311.637 350.245 C 311.931 350.599,312.460 351.004,312.811 351.145 C 313.439 351.396,329.638 362.113,375.016 392.300 C 387.666 400.715,398.115 407.600,398.236 407.600 C 398.358 407.600,398.759 407.902,399.129 408.271 C 400.302 409.445,400.198 407.885,398.931 405.300 C 398.311 404.035,397.848 402.865,397.902 402.700 C 397.956 402.535,397.832 402.400,397.626 402.400 C 397.420 402.400,397.024 401.770,396.746 401.000 C 396.467 400.230,396.095 399.600,395.920 399.600 C 395.744 399.600,395.600 399.165,395.600 398.633 C 395.600 398.102,395.465 397.607,395.300 397.533 C 395.135 397.460,394.219 395.780,393.265 393.800 C 392.311 391.820,390.824 388.760,389.962 387.000 C 389.099 385.240,388.395 383.575,388.397 383.300 C 388.399 383.025,388.265 382.799,388.100 382.797 C 387.741 382.793,386.800 380.856,386.800 380.120 C 386.800 379.834,386.665 379.599,386.500 379.597 C 386.141 379.593,385.200 377.656,385.200 376.920 C 385.200 376.634,385.020 376.400,384.800 376.400 C 384.580 376.400,384.400 376.113,384.400 375.763 C 384.400 375.413,384.040 374.669,383.600 374.109 C 383.160 373.550,382.800 372.756,382.800 372.346 C 382.800 371.936,382.620 371.600,382.400 371.600 C 382.180 371.600,382.000 371.240,382.000 370.800 C 382.000 370.360,381.864 370.000,381.698 370.000 C 381.531 370.000,381.151 369.415,380.853 368.700 C 380.555 367.985,380.107 366.905,379.858 366.300 C 379.609 365.695,379.269 365.200,379.102 365.200 C 378.936 365.200,378.800 364.840,378.800 364.400 C 378.800 363.960,378.620 363.600,378.400 363.600 C 378.180 363.600,378.000 363.251,378.000 362.824 C 378.000 362.397,377.820 361.936,377.600 361.800 C 377.380 361.664,377.196 361.248,377.191 360.876 C 377.186 360.504,376.830 359.750,376.400 359.200 C 375.970 358.650,375.614 357.885,375.609 357.500 C 375.604 357.115,375.420 356.800,375.200 356.800 C 374.980 356.800,374.800 356.566,374.800 356.280 C 374.800 355.544,373.859 353.607,373.500 353.603 C 373.335 353.601,373.200 353.251,373.200 352.824 C 373.200 352.397,373.020 351.936,372.800 351.800 C 372.580 351.664,372.400 351.218,372.400 350.810 C 372.400 350.401,372.265 350.007,372.100 349.933 C 371.935 349.860,371.170 348.540,370.400 347.000 C 369.630 345.460,368.865 344.140,368.700 344.067 C 368.535 343.993,368.400 343.684,368.400 343.379 C 368.400 343.074,368.040 342.183,367.600 341.400 C 367.160 340.617,366.800 339.726,366.800 339.421 C 366.800 339.116,366.665 338.807,366.500 338.733 C 366.068 338.541,364.400 335.228,364.400 334.562 C 364.400 334.253,364.220 334.000,364.000 334.000 C 363.780 334.000,363.600 333.640,363.600 333.200 C 363.600 332.760,363.420 332.400,363.200 332.400 C 362.980 332.400,362.800 332.040,362.800 331.600 C 362.800 331.160,362.620 330.800,362.400 330.800 C 362.180 330.800,362.000 330.572,362.000 330.294 C 362.000 330.016,361.439 328.621,360.754 327.194 C 357.033 319.450,354.566 314.585,354.300 314.467 C 354.135 314.393,354.000 313.898,354.000 313.367 C 354.000 312.835,353.820 312.400,353.600 312.400 C 353.380 312.400,353.200 312.122,353.200 311.783 C 353.200 311.444,352.840 310.780,352.400 310.308 C 351.960 309.836,351.600 309.134,351.600 308.748 C 351.600 308.363,351.420 307.936,351.200 307.800 C 350.980 307.664,350.800 307.203,350.800 306.776 C 350.800 306.349,350.620 306.000,350.400 306.000 C 350.180 306.000,350.000 305.655,350.000 305.233 C 350.000 304.812,349.865 304.407,349.700 304.333 C 349.268 304.141,347.600 300.828,347.600 300.162 C 347.600 299.853,347.420 299.600,347.200 299.600 C 346.980 299.600,346.800 299.240,346.800 298.800 C 346.800 298.360,346.620 298.000,346.400 298.000 C 346.180 298.000,346.000 297.717,346.000 297.371 C 346.000 295.288,344.437 295.240,341.437 297.231 " stroke="none" fill="#f97cd3" fill-rule="evenodd"></path><path id="path3" d="M307.000 347.817 C 306.780 347.901,304.800 348.134,302.600 348.335 C 285.423 349.898,244.876 354.109,244.367 354.383 C 243.621 354.784,243.437 353.614,244.161 353.070 C 244.443 352.857,244.386 352.797,244.000 352.900 C 243.000 353.169,242.977 355.200,243.973 355.200 C 244.428 355.200,244.800 355.380,244.800 355.600 C 244.800 355.820,245.340 356.000,246.000 356.000 C 246.660 356.000,247.200 356.180,247.200 356.400 C 247.200 356.620,247.549 356.800,247.976 356.800 C 248.403 356.800,248.864 356.980,249.000 357.200 C 249.136 357.420,249.687 357.600,250.224 357.600 C 250.761 357.600,251.200 357.780,251.200 358.000 C 251.200 358.220,251.740 358.400,252.400 358.400 C 253.090 358.400,253.603 358.612,253.606 358.900 C 253.610 359.233,253.742 359.200,254.000 358.800 C 254.258 358.400,254.390 358.367,254.394 358.700 C 254.397 358.975,254.760 359.200,255.200 359.200 C 255.640 359.200,256.000 359.380,256.000 359.600 C 256.000 359.820,256.540 360.000,257.200 360.000 C 257.860 360.000,258.400 360.180,258.400 360.400 C 258.400 360.620,258.940 360.800,259.600 360.800 C 260.260 360.800,260.800 360.980,260.800 361.200 C 260.800 361.420,261.160 361.600,261.600 361.600 C 262.040 361.600,262.400 361.780,262.400 362.000 C 262.400 362.220,262.940 362.400,263.600 362.400 C 264.260 362.400,264.800 362.580,264.800 362.800 C 264.800 363.020,265.340 363.200,266.000 363.200 C 266.660 363.200,267.200 363.380,267.200 363.600 C 267.200 363.820,267.740 364.000,268.400 364.000 C 269.060 364.000,269.600 364.180,269.600 364.400 C 269.600 364.620,270.140 364.800,270.800 364.800 C 271.460 364.800,272.000 364.980,272.000 365.200 C 272.000 365.420,272.540 365.600,273.200 365.600 C 273.860 365.600,274.400 365.780,274.400 366.000 C 274.400 366.220,274.749 366.400,275.176 366.400 C 275.603 366.400,276.064 366.580,276.200 366.800 C 276.336 367.020,276.887 367.200,277.424 367.200 C 277.961 367.200,278.400 367.380,278.400 367.600 C 278.400 367.820,278.940 368.000,279.600 368.000 C 280.260 368.000,280.800 368.180,280.800 368.400 C 280.800 368.620,281.340 368.800,282.000 368.800 C 282.660 368.800,283.200 368.980,283.200 369.200 C 283.200 369.420,283.740 369.600,284.400 369.600 C 285.090 369.600,285.603 369.812,285.606 370.100 C 285.610 370.433,285.742 370.400,286.000 370.000 C 286.258 369.600,286.390 369.567,286.394 369.900 C 286.397 370.175,286.760 370.400,287.200 370.400 C 287.640 370.400,288.000 370.580,288.000 370.800 C 288.000 371.020,288.349 371.200,288.776 371.200 C 289.203 371.200,289.664 371.380,289.800 371.600 C 289.936 371.820,290.487 372.000,291.024 372.000 C 291.561 372.000,292.000 372.180,292.000 372.400 C 292.000 372.620,292.540 372.800,293.200 372.800 C 293.860 372.800,294.400 372.980,294.400 373.200 C 294.400 373.420,294.940 373.600,295.600 373.600 C 296.260 373.600,296.800 373.780,296.800 374.000 C 296.800 374.220,297.340 374.400,298.000 374.400 C 298.660 374.400,299.200 374.580,299.200 374.800 C 299.200 375.020,299.740 375.200,300.400 375.200 C 301.060 375.200,301.600 375.380,301.600 375.600 C 301.600 375.820,302.039 376.000,302.576 376.000 C 303.113 376.000,303.664 376.180,303.800 376.400 C 303.936 376.620,304.397 376.800,304.824 376.800 C 305.251 376.800,305.600 376.980,305.600 377.200 C 305.600 377.420,306.140 377.600,306.800 377.600 C 307.460 377.600,308.000 377.780,308.000 378.000 C 308.000 378.220,308.540 378.400,309.200 378.400 C 309.860 378.400,310.400 378.580,310.400 378.800 C 310.400 379.020,310.940 379.200,311.600 379.200 C 312.260 379.200,312.800 379.380,312.800 379.600 C 312.800 379.820,313.239 380.000,313.776 380.000 C 314.313 380.000,314.864 380.180,315.000 380.400 C 315.136 380.620,315.687 380.800,316.224 380.800 C 316.761 380.800,317.200 380.980,317.200 381.200 C 317.200 381.420,317.650 381.600,318.200 381.600 C 318.750 381.600,319.200 381.780,319.200 382.000 C 319.200 382.220,319.740 382.400,320.400 382.400 C 321.060 382.400,321.600 382.580,321.600 382.800 C 321.600 383.020,322.039 383.200,322.576 383.200 C 323.113 383.200,323.664 383.380,323.800 383.600 C 323.936 383.820,324.476 384.000,325.000 384.000 C 325.524 384.000,326.064 384.180,326.200 384.400 C 326.336 384.620,326.887 384.800,327.424 384.800 C 327.961 384.800,328.400 384.980,328.400 385.200 C 328.400 385.420,328.940 385.600,329.600 385.600 C 330.260 385.600,330.800 385.780,330.800 386.000 C 330.800 386.220,331.250 386.400,331.800 386.400 C 332.350 386.400,332.800 386.580,332.800 386.800 C 332.800 387.020,333.340 387.200,334.000 387.200 C 334.660 387.200,335.200 387.380,335.200 387.600 C 335.200 387.820,335.639 388.000,336.176 388.000 C 336.713 388.000,337.264 388.180,337.400 388.400 C 337.536 388.620,338.076 388.800,338.600 388.800 C 339.124 388.800,339.664 388.980,339.800 389.200 C 339.936 389.420,340.487 389.600,341.024 389.600 C 341.561 389.600,342.000 389.780,342.000 390.000 C 342.000 390.220,342.540 390.400,343.200 390.400 C 343.860 390.400,344.400 390.580,344.400 390.800 C 344.400 391.020,344.850 391.200,345.400 391.200 C 345.950 391.200,346.400 391.380,346.400 391.600 C 346.400 391.820,346.839 392.000,347.376 392.000 C 347.913 392.000,348.464 392.180,348.600 392.400 C 348.736 392.620,349.276 392.800,349.800 392.800 C 350.324 392.800,350.864 392.980,351.000 393.200 C 351.136 393.420,351.687 393.600,352.224 393.600 C 352.761 393.600,353.200 393.780,353.200 394.000 C 353.200 394.220,353.740 394.400,354.400 394.400 C 355.060 394.400,355.600 394.580,355.600 394.800 C 355.600 395.020,356.140 395.200,356.800 395.200 C 357.460 395.200,358.000 395.380,358.000 395.600 C 358.000 395.820,358.362 396.000,358.805 396.000 C 359.248 396.000,359.968 396.180,360.405 396.400 C 360.842 396.620,361.558 396.980,361.995 397.200 C 362.432 397.420,363.141 397.600,363.571 397.600 C 364.001 397.600,364.464 397.780,364.600 398.000 C 364.736 398.220,365.287 398.400,365.824 398.400 C 366.361 398.400,366.800 398.580,366.800 398.800 C 366.800 399.020,367.340 399.200,368.000 399.200 C 368.660 399.200,369.200 399.380,369.200 399.600 C 369.200 399.820,369.740 400.000,370.400 400.000 C 371.060 400.000,371.600 400.180,371.600 400.400 C 371.600 400.620,371.962 400.800,372.405 400.800 C 372.848 400.800,373.568 400.980,374.005 401.200 C 374.442 401.420,375.158 401.780,375.595 402.000 C 376.032 402.220,376.741 402.400,377.171 402.400 C 377.601 402.400,378.064 402.580,378.200 402.800 C 378.336 403.020,378.966 403.200,379.600 403.200 C 380.234 403.200,380.864 403.380,381.000 403.600 C 381.136 403.820,381.597 404.000,382.024 404.000 C 382.451 404.000,382.800 404.158,382.800 404.350 C 382.800 404.543,383.288 404.700,383.883 404.700 C 384.479 404.700,385.034 404.903,385.117 405.150 C 385.199 405.398,385.614 405.600,386.039 405.600 C 386.798 405.600,387.227 405.763,389.182 406.792 C 389.894 407.167,390.205 407.184,390.315 406.854 C 390.398 406.605,390.732 406.400,391.057 406.400 C 391.382 406.400,391.549 406.560,391.428 406.755 C 391.307 406.950,391.511 407.355,391.881 407.655 C 392.251 407.955,392.435 408.001,392.289 407.758 C 391.470 406.390,394.060 406.419,396.112 407.801 C 397.254 408.570,398.631 409.200,399.170 409.200 L 400.151 409.200 399.292 408.400 C 398.820 407.960,398.339 407.600,398.225 407.600 C 398.110 407.600,387.666 400.715,375.016 392.300 C 329.638 362.113,313.439 351.396,312.811 351.145 C 312.460 351.004,311.931 350.599,311.637 350.245 C 311.343 349.890,310.899 349.600,310.651 349.600 C 310.403 349.599,309.677 349.149,309.038 348.600 C 307.866 347.591,307.726 347.538,307.000 347.817 M251.200 348.600 C 250.252 349.142,250.245 349.172,251.057 349.186 C 251.529 349.194,252.018 348.930,252.145 348.600 C 252.420 347.884,252.453 347.884,251.200 348.600 " stroke="none" fill="#de5bb5" fill-rule="evenodd"></path><path id="path4" d="M320.425 277.985 C 320.121 278.172,319.631 278.233,319.336 278.120 C 319.041 278.007,318.800 278.114,318.800 278.357 C 318.800 278.924,320.668 278.938,321.016 278.373 C 321.385 277.777,321.082 277.578,320.425 277.985 M223.780 278.362 C 223.571 278.562,222.725 279.102,221.900 279.562 C 221.075 280.023,219.770 280.760,219.000 281.200 C 218.230 281.640,216.925 282.379,216.100 282.843 C 215.275 283.306,214.420 283.827,214.200 284.001 C 213.980 284.174,212.900 284.808,211.800 285.408 C 210.700 286.009,208.180 287.446,206.200 288.603 C 204.220 289.759,199.270 292.645,195.200 295.017 C 191.130 297.388,186.270 300.222,184.400 301.315 C 182.530 302.408,180.460 303.614,179.800 303.995 C 179.140 304.376,177.647 305.253,176.482 305.944 C 175.318 306.635,174.270 307.200,174.154 307.200 C 174.039 307.200,173.159 307.740,172.200 308.400 C 171.241 309.060,170.372 309.600,170.269 309.600 C 170.166 309.600,168.869 310.337,167.388 311.237 C 165.906 312.137,164.132 313.194,163.447 313.585 C 162.761 313.977,160.580 315.244,158.600 316.400 C 156.620 317.556,154.442 318.821,153.760 319.211 C 153.077 319.601,151.187 320.720,149.560 321.699 C 146.918 323.287,143.758 325.146,140.200 327.203 C 138.709 328.066,132.909 331.463,128.400 334.116 C 123.216 337.165,118.334 340.025,117.000 340.795 C 116.340 341.176,113.280 342.981,110.200 344.808 C 107.120 346.634,103.610 348.698,102.400 349.394 C 98.730 351.505,78.802 363.204,75.640 365.103 C 74.013 366.081,72.123 367.199,71.440 367.589 C 70.758 367.979,68.670 369.194,66.800 370.291 C 59.235 374.727,56.142 376.536,55.000 377.194 C 53.325 378.159,45.194 382.974,41.640 385.106 C 40.013 386.082,38.078 387.222,37.340 387.640 C 36.603 388.058,35.415 388.734,34.700 389.142 C 33.559 389.794,26.334 394.034,16.200 400.001 C 14.440 401.037,11.421 402.805,9.491 403.929 C 2.871 407.787,0.702 409.560,3.218 409.056 C 3.956 408.909,4.673 408.606,4.810 408.383 C 4.948 408.161,5.631 407.939,6.329 407.889 C 7.027 407.840,7.599 407.665,7.599 407.500 C 7.600 407.335,7.943 407.200,8.362 407.200 C 9.021 407.200,10.189 406.714,13.295 405.150 C 13.677 404.957,14.262 404.800,14.595 404.800 C 14.928 404.800,15.200 404.620,15.200 404.400 C 15.200 404.180,15.562 404.000,16.005 404.000 C 16.783 404.000,17.169 403.858,19.095 402.862 C 19.587 402.608,20.262 402.400,20.595 402.400 C 20.928 402.400,21.200 402.220,21.200 402.000 C 21.200 401.780,21.650 401.600,22.200 401.600 C 22.750 401.600,23.200 401.420,23.200 401.200 C 23.200 400.980,23.472 400.800,23.805 400.800 C 24.138 400.800,24.723 400.641,25.105 400.447 C 25.487 400.252,26.340 399.871,27.000 399.600 C 27.660 399.329,28.513 398.948,28.895 398.753 C 29.277 398.559,29.862 398.400,30.195 398.400 C 30.528 398.400,30.800 398.220,30.800 398.000 C 30.800 397.780,31.143 397.600,31.562 397.600 C 31.981 397.600,33.106 397.214,34.062 396.743 C 35.689 395.941,36.467 395.606,38.700 394.746 C 40.449 394.073,41.808 393.503,42.495 393.153 C 42.877 392.959,43.462 392.800,43.795 392.800 C 44.128 392.800,44.400 392.620,44.400 392.400 C 44.400 392.180,44.850 392.000,45.400 392.000 C 45.950 392.000,46.400 391.820,46.400 391.600 C 46.400 391.380,46.760 391.200,47.200 391.200 C 47.640 391.200,48.000 391.020,48.000 390.800 C 48.000 390.580,48.362 390.400,48.805 390.400 C 49.248 390.400,49.923 390.241,50.305 390.047 C 50.687 389.852,51.540 389.471,52.200 389.200 C 52.860 388.929,53.713 388.548,54.095 388.353 C 54.477 388.159,55.062 388.000,55.395 388.000 C 55.728 388.000,56.000 387.820,56.000 387.600 C 56.000 387.380,56.349 387.200,56.776 387.200 C 57.203 387.200,57.664 387.020,57.800 386.800 C 57.936 386.580,58.487 386.400,59.024 386.400 C 59.561 386.400,60.000 386.220,60.000 386.000 C 60.000 385.780,60.272 385.600,60.605 385.600 C 60.938 385.600,61.568 385.420,62.005 385.200 C 62.442 384.980,63.158 384.620,63.595 384.400 C 64.032 384.180,64.662 384.000,64.995 384.000 C 65.328 384.000,65.600 383.820,65.600 383.600 C 65.600 383.380,66.050 383.200,66.600 383.200 C 67.150 383.200,67.600 383.020,67.600 382.800 C 67.600 382.580,68.050 382.400,68.600 382.400 C 69.150 382.400,69.600 382.220,69.600 382.000 C 69.600 381.780,69.872 381.600,70.205 381.600 C 70.793 381.600,71.218 381.433,73.095 380.462 C 73.587 380.208,74.262 380.000,74.595 380.000 C 74.928 380.000,75.200 379.820,75.200 379.600 C 75.200 379.380,75.650 379.200,76.200 379.200 C 76.750 379.200,77.200 379.020,77.200 378.800 C 77.200 378.580,77.650 378.400,78.200 378.400 C 78.750 378.400,79.200 378.220,79.200 378.000 C 79.200 377.780,79.560 377.600,80.000 377.600 C 80.440 377.600,80.800 377.420,80.800 377.200 C 80.800 376.980,81.340 376.800,82.000 376.800 C 82.660 376.800,83.200 376.620,83.200 376.400 C 83.200 376.180,83.560 376.000,84.000 376.000 C 84.440 376.000,84.800 375.820,84.800 375.600 C 84.800 375.380,85.250 375.200,85.800 375.200 C 86.350 375.200,86.800 375.020,86.800 374.800 C 86.800 374.580,87.250 374.400,87.800 374.400 C 88.350 374.400,88.800 374.220,88.800 374.000 C 88.800 373.780,89.250 373.600,89.800 373.600 C 90.350 373.600,90.800 373.420,90.800 373.200 C 90.800 372.980,91.250 372.800,91.800 372.800 C 92.350 372.800,92.800 372.620,92.800 372.400 C 92.800 372.180,93.160 372.000,93.600 372.000 C 94.040 372.000,94.400 371.820,94.400 371.600 C 94.400 371.380,94.940 371.200,95.600 371.200 C 96.260 371.200,96.800 371.020,96.800 370.800 C 96.800 370.580,97.160 370.400,97.600 370.400 C 98.040 370.400,98.400 370.220,98.400 370.000 C 98.400 369.780,98.839 369.600,99.376 369.600 C 99.913 369.600,100.464 369.420,100.600 369.200 C 100.736 368.980,101.197 368.800,101.624 368.800 C 102.051 368.800,102.400 368.620,102.400 368.400 C 102.400 368.180,102.760 368.000,103.200 368.000 C 103.640 368.000,104.000 367.820,104.000 367.600 C 104.000 367.380,104.540 367.200,105.200 367.200 C 105.860 367.200,106.400 367.020,106.400 366.800 C 106.400 366.580,106.760 366.400,107.200 366.400 C 107.640 366.400,108.000 366.220,108.000 366.000 C 108.000 365.780,108.439 365.600,108.976 365.600 C 109.513 365.600,110.064 365.420,110.200 365.200 C 110.336 364.980,110.797 364.800,111.224 364.800 C 111.651 364.800,112.000 364.620,112.000 364.400 C 112.000 364.180,112.439 364.000,112.976 364.000 C 113.513 364.000,114.064 363.820,114.200 363.600 C 114.336 363.380,114.797 363.200,115.224 363.200 C 115.651 363.200,116.000 363.020,116.000 362.800 C 116.000 362.580,116.360 362.400,116.800 362.400 C 117.240 362.400,117.600 362.220,117.600 362.000 C 117.600 361.780,118.140 361.600,118.800 361.600 C 119.460 361.600,120.000 361.420,120.000 361.200 C 120.000 360.980,120.360 360.800,120.800 360.800 C 121.240 360.800,121.600 360.620,121.600 360.400 C 121.600 360.180,122.039 360.000,122.576 360.000 C 123.113 360.000,123.664 359.820,123.800 359.600 C 123.936 359.380,124.397 359.200,124.824 359.200 C 125.251 359.200,125.600 359.020,125.600 358.800 C 125.600 358.580,125.960 358.400,126.400 358.400 C 126.840 358.400,127.200 358.220,127.200 358.000 C 127.200 357.780,127.740 357.600,128.400 357.600 C 129.060 357.600,129.600 357.420,129.600 357.200 C 129.600 356.980,129.960 356.800,130.400 356.800 C 130.840 356.800,131.200 356.620,131.200 356.400 C 131.200 356.180,131.740 356.000,132.400 356.000 C 133.060 356.000,133.600 355.820,133.600 355.600 C 133.600 355.380,133.960 355.200,134.400 355.200 C 134.840 355.200,135.200 355.020,135.200 354.800 C 135.200 354.580,135.639 354.400,136.176 354.400 C 136.713 354.400,137.264 354.220,137.400 354.000 C 137.536 353.780,137.997 353.600,138.424 353.600 C 138.851 353.600,139.200 353.420,139.200 353.200 C 139.200 352.980,139.560 352.800,140.000 352.800 C 140.440 352.800,140.800 352.620,140.800 352.400 C 140.800 352.180,141.340 352.000,142.000 352.000 C 142.660 352.000,143.200 351.820,143.200 351.600 C 143.200 351.380,143.560 351.200,144.000 351.200 C 144.440 351.200,144.800 351.020,144.800 350.800 C 144.800 350.580,145.239 350.400,145.776 350.400 C 146.313 350.400,146.864 350.220,147.000 350.000 C 147.136 349.780,147.597 349.600,148.024 349.600 C 148.451 349.600,148.800 349.420,148.800 349.200 C 148.800 348.980,149.149 348.800,149.576 348.800 C 150.003 348.800,150.464 348.620,150.600 348.400 C 150.736 348.180,151.287 348.000,151.824 348.000 C 152.361 348.000,152.801 347.865,152.803 347.700 C 152.808 347.253,154.826 346.400,155.880 346.400 C 156.386 346.400,156.800 346.220,156.800 346.000 C 156.800 345.780,157.160 345.600,157.600 345.600 C 158.040 345.600,158.400 345.420,158.400 345.200 C 158.400 344.980,158.839 344.800,159.376 344.800 C 159.913 344.800,160.464 344.620,160.600 344.400 C 160.736 344.180,161.197 344.000,161.624 344.000 C 162.051 344.000,162.400 343.820,162.400 343.600 C 162.400 343.380,162.745 343.200,163.167 343.200 C 163.588 343.200,163.993 343.022,164.067 342.803 C 164.140 342.585,164.695 342.366,165.300 342.316 C 165.905 342.266,166.400 342.085,166.400 341.913 C 166.400 341.741,166.760 341.600,167.200 341.600 C 167.640 341.600,168.000 341.420,168.000 341.200 C 168.000 340.980,168.338 340.800,168.751 340.800 C 169.164 340.800,170.109 340.546,170.851 340.236 C 171.593 339.926,172.380 339.639,172.600 339.597 C 172.820 339.555,173.360 339.323,173.800 339.080 C 174.240 338.837,174.780 338.596,175.000 338.545 C 175.765 338.365,181.355 335.970,181.776 335.641 C 182.009 335.459,182.728 335.184,183.373 335.029 C 184.018 334.875,185.267 334.400,186.148 333.974 C 187.029 333.548,187.986 333.200,188.275 333.200 C 188.564 333.200,188.800 333.020,188.800 332.800 C 188.800 332.580,188.935 332.437,189.100 332.481 C 189.528 332.597,192.400 331.486,192.400 331.205 C 192.400 331.076,192.715 330.944,193.100 330.911 C 193.738 330.857,196.884 329.607,201.000 327.772 C 201.880 327.380,202.780 327.014,203.000 326.960 C 204.073 326.695,207.835 324.952,208.094 324.600 C 208.256 324.380,208.391 324.332,208.394 324.494 C 208.400 324.790,211.401 323.708,214.000 322.472 C 214.770 322.106,215.580 321.797,215.800 321.785 C 216.020 321.773,216.157 321.553,216.105 321.296 C 216.049 321.024,216.270 320.929,216.632 321.068 C 216.974 321.199,217.647 321.119,218.127 320.889 C 218.607 320.660,219.326 320.367,219.725 320.239 C 220.124 320.111,220.361 319.860,220.251 319.683 C 220.141 319.505,220.445 319.357,220.926 319.354 C 221.407 319.350,222.430 319.071,223.200 318.732 C 224.687 318.079,228.336 316.559,230.000 315.899 C 230.550 315.681,231.450 315.278,232.000 315.003 C 232.550 314.728,233.677 314.285,234.504 314.019 C 235.456 313.713,235.909 313.364,235.740 313.068 C 235.592 312.810,235.619 312.733,235.799 312.897 C 235.979 313.060,236.403 312.970,236.740 312.697 C 237.144 312.370,237.259 312.358,237.076 312.663 C 236.866 313.013,237.042 313.013,237.800 312.663 C 238.350 312.408,238.721 311.988,238.624 311.729 C 238.501 311.402,238.852 311.324,239.773 311.473 C 240.542 311.598,241.213 311.502,241.373 311.244 C 241.524 311.000,241.961 310.800,242.344 310.800 C 242.727 310.800,243.263 310.577,243.535 310.305 C 243.808 310.032,244.323 309.807,244.681 309.805 C 245.039 309.802,245.404 309.582,245.494 309.316 C 245.597 309.009,245.285 308.863,244.641 308.916 C 244.083 308.962,243.665 308.828,243.713 308.618 C 243.761 308.409,244.115 308.214,244.500 308.185 C 245.764 308.092,245.712 307.650,244.441 307.686 C 243.758 307.706,243.200 307.855,243.200 308.018 C 243.200 308.181,242.921 308.422,242.579 308.553 C 242.206 308.696,242.061 308.625,242.216 308.374 C 242.358 308.145,242.097 307.631,241.637 307.232 C 241.177 306.833,240.800 306.252,240.800 305.941 C 240.800 305.631,240.440 305.117,240.000 304.800 C 239.560 304.483,239.200 303.903,239.200 303.512 C 239.200 303.120,239.020 302.800,238.800 302.800 C 238.580 302.800,238.400 302.480,238.400 302.088 C 238.400 301.697,238.040 301.117,237.600 300.800 C 237.160 300.483,236.800 299.903,236.800 299.512 C 236.800 299.120,236.620 298.800,236.400 298.800 C 236.180 298.800,236.000 298.480,236.000 298.088 C 236.000 297.697,235.640 297.117,235.200 296.800 C 234.760 296.483,234.400 295.903,234.400 295.512 C 234.400 295.120,234.220 294.800,234.000 294.800 C 233.780 294.800,233.600 294.440,233.600 294.000 C 233.600 293.560,233.420 293.200,233.200 293.200 C 232.980 293.200,232.800 292.880,232.800 292.488 C 232.800 292.097,232.440 291.517,232.000 291.200 C 231.560 290.883,231.200 290.303,231.200 289.912 C 231.200 289.520,231.020 289.200,230.800 289.200 C 230.580 289.200,230.400 288.880,230.400 288.488 C 230.400 288.097,230.040 287.517,229.600 287.200 C 229.160 286.883,228.800 286.303,228.800 285.912 C 228.800 285.520,228.620 285.200,228.400 285.200 C 228.180 285.200,228.000 284.880,228.000 284.488 C 228.000 284.097,227.640 283.517,227.200 283.200 C 226.760 282.883,226.400 282.303,226.400 281.912 C 226.400 281.520,226.220 281.200,226.000 281.200 C 225.780 281.200,225.600 280.855,225.600 280.433 C 225.600 280.012,225.375 279.562,225.100 279.433 C 224.700 279.247,224.700 279.153,225.100 278.967 C 225.375 278.838,225.600 278.568,225.600 278.367 C 225.600 277.894,224.275 277.890,223.780 278.362 M316.300 278.412 C 316.795 278.611,317.200 278.982,317.200 279.236 C 317.200 279.551,316.985 279.523,316.525 279.149 C 315.931 278.666,315.883 278.688,316.125 279.333 C 316.313 279.832,316.241 280.008,315.900 279.883 C 315.625 279.783,315.444 279.500,315.498 279.255 C 315.554 279.004,315.160 278.845,314.598 278.892 C 314.049 278.937,313.600 279.183,313.600 279.438 C 313.600 280.493,312.347 281.016,311.757 280.208 C 311.451 279.790,311.200 279.661,311.200 279.924 C 311.200 280.186,310.829 280.400,310.376 280.400 C 309.923 280.400,309.656 280.567,309.782 280.771 C 309.909 280.976,309.604 281.201,309.106 281.273 C 308.436 281.369,308.225 281.636,308.295 282.301 C 308.384 283.136,307.974 283.422,307.000 283.206 C 305.636 282.902,304.000 282.916,304.000 283.230 C 304.000 283.434,303.640 283.600,303.200 283.600 C 302.302 283.600,302.061 284.996,302.900 285.335 C 303.175 285.446,303.001 285.551,302.513 285.568 C 301.882 285.591,301.692 285.426,301.855 285.001 C 302.026 284.555,301.826 284.423,301.071 284.486 C 300.514 284.532,300.145 284.712,300.252 284.885 C 300.429 285.171,299.431 285.362,298.073 285.303 C 297.784 285.290,297.648 285.381,297.772 285.505 C 298.160 285.894,294.818 287.181,294.092 286.922 C 293.711 286.786,293.878 287.063,294.463 287.537 C 295.570 288.436,296.033 288.610,295.953 288.100 C 295.818 287.245,296.063 286.849,296.600 287.055 C 296.930 287.182,297.200 287.457,297.200 287.666 C 297.200 287.876,297.020 287.936,296.800 287.800 C 296.580 287.664,296.400 287.743,296.400 287.976 C 296.400 288.684,297.145 288.450,297.600 287.600 C 297.925 286.993,297.904 286.799,297.514 286.794 C 297.142 286.789,297.161 286.686,297.581 286.420 C 298.331 285.946,298.919 286.313,298.627 287.074 C 298.486 287.441,298.590 287.597,298.900 287.483 C 299.175 287.383,299.354 287.094,299.297 286.842 C 299.230 286.542,299.576 286.463,300.297 286.615 L 301.400 286.846 300.400 286.223 C 299.426 285.617,299.449 285.607,301.259 285.828 C 302.390 285.966,303.222 285.887,303.383 285.627 C 303.528 285.392,303.997 285.200,304.424 285.200 C 304.851 285.200,305.200 285.020,305.200 284.800 C 305.200 284.580,305.481 284.400,305.824 284.400 C 306.167 284.400,306.347 284.238,306.225 284.040 C 306.102 283.842,306.659 283.680,307.463 283.680 C 308.370 283.680,309.056 283.444,309.272 283.057 C 309.480 282.685,309.887 282.535,310.280 282.686 C 310.770 282.874,310.875 282.773,310.690 282.290 C 310.383 281.490,311.943 280.860,312.400 281.600 C 312.614 281.947,312.778 281.959,312.974 281.643 C 313.124 281.399,313.597 281.200,314.024 281.200 C 314.451 281.200,314.800 280.947,314.800 280.637 C 314.800 280.299,315.079 280.147,315.500 280.257 C 315.885 280.357,316.525 280.200,316.922 279.909 C 317.852 279.226,317.416 277.991,316.257 278.025 C 315.409 278.050,315.410 278.055,316.300 278.412 M292.700 287.846 C 293.285 288.104,293.381 289.600,292.813 289.600 C 292.599 289.600,292.535 289.314,292.669 288.964 C 292.903 288.354,290.981 288.214,290.400 288.799 C 289.771 289.432,288.400 289.964,288.400 289.575 C 288.400 289.337,288.115 289.427,287.768 289.775 C 287.420 290.123,286.942 290.288,286.706 290.142 C 286.451 289.985,286.393 290.064,286.562 290.338 C 286.749 290.641,286.495 290.800,285.824 290.800 C 285.167 290.800,284.800 291.022,284.800 291.418 C 284.800 291.757,285.025 291.999,285.300 291.954 C 285.575 291.910,286.127 292.016,286.527 292.190 C 286.956 292.377,287.439 292.321,287.707 292.053 C 287.956 291.804,288.529 291.587,288.980 291.572 C 289.790 291.544,289.790 291.540,289.000 291.232 C 288.462 291.021,288.057 291.116,287.761 291.520 C 287.447 291.951,287.241 291.990,287.037 291.661 C 286.881 291.407,286.954 291.200,287.200 291.200 C 287.446 291.200,287.548 291.040,287.428 290.845 C 287.307 290.649,287.746 290.411,288.404 290.314 C 289.062 290.218,289.600 290.287,289.600 290.469 C 289.600 290.651,289.915 290.786,290.300 290.768 C 290.718 290.750,290.799 290.656,290.500 290.535 C 290.225 290.424,290.000 290.158,290.000 289.943 C 290.000 289.728,290.180 289.664,290.400 289.800 C 290.620 289.936,290.800 289.857,290.800 289.624 C 290.800 289.391,290.992 289.200,291.227 289.200 C 291.469 289.200,291.557 289.589,291.431 290.100 C 291.308 290.595,291.311 290.775,291.437 290.500 C 291.563 290.225,292.091 290.000,292.610 290.000 C 293.128 290.000,293.664 289.820,293.800 289.600 C 293.936 289.380,294.442 289.187,294.924 289.172 C 295.696 289.147,295.713 289.109,295.070 288.856 C 294.669 288.698,294.360 288.396,294.383 288.184 C 294.406 287.973,293.924 287.761,293.312 287.713 C 292.701 287.665,292.425 287.725,292.700 287.846 M280.484 292.861 C 280.861 293.100,280.804 293.189,280.271 293.194 C 278.993 293.205,278.262 294.264,279.314 294.580 C 280.178 294.840,280.180 294.855,279.400 295.195 C 278.747 295.480,278.724 295.549,279.276 295.572 C 279.648 295.587,280.064 295.420,280.200 295.200 C 280.336 294.980,280.777 294.800,281.181 294.800 C 281.584 294.800,282.017 294.533,282.142 294.207 C 282.267 293.880,282.628 293.713,282.944 293.834 C 283.260 293.955,283.638 293.862,283.783 293.627 C 283.928 293.392,284.487 293.200,285.024 293.200 C 285.561 293.200,286.000 293.020,286.000 292.800 C 286.000 292.306,285.737 292.302,284.097 292.772 C 283.384 292.977,282.800 293.007,282.800 292.839 C 282.800 292.671,282.163 292.533,281.384 292.533 C 280.497 292.533,280.161 292.655,280.484 292.861 M277.400 294.306 C 276.797 294.749,276.732 295.599,277.300 295.606 C 277.633 295.610,277.600 295.742,277.200 296.000 C 276.679 296.337,276.687 296.389,277.257 296.394 C 278.008 296.401,278.666 295.089,278.020 294.873 C 277.786 294.795,277.697 294.567,277.821 294.366 C 278.092 293.928,277.944 293.907,277.400 294.306 M274.652 295.285 C 274.829 295.571,273.890 295.780,273.070 295.637 C 272.889 295.606,272.855 295.765,272.994 295.990 C 273.134 296.216,272.900 296.400,272.473 296.400 C 272.047 296.400,271.486 296.656,271.226 296.969 C 270.839 297.435,270.902 297.498,271.577 297.322 C 272.030 297.204,272.400 297.288,272.400 297.511 C 272.400 298.014,271.255 298.481,270.764 298.178 C 270.564 298.054,270.400 298.154,270.400 298.400 C 270.400 298.646,270.192 298.719,269.938 298.562 C 269.652 298.385,269.585 298.452,269.762 298.738 C 269.919 298.992,269.827 299.200,269.557 299.200 C 269.287 299.200,269.154 299.287,269.260 299.393 C 269.524 299.657,272.132 298.695,272.483 298.203 C 272.639 297.985,272.999 297.792,273.283 297.775 C 274.346 297.708,276.391 296.709,276.176 296.361 C 276.053 296.162,276.138 296.000,276.364 296.000 C 276.590 296.000,276.673 295.733,276.548 295.408 C 276.423 295.082,275.901 294.850,275.389 294.893 C 274.877 294.935,274.545 295.112,274.652 295.285 M268.600 297.913 C 267.940 298.258,266.877 298.648,266.237 298.779 C 265.173 298.997,265.129 299.071,265.713 299.656 C 266.297 300.240,266.270 300.331,265.390 300.732 C 264.758 301.020,264.344 301.033,264.182 300.771 C 264.046 300.551,263.240 300.412,262.391 300.463 C 261.542 300.513,260.938 300.699,261.047 300.877 C 261.157 301.055,260.866 301.200,260.400 301.200 C 259.934 301.200,259.664 301.380,259.800 301.600 C 259.949 301.841,259.418 302.000,258.466 302.000 C 256.963 302.000,256.114 302.699,256.351 303.742 C 256.393 303.930,256.220 304.335,255.965 304.642 C 255.601 305.081,255.643 305.200,256.164 305.200 C 256.527 305.200,256.921 304.950,257.038 304.644 C 257.162 304.323,257.578 304.174,258.026 304.291 C 258.467 304.406,258.800 304.291,258.800 304.023 C 258.800 303.764,258.592 303.681,258.338 303.838 C 258.074 304.002,257.984 303.949,258.128 303.716 C 258.267 303.491,258.834 303.358,259.389 303.419 C 259.943 303.479,260.498 303.365,260.622 303.165 C 260.746 302.964,261.175 302.800,261.575 302.800 C 261.975 302.800,262.526 302.530,262.800 302.200 C 263.114 301.822,263.141 301.600,262.873 301.600 C 262.639 301.600,262.336 301.780,262.200 302.000 C 262.064 302.220,261.593 302.400,261.153 302.400 C 260.713 302.400,260.464 302.220,260.600 302.000 C 260.736 301.780,261.182 301.600,261.590 301.600 C 261.999 301.600,262.427 301.375,262.542 301.100 C 262.692 300.738,262.910 300.798,263.331 301.316 C 264.006 302.149,266.600 301.081,266.600 299.971 C 266.600 299.663,266.960 299.342,267.400 299.257 C 267.840 299.172,268.709 298.675,269.331 298.151 C 270.611 297.074,270.359 296.992,268.600 297.913 M263.200 299.753 C 263.200 299.838,263.650 299.993,264.200 300.098 C 264.750 300.203,265.200 300.134,265.200 299.945 C 265.200 299.755,264.750 299.600,264.200 299.600 C 263.650 299.600,263.200 299.669,263.200 299.753 M253.684 304.025 C 253.866 304.513,253.685 304.615,252.850 304.493 C 252.132 304.387,251.535 304.609,251.029 305.168 C 250.602 305.639,249.783 306.000,249.138 306.000 C 248.512 306.000,248.000 306.180,248.000 306.400 C 248.000 306.620,247.539 306.800,246.976 306.800 C 246.413 306.800,246.059 306.972,246.189 307.183 C 246.319 307.393,246.719 307.452,247.078 307.315 C 247.485 307.158,247.632 307.225,247.468 307.490 C 247.177 307.961,248.370 308.576,248.757 308.155 C 248.891 308.009,248.785 307.813,248.522 307.719 C 247.984 307.527,248.278 306.400,248.866 306.400 C 249.076 306.400,249.144 306.567,249.018 306.771 C 248.676 307.324,250.409 307.751,250.920 307.240 C 251.240 306.920,251.168 306.800,250.656 306.800 C 250.269 306.800,250.064 306.620,250.201 306.399 C 250.365 306.134,250.722 306.144,251.256 306.430 C 252.235 306.954,253.200 306.647,253.200 305.813 C 253.200 305.476,253.391 305.200,253.624 305.200 C 253.857 305.200,253.936 305.380,253.800 305.600 C 253.256 306.481,254.752 305.933,255.339 305.037 C 255.906 304.172,255.907 304.050,255.352 303.837 C 254.451 303.491,254.317 303.541,254.653 304.100 C 254.828 304.391,254.639 304.349,254.202 304.000 C 253.530 303.464,253.475 303.466,253.684 304.025 M246.246 308.625 C 245.998 309.270,246.336 309.355,247.134 308.850 C 247.568 308.574,247.555 308.468,247.067 308.281 C 246.736 308.154,246.367 308.309,246.246 308.625 M392.887 406.935 C 391.797 407.541,392.118 408.000,393.633 408.000 C 394.238 408.000,394.793 408.152,394.867 408.338 C 394.940 408.524,395.709 408.788,396.576 408.925 L 398.151 409.174 396.091 407.787 C 394.958 407.024,393.979 406.406,393.916 406.414 C 393.852 406.422,393.389 406.656,392.887 406.935 " stroke="none" fill="#ac6fec" fill-rule="evenodd"></path></g></svg>